<?xml version="1.0" standalone="no"?>
<!DOCTYPE svg PUBLIC "-//W3C//DTD SVG 1.1//EN" "http://www.w3.org/Graphics/SVG/1.1/DTD/svg11.dtd" >
<svg xmlns="http://www.w3.org/2000/svg">
<metadata></metadata>
<defs>
<font id="manicsearegular" horiz-adv-x="770" >
<font-face units-per-em="2048" ascent="1638" descent="-410" />
<missing-glyph horiz-adv-x="890" />
<glyph horiz-adv-x="0" />
<glyph unicode="&#xd;" horiz-adv-x="2048" />
<glyph unicode=" "  horiz-adv-x="890" />
<glyph unicode="&#x09;" horiz-adv-x="890" />
<glyph unicode="&#xa0;" horiz-adv-x="890" />
<glyph unicode="!" horiz-adv-x="525" d="M198 1277q10 14 32 18q2 6 3.5 6.5t3.5 6.5q11 3 16 12q8 0 39 23t39 35q24 0 19.5 -2.5t10.5 -5.5q3 -10 8.5 -19t8.5 -15q9 -20 47 -64t41 -46q1 -12 -6 -23q-36 -48 -29 -161.5t7 -176.5q0 -30 -3 -113.5t0 -175.5t15 -169t42 -93q-10 -15 -38.5 -36.5t-52.5 -38.5 q-58 24 -59.5 49.5t-39.5 23.5q55 141 3 354t-52 353q0 50 -5 69t-8 54q-6 65 -25.5 88.5t-16.5 46.5zM323.5 96q-6.5 2 6.5 34q20 9 35 25l15 15l1 -3.5t13 19.5q6 6 5 1.5t3 9.5q35 -18 40 -23l58 -52q-14 -18 -13 -16.5t-12 -9.5q-7 -5 -13 -12l-24 -22l-11 -11 q-16 -14 -33 -15l-46 40q-18 18 -24.5 20z" />
<glyph unicode="&#x22;" horiz-adv-x="448" d="M0 1266q8 16 23 28.5t27 25.5q21 21 32 28.5t50 4.5l18 -21q9 -12 16 -20q5 -8 8 -9l19 -21q30 -54 -5.5 -108.5t-88.5 -86.5l-10 -6q-15 -9 -32 -17.5t-50 1.5q60 97 46 97t-53 104zM205 1266q8 16 23 28.5t27 25.5q20 21 31.5 28.5t50.5 4.5l18 -21q4 -6 7 -10t8 -10 l9 -9l18 -21q30 -54 -5 -108.5t-89 -86.5l-9 -6q-15 -9 -32 -17.5t-50 1.5q60 97 45.5 97t-52.5 104z" />
<glyph unicode="#" horiz-adv-x="924" d="M12 344.5q26 58.5 54 59.5q31 1 63 6.5t85 5.5v2q2 5 11.5 41.5t21.5 83.5q-49 5 -59 3q-36 -8 -84.5 0.5t-53.5 -33.5q-7 -20 22 -15l10 1q-27 -24 -31 -10t-29 14q-6 -6 -1 -18.5t-1 -12.5l-6 6q-28 9 -2 67.5t54 60.5q38 1 79 8t121 2q24 91 30 101q12 24 15.5 61 t8.5 54q6 10 -15 20.5t-28 10.5q5 -5 5 7q5 -2 11 4q12 -6 13 3t-16 21q-6 4 10 0q34 -9 61.5 -42.5t32.5 -37.5q-3 -7 -1.5 -35t-7.5 -49q-17 -35 -19 -57t-10 -38q-12 -29 -13 -32q35 -5 50 -7q8 -2 71 -2h127q10 42 19.5 76t14.5 43q12 24 15.5 61t9.5 54 q6 10 -15.5 20.5t-27.5 10.5q5 -5 5 7q5 -2 10 4q13 -6 13.5 3t-15.5 21q-5 4 9 0q34 -9 61.5 -42.5t33.5 -37.5q-3 -7 -2 -35t-8 -49q-16 -35 -18 -57t-10 -38q-10 -21 -17 -43q26 -2 34 -3q26 -6 63 -1t54 5q12 -3 17 19.5t3 30.5l4 -2l4 -2q-1 -6 7 -9q-3 -15 6 -13.5 t16 21.5q3 5 3 -9q-1 -36 -26.5 -71t-28.5 -40q-7 0 -34 -8t-49 -3q-36 6 -58 3.5t-39 0.5q-22 -85 -34 -119q81 -2 92 -4q26 -7 63 -1.5t54 5.5q12 -4 17 19t3 30q8 8 8 -4q-1 -4 7 -9q-3 -15 6 -13t16 22q3 6 3 -10q-1 -36 -26.5 -70.5t-28.5 -39.5q-7 0 -34 -8t-49 -3 q-39 6 -60.5 3t-39.5 1q-19 3 -56 7q-13 -36 -26.5 -70t-13.5 -45q-2 -37 -21 -82t20 -60q16 -11 20 17l1 10q16 -32 2 -32t-20 -25q4 -6 17 -4.5t13 -4.5q-5 -3 -7 -5q-18 -25 -68 14.5t-44 66.5q8 41 11.5 87t35.5 135q-40 0 -76.5 1.5t-61.5 7.5q-21 -2 -50 1t-56 6 q-12 -39 -29 -80t-17 -53q-2 -37 -21 -82t20 -60q16 -10 20 17l2 10q16 -32 1.5 -32t-20.5 -25q5 -6 18 -4.5t12 -4.5q-4 -2 -7 -5q-18 -25 -68 14.5t-44 66.5q9 43 13 92.5t42 150.5q-36 -6 -83 1t-51 -33q-6 -19 22 -15l10 1q-27 -24 -31 -10t-29 14q-6 -7 -1 -19.5 t-1 -12.5l-6 6q-28 10 -2 68.5zM287 412q39 -3 106 -14q6 -1 48 -1h94l4 10t5 11q2 4 9.5 34t18.5 71q-56 3 -112.5 2t-91.5 8q-18 -2 -47 2q-9 -33 -17 -65t-17 -58z" />
<glyph unicode="$" horiz-adv-x="701" d="M-16 123q6 50 7.5 97t100.5 68q3 -38 -6 -50.5t-8 -42.5q24 -12 30 -16.5t15 -28.5q-81 30 -39 -18t60 -60q60 -41 135 -47q-1 8 -1 21q-3 22 -1.5 132t3.5 197q-27 9 -60.5 23t-49.5 22q-173 74 -150.5 189t55.5 148q83 82 126.5 81t77.5 -16q1 25 2.5 47.5t2.5 46.5 q1 37 35 68t40 -10q0 -5 3 -9q0 -9 -7.5 -1t-10.5 2q-1 -36 7 -42.5t-6 -39.5l1 13q0 7 -2.5 20t-5.5 11q-18 -2 -19.5 -39.5t-0.5 -80.5l28 -11l77 -65q8 25 -10.5 69.5t-21.5 53.5q48 -15 81.5 -50t66.5 -5q0 -15 -32.5 -123t-43.5 -124q-21 39 -23 80.5t-37 81.5 q-24 27 -86 54q0 -18 -1 -25q-2 -16 0 -68t3 -104q99 -24 224 -79.5t89 -211.5q-22 -90 -78 -168t-127 -107q-42 -10 -66.5 -23t-36.5 -23q-2 -27 -5.5 -52t-3.5 -33q-3 -4 -23.5 -35.5t-40.5 -28.5q-9 0 -5 4q11 8 12 19.5t-7 10.5q-3 10 -5 10l-1 5l-1 5q3 -3 16.5 1.5 t12.5 21.5q0 14 1.5 38t2.5 50q-63 7 -84.5 19t-36.5 27t-41 30t-97 26q-10 -14 -16 -16q-5 44 -18 61zM199 669.5l33 -66.5q6 -11 44 -20q-3 66 -2.5 113.5t2.5 83.5q-13 1 -23 -2q-87 -42 -54 -108.5zM320.5 238.5q-0.5 -64.5 2.5 -116.5q1 -20 0 -41.5t-1 -54.5 q60 6 105 46.5t54 121.5q7 69 -51 109t-108 60q-1 -60 -1.5 -124.5z" />
<glyph unicode="%" horiz-adv-x="895" d="M4 137q4 4 16 -12.5t24 -17.5q19 23 4.5 40.5t34.5 18.5l-9 -8q-23 -23 3 -35q55 -37 81 15t62 78q15 12 49 78t67 100q21 54 85 127t94 143q9 20 29.5 36.5t39.5 58.5q11 25 40.5 41.5t33.5 23.5q9 -3 71.5 -13.5t107.5 -45.5q6 -6 4.5 -8t4.5 -4q-29 12 -37.5 6 t10.5 -18q0 -11 6 -15v-11q-8 9 -40 27t-36 4q-12 -17 -46.5 -45t-45.5 -58q-5 -14 -39 -58.5t-73 -94t-72 -91t-36 -47.5q-81 -168 -137.5 -215t-96.5 -92q-22 -24 -113.5 9.5t-83.5 70.5q0 5 -2 12zM63 632q-10 3 9 51q32 16 55 39q16 18 23 24l1 -6t20 29q9 9 8 2.5 t5 14.5q15 -8 32 -15t29 -19l89 -80q-21 -27 -19.5 -25t-19.5 -15q-9 -7 -19 -19l-37 -35q-6 -6 -6.5 -7.5t-9.5 -9.5q-24 -21 -52 -22l-71 61q-27 29 -37 32zM107.5 642q6.5 -2 24.5 -21l48 -41q20 1 34 15l11 11l25 23q6 8 13 13q14 11 12.5 9.5t13.5 16.5l-60 54 q-8 7 -40 23q-5 -14 -4 -9.5t-5 -1.5q-13 -24 -13.5 -20l-0.5 4l-16 -16t-36 -26q-13 -32 -6.5 -34zM582 195.5q-10 3.5 9 51.5q31 13 55 39l11 11l12 12l1 -6t20 30q9 9 8 2.5t5 14.5q15 -8 32 -15.5t29 -19.5l89 -80q-21 -27 -19.5 -25t-19.5 -15q-9 -7 -19 -19l-37 -34 q-6 -6 -6.5 -8t-9.5 -9q-24 -21 -52 -22l-71 61q-27 28 -37 31.5zM626.5 205q6.5 -2 24.5 -20l48 -41q18 0 34 14q3 3 11 12l25 23q6 8 13 13q14 11 12.5 9.5t13.5 16.5l-60 54q-3 2 -40 23q-5 -15 -4 -10.5t-5 -1.5q-13 -24 -13.5 -19.5l-0.5 4.5l-8 -8l-8 -8 q-14 -15 -36 -26q-13 -33 -6.5 -35z" />
<glyph unicode="&#x26;" horiz-adv-x="1230" d="M11 485q-60 -127 21 -244q88 -127 142.5 -185t209.5 -66q71 -3 175 36t193 170l-88 104q-105 -109 -203.5 -137t-158.5 5q-25 34 -45.5 78t-20.5 86q-2 44 15 104t37 97q12 21 58 70t57 54q-33 51 -43.5 69.5t-29.5 48.5l-54 -23q-20 -9 -54 -32q-15 -10 -26.5 -19 t-25.5 -18q-99 -71 -159 -198zM251 1095q-5 44 37 103q59 83 129 128q37 24 121.5 27t121.5 -20q22 -15 18.5 -15.5t10.5 -24.5q18 -30 29 -36.5t23 -42.5q9 -29 26 -56.5t16 -67.5q-3 -74 -47 -173t-151 -145q-21 -6 -43 51.5t-28 68.5q13 39 29.5 32.5t37.5 37.5 q45 95 52.5 123t6.5 125q-2 75 -59.5 79t-95.5 -61q-21 -36 -32 -56t-10 -66q1 -52 22.5 -115t39.5 -102q19 -45 47.5 -100t52.5 -96q23 -40 26 -55t17 -42q18 -39 50 -76t47 -69q222 -246 290.5 -327.5t121.5 57.5q15 -23 -7 -73t-67 -84t-106 -30.5t-123 87.5l-404 483 q-11 21 -49.5 104.5t-59.5 104.5q-23 64 -31 78t-38 74q-9 27 -10 38.5t-6 19.5q0 68 -5 112zM731 600q-8 15 10.5 60t27.5 45q18 0 39.5 7.5t67.5 -35.5q3 -3 48.5 -10.5t52.5 -16.5q7 -10 20 -5.5t19 3.5q3 -6 9.5 10t7.5 25l0.5 -3l0.5 -3q-1 -7 1 -12q-4 -18 -0.5 -16.5 t9.5 26.5q-3 -10 -1 -12q4 -9 -17 -57t-23 -55q-2 1 -12.5 -7.5t-16.5 -0.5q-12 11 -19.5 8t-12.5 3q-18 19 -30 8.5t-25 7.5q-19 -115 -54 -213l-64 78q42 64 86 159q-14 -1 -32.5 14.5t-24.5 12.5q-14 -7 -32 3t-19 -9q-4 -16 5 -14q-15 -7 -11.5 -3t-5.5 6q-4 -12 -3 -12 q0 5 -1 8z" />
<glyph unicode="'" horiz-adv-x="234" d="M0 1266q8 16 23 28.5t27 25.5q21 21 32 28.5t50 4.5l18 -21q9 -12 16 -20q5 -8 8 -9l19 -21q30 -54 -5.5 -108.5t-88.5 -86.5l-10 -6q-15 -9 -32 -17.5t-50 1.5q60 97 46 97t-53 104z" />
<glyph unicode="(" horiz-adv-x="471" d="M11 682q2 2 4 5q-2 1 -3 2t-1 2q3 5 3.5 30.5t12.5 43.5q19 28 23 47.5t14 34.5q21 30 37.5 71.5t34.5 82.5q31 64 32 67q38 137 72 180.5t58 84.5q12 21 81 11.5t67 -37.5q0 -3 3 -9q-3 -5 -13.5 5.5t-18.5 10.5q-11 -21 1 -31.5t-21 -18.5l5 7q16 20 -6 25 q-43 18 -55.5 -25t-34.5 -67q-10 -12 -26.5 -66.5t-35.5 -84.5q-6 -30 -37 -83v-12q-21 -54 -47 -118t-35 -75q-6 -7 -8 -14q1 0 2 1q5 -5 11 -2q0 -1 3.5 -3l3.5 -2q-11 -3 -27 -12q-6 -17 -12 -46q6 -28 12 -46q17 -12 27 -12q0 -1 -3.5 -3l-3.5 -2q-5 2 -11 -2q-1 0 -2 1 q2 -6 8 -14q9 -12 35 -76t47 -117v-13q31 -54 37 -83q19 -31 35.5 -85t26.5 -66q22 -25 34.5 -67.5t55.5 -24.5q20 6 6 25l-5 8q33 -9 21 -19.5t-1 -30.5q8 -1 18.5 9t13.5 6q-3 -7 -3 -8q2 -30 -67 -39t-81 13q-24 39 -58 82.5t-72 181.5q-1 2 -32 67q-18 40 -34.5 82 t-37.5 73q-10 13 -14 32.5t-23 48.5q-12 18 -12.5 43t-3.5 31z" />
<glyph unicode=")" horiz-adv-x="471" d="M11 75q3 4 13 -6t19 -9q11 20 -1.5 30.5t22.5 19.5l-5 -8q-16 -20 6 -25q42 -18 54.5 24.5t35.5 67.5q9 12 25.5 66t36.5 85q6 31 36 83l1 13q21 53 46.5 117t34.5 76q4 4 9 14q-1 -1 -2 -1q-8 3 -11 2q-7 0 -7 5q8 0 27 12q6 18 12 46q-7 29 -12 46q-20 10 -27 12 q0 -2 7 5q4 -3 11 2q1 -1 2 -1q-8 12 -9 14q-9 11 -34.5 75t-46.5 118l-1 12q-30 51 -36 83q-20 30 -36.5 84.5t-25.5 66.5q-23 24 -35.5 67t-54.5 25q-23 -5 -6 -25l5 -7q-35 8 -22.5 18.5t1.5 31.5q-9 0 -19 -10.5t-13 -5.5q3 5 4 9q-3 28 66 37.5t82 -11.5 q23 -41 57 -84.5t73 -180.5q0 -3 32 -67q16 -41 33.5 -82.5t38.5 -71.5q9 -15 12.5 -34.5t24.5 -47.5q12 -18 12 -43.5t3 -30.5q0 2 -3 -4q3 -9 3 -5q-3 -6 -3 -31t-12 -43q-21 -29 -24.5 -48.5t-12.5 -32.5q-21 -31 -38.5 -73t-33.5 -82q-32 -65 -32 -67 q-39 -138 -73 -181.5t-57 -82.5q-13 -22 -82 -13t-66 39z" />
<glyph unicode="*" horiz-adv-x="725" d="M0 438q0 15 2 10q5 -21 11.5 -22t5.5 14q6 3 6 9l2.5 2l2.5 2q-2 -8 2 -31.5t14 -20.5q12 0 41 -5.5t49 1.5q9 3 45.5 4t78.5 1q-30 34 -55 53q-12 8 -20 23.5t-32 33.5q-15 10 -22 31.5t-10 25.5q3 6 18.5 44t44.5 62q13 13 9 5q-13 -18 -10 -24t14 4q6 -2 10 3 q7 0 7 -3q-7 -3 -23 -21t-7 -23q9 -10 22.5 -36t31.5 -37q10 -7 57 -62q-3 73 8.5 107t17.5 66q3 21 65.5 35.5t71.5 -8.5q1 -4 5 -6q-1 -5 -13.5 0t-19.5 2q-3 -20 11.5 -24t-11.5 -22l2 7q4 21 -14 18q-44 0 -39.5 -37.5t-5.5 -64.5q-4 -9 -1.5 -41t3.5 -62q30 34 42 55 q7 12 21.5 21.5t29.5 36.5q9 15 30 23.5t24 13.5q6 -3 45.5 -14.5t66.5 -37.5q10 -10 5 -8q-18 10 -24 6.5t6 -12.5q-2 -8 3 -11l-1 -3l-1 -3q-4 6 -24 20t-23 5q-9 -10 -33.5 -26.5t-33.5 -34.5q-5 -10 -57 -64q74 10 109.5 2t68.5 -10q21 -1 41.5 -62t-1.5 -72l-5 -5 q-5 0 -1.5 13t0.5 19q-21 0 -23.5 -14.5t-22.5 10.5l7 -1q20 -4 17 16q-4 43 -41.5 34.5t-64.5 -0.5q-11 3 -44 -3.5t-64 -9.5q73 -62 92 -99t41 -66q12 -18 -22 -72.5t-57 -43.5h-7q-3 3 9 9t15 13q-12 15 -25.5 8t-6.5 25l4 -7q9 -19 22 -2q31 30 1 53.5t-41 50.5 q-5 9 -33.5 33t-49.5 48q-4 -55 1 -83q2 -15 -3.5 -31.5t-0.5 -45.5q3 -18 -7 -38t-10 -25q-6 -3 -44.5 -18.5t-75.5 -11.5q-14 0 -9 2q20 3 22.5 10t-12.5 7q-4 6 -9 6l-2 2.5t-1 3.5q6 -3 30.5 -1.5t22.5 11.5q0 13 8.5 41t4.5 49q-2 11 2 64q-39 -48 -67 -65.5t-50 -37.5 q-16 -15 -74 14t-49 53l-1 7q3 3 10 -8.5t15 -13.5q14 14 5.5 26.5t23.5 9.5l-6 -5q-20 -12 0 -22q33 -29 53.5 3t45.5 47q9 5 29.5 35.5t41.5 54.5q-52 -2 -79 -9q-15 -4 -31.5 -0.5t-45.5 -3.5q-18 -6 -38.5 2.5t-25.5 8.5q-3 6 -23 42t-20 73z" />
<glyph unicode="+" horiz-adv-x="903" d="M2 548q0 19 3 12q6 -26 14.5 -28t7.5 17q6 5 6 12l3 2t4 2q-3 -9 2 -38.5t17 -24.5q16 0 51.5 -7t60.5 1q14 4 79.5 5.5t125.5 1.5q-19 150 -1.5 206.5t25.5 105.5q3 26 81 44t89 -11q1 -3 7 -7q-2 -6 -17.5 0t-23.5 3q-3 -25 15 -30.5t-15 -27.5l2 9q7 25 -17 23 q-54 0 -49 -47t-7 -80q-6 -15 -0.5 -75.5t-0.5 -97.5q2 -8 2 -14l1 0.5l1 0.5q148 33 206.5 21.5t107.5 -13.5q27 -2 52.5 -77.5t-2.5 -88.5q-3 -3 -6 -8q-6 0 -1.5 16t-0.5 25q-25 0 -28.5 -18t-28.5 13l10 -2q26 -5 20 20q-5 54 -51.5 43.5t-80.5 -0.5q-16 4 -75 -8 t-97 -9q-18 -4 -29 -6q-3 -41 -6 -82.5t3 -76.5q3 -18 -3.5 -38.5t-0.5 -56.5q3 -23 -9.5 -47.5t-12.5 -30.5q-8 -3 -55.5 -23t-92.5 -15q-16 1 -12 3q25 4 28 12.5t-15 8.5q-5 7 -11 7q0 8 -4 8q8 -3 38 -1t27 14q1 15 11.5 50t5.5 61q-3 14 2.5 78t11.5 124 q-36 -1 -72.5 -3t-66.5 -10q-18 -5 -38.5 -0.5t-56.5 -4.5q-23 -6 -48 4t-31 10q-4 7 -29 52t-25 92z" />
<glyph unicode="," horiz-adv-x="150" d="M0 126q5 10 15 18t17 16q22 23 53 21l12 -13q12 -15 10 -13q1 -2 2 -3.5t3 -2.5l12 -13q19 -35 -3.5 -70t-57.5 -56l-5 -3q-31 -16 -53 -10q39 62 29 62t-34 67z" />
<glyph unicode="-" d="M14.5 449q21.5 65 45.5 67q42 2 92.5 12t178.5 -19q10 -3 123.5 -2.5t133.5 -5.5q21 -7 51.5 -1t44.5 6q10 -4 14 21.5t3 33.5q-4 -4 7 -4q-1 -6 5 -10q-2 -16 5.5 -14t13.5 23q2 3 2 -10q-1 -40 -22 -79t-24 -45q-6 0 -28 -9t-41 -3q-31 7 -49 3.5t-33 0.5 q-52 14 -120 11t-107 10q-33 -3 -84.5 7t-64.5 7q-30 -9 -70.5 0t-43.5 -37q-5 -21 18 -17l8 1q-22 -27 -25 -11t-24 16q-5 -7 -1 -21t-1 -14q-3 4 -5 6q-24 12 -2.5 77z" />
<glyph unicode="." horiz-adv-x="189" d="M3.5 86q-5.5 2 5.5 34q18 7 36 25q7 8 15 15l1 -4t13 20q6 6 5 1.5t3 9.5q35 -20 39 -23l59 -52q-15 -18 -13.5 -16.5t-12.5 -9.5q-6 -4 -12 -12l-25 -22q-5 -7 -10 -11q-14 -14 -33 -15l-47 40q-18 18 -23.5 20z" />
<glyph unicode="/" horiz-adv-x="1336" d="M1 0l4 33q2 4 44.5 10.5t60.5 29.5q153 192 325 412.5t306 403.5l72 100q80 113 129.5 188t29.5 96l-45 46l4 34h143l1 1h-45h141l-1 -1h103l-4 -34l-110 -46q-36 -15 -102 -93t-148 -191l-72 -100q-129 -183 -273 -403.5t-266 -412.5q-15 -23 8 -29.5t20 -10.5l-5 -33 h-78h-242z" />
<glyph unicode="0" horiz-adv-x="1026" d="M-13 562q12 51 21 209t71 239q3 3 3 4q10 13 6.5 7.5t7.5 25.5l22 44q2 4 3 5q10 15 8 11q36 51 34 65.5t40 62.5l46 57q33 33 52.5 47.5t64.5 36.5q29 14 27.5 11.5t38.5 -0.5q132 3 212 -12t176 -102q15 -15 38.5 -58.5t36.5 -71.5q25 -58 24.5 -83t7.5 -82 q3 -27 10 -42.5t11 -37.5q30 -165 19 -229t-29 -217q-24 -18 -26 -56q-21 26 -20 24.5t-9 1.5q-24 -60 -30.5 -68t-26.5 -53l28 -20q-81 -117 -103.5 -121.5t-68.5 -52.5q-28 -28 -65 -28q0 -2 -0.5 -4t-0.5 -3q-1 -2 -1.5 -4.5t-0.5 -3.5l-17 -28q-14 -14 -64 -40 q-2 0 -3.5 -1t-2.5 -2q-57 -31 -122 -25t-118 36q-29 17 -76 49t-65 52q-3 3 -4 5l-102 114q-19 77 -47.5 161.5t-5.5 176.5zM219 696.5q-6 -55.5 11 -199.5q1 -20 4.5 -33t5.5 -37q4 -50 3.5 -71.5t13.5 -72.5q6 -26 18 -64t21 -50q48 -77 89 -90t110 -10q20 1 19.5 -0.5 t14.5 10.5q33 28 60 73l23 50q21 42 20 54.5t18 57.5q4 8 4 9q2 4 2 5l12 39q5 26 2.5 21t3.5 7q2 2 2 4q32 70 36.5 208.5t11.5 183.5q12 80 -3.5 153.5t-24.5 141.5l-52 101q-2 2 -2 4q-10 16 -34 44.5t-39 43.5q-64 65 -123 11l-3 -3q-30 -30 -33 -35l-9 -25q0 -6 -1 -7 v-4v-3q-20 0 -33 -24q-25 -43 -36.5 -46.5t-52.5 -105.5l14 -18q-11 -40 -14 -47t-15 -58q-6 2 -5.5 0.5t-9.5 22.5q-2 -36 -13 -50q-10 -135 -16 -190.5z" />
<glyph unicode="1" horiz-adv-x="560" d="M0 0l15 26q18 24 22.5 17.5t13.5 21.5q21 3 55 31.5t45 43.5q12 18 23.5 89t21 153t15 153t6.5 88v87.5t2 87.5q0 13 5 65t2.5 107.5t-17 96.5t-51.5 34l-121 -58q9 19 25 32l70 56q72 63 137.5 114t145.5 110q57 -27 55.5 -95.5t-2.5 -113.5q-4 -97 -25.5 -250 t-13.5 -231q6 -69 -3 -138t3 -133q-9 -13 -15 -103.5t-3 -111.5q3 -18 26.5 -56.5t35.5 -56.5q21 -33 36 -23t25 -43q-69 9 -214 35t-202 4q-39 -15 -56.5 -26t-61.5 -13z" />
<glyph unicode="2" horiz-adv-x="1158" d="M0 -27q59 126 69.5 134.5t46.5 74.5q102 126 163.5 173.5t163.5 142.5q83 78 165 167t127 197q13 32 39.5 128t10.5 138l-47 59q-3 33 4.5 48.5t-64.5 21.5q-107 9 -173 -58t-135 -122q-4 -21 -14 -34t-14 -31q-9 -35 -3.5 -31t13.5 -33q7 -35 17.5 -47t25.5 -76 q-27 -7 -114 -3.5t-111 12.5q-93 33 -80.5 147t66.5 165q42 39 93.5 82t108.5 67q86 33 138 51.5t168 -3.5q63 -12 120 -55l33 -28q53 -57 110 -139q3 -28 18.5 -51.5t19.5 -53.5q9 -61 8.5 -127t-26.5 -117q-35 -69 -74 -119q-41 -51 -104.5 -88t-114.5 -79 q-30 -26 -60.5 -38.5t-59.5 -36.5q-28 -24 -54.5 -37t-67.5 -36l-112 -79q61 4 127 7.5t126 -8.5l322 -35l36 188l32 16l68 6q19 -54 20.5 -48t15.5 -22q21 -45 38.5 -108.5t9.5 -117.5q-15 -104 -124.5 -135.5t-229.5 -10.5q-28 14 -20 21t-64 20q-31 5 -55.5 9.5 t-53.5 14.5q-40 13 -96.5 32.5t-101.5 23.5q-138 10 -195.5 -11.5t-79.5 -51t-29.5 -54.5t-45.5 -22z" />
<glyph unicode="3" horiz-adv-x="992" d="M-20 1282.5q-7 67.5 125 62.5q166 -6 307 -11.5t315 8.5q52 3 75 15t59 -12q10 -59 -5.5 -60.5t-69.5 -57.5l-39.5 -33.5t-89 -76.5t-95 -83.5t-58.5 -54.5l207 -34q30 -10 78.5 -42.5t62.5 -57.5q21 -4 17 -3.5t16 -20.5q1 -2 4 -5l29 -33q17 -48 22 -44.5t4 -60.5 q0 -70 -18 -114q-4 -9 -9.5 -22.5t-10.5 -24.5q-36 -77 -33 -81t-22 -70q-19 -51 -81.5 -160.5t-104.5 -145.5q-11 -9 -70 -35t-67 -29q-191 -58 -356 13q-80 36 -116.5 98t-61.5 146q-12 42 -2 60t20 51q61 78 98.5 92t149.5 53q40 -44 19.5 -131t-23.5 -120q-5 -37 7 -78 t42 -62q32 -24 69 -57.5t115 62.5q28 36 75.5 127.5t56.5 129.5q12 52 35 164t-6 174q-27 27 -47 66.5t-47 62.5q-29 22 -41 19.5t-46 9.5q-46 15 -83 10t-103 -35q-4 -2 -5 -3q-19 -9 -9.5 -4.5t-7.5 -4.5q-54 -28 -66 -29t-53 -32q-27 -21 -38.5 -22.5t-34.5 -2.5 q43 79 43 63t59 46l1.5 1.5l2.5 2.5l8 8q53 57 59.5 61t57.5 49q16 14 106 112t100 121q-61 -13 -119 -24.5t-112 -38.5q-2 -1 -3.5 -2t-2.5 -1q-33 -17 -35 -17t-35 -24q-27 -20 -31 -25.5t-19 -27.5q-3 -3 -4 -5q-30 -40 -16 -13t-1 -12q-7 -17 -7 -31.5t-8 -33.5l-52 -8 q-68 79 -54.5 75.5t2.5 56.5q-22 129 -29 196.5z" />
<glyph unicode="4" horiz-adv-x="1135" d="M0 437q21 60 50.5 99.5t40.5 78.5q14 5 8 -1.5t13 16.5q7 8 17 30q8 15 15.5 28t16.5 29q39 72 81 149t75 153q33 78 96 172t139 133q51 27 105.5 37t111.5 22q-9 -18 -9.5 -17.5t-15.5 -8.5q-72 -47 -110 -52.5t-116 -177.5q-1 -1 -3 -5q-31 -69 -85.5 -216.5 t-93.5 -200.5q28 20 28.5 18t36.5 3q36 4 78 19.5t77 24.5q18 3 38 4.5t34 22.5q33 54 54 225t79 258q17 25 60.5 36t84.5 21q20 6 41 8.5t41 7.5q12 3 28.5 10.5t32.5 5.5l32 -13q-12 -16 -6.5 -10.5t-8.5 -4.5q-10 -10 -17 -10q-72 -33 -78 -51.5t-44 -134.5l-31 -101 l-24 -190q23 -12 38.5 -0.5t44.5 11.5l97 -6q-9 -18 -23 -24t-14 -26q-63 7 -121 -25q-56 -9 -61.5 -41t-7.5 -77l-39 -254q-5 -45 -7.5 -32.5t2.5 -41.5q2 -28 -3 -49.5t-5 -50.5q-3 -67 9.5 -79.5t77.5 -62.5l50 -62q-61 -44 -74 -25.5t-64 26.5q-148 21 -270.5 -9 t-182.5 -24l127 110q48 36 41.5 37.5t36.5 57.5q12 17 34.5 120.5t24.5 112.5q4 27 5.5 58t6.5 53q5 24 10 54.5t-10 55.5l-219 -87q-51 -24 -184 -83.5t-192 -53.5z" />
<glyph unicode="5" horiz-adv-x="1071" d="M-15.5 231.5q14.5 54.5 53.5 111.5q20 28 37 46.5t9 48.5l57 9q30 11 43 28t109 23l-15 -35q-8 -8 -12 -16q-12 -16 -24 -30.5t-19 -32.5q-21 -48 -26 -73.5t14 -72.5q1 -5 4 -18q3 -14 0.5 -14.5t6.5 -18.5l9 -15q0 -1 1 -2.5t2 -1.5q18 -25 42 -31q76 -24 141 -4 q14 3 30 15q118 93 158.5 256t43.5 307q1 94 -74 177q-2 0 -15 4.5t-15 4.5l-12 2q-29 7 -19 12.5t-24 -0.5q-39 -9 -88 -24t-81 -36l-209 -199q-42 -47 -83 -61l64 165q8 18 12.5 23.5t12.5 25.5q3 12 40.5 88t47.5 148l22 336q39 -1 101.5 -26.5t110.5 -28.5 q35 -3 107.5 -3t107.5 4q37 4 97.5 4.5t99.5 14.5l168 46q0 -25 -10.5 -32t-26.5 -19l-240 -219q-139 -3 -202.5 8t-162.5 28l-72 -226q52 5 94.5 28.5t108.5 47.5q16 6 31.5 10t32.5 13l49 2q168 -7 216 -51.5t60 -71.5q56 -139 50.5 -247t-84.5 -238q-17 -28 -28.5 -55 t-25.5 -54q-25 -47 -64.5 -88.5t-77.5 -75.5q-15 -14 -42.5 -38t-40.5 -33q-21 -14 -27 -16l-20 -9q-19 -6 -29 -7.5t-26 -10.5l-58 -34q-54 -33 -136 -19.5t-142 27.5q-36 9 -32 9t-19 21q-27 24 -54.5 27.5t-41.5 39.5q-30 72 -15.5 126.5z" />
<glyph unicode="6" horiz-adv-x="1050" d="M1 439.5q30 100.5 52 153.5q45 109 39.5 94t44.5 72q38 67 32 52.5t25 27.5q22 21 50 52q9 9 12.5 13.5t12.5 13.5q7 7 12.5 11t14.5 13q39 36 37 40t76 65q26 20 55 46t61 48q19 13 32.5 20.5t32.5 19.5t31 23t35 24l122 74q48 42 44.5 34.5t50.5 19.5q16 8 10.5 6 t10.5 5l28 10q-11 -70 -63 -82.5t-124 -70.5l-31 -22q-1 -1 -2.5 -2l-1.5 -1q-2 -1 -5 -4l-2.5 -2.5l-1.5 -1.5l-25 -26q-55 -57 -79.5 -89.5t-65.5 -84.5q-1 -2 -8 -9q-31 -38 -85 -124.5t-81 -134.5q-6 -9 -8.5 -15t-7.5 -13l-23 -26q-21 -18 -26.5 -54.5t-12.5 -60.5 q-43 -153 -27.5 -240.5t129.5 -169.5q51 -39 105 -41q138 -7 239 49l54 223q-6 24 -8.5 30.5t-2.5 36.5q-2 89 -49 157q-63 89 -153.5 87t-115.5 -16l-24 -16q-60 -42 -57.5 -50t-52.5 -16l18 36q23 21 81 64.5t88 59.5l96 39q55 25 76.5 18t51.5 11q67 -1 111.5 -3 t85.5 -39q33 -32 47.5 -64t27.5 -76q11 -60 1.5 -142t-37.5 -139q-48 -96 -135 -183q-48 -49 -75.5 -68t-78.5 -49q-30 -19 -32 -20q-21 -12 -38 -18t-37 -15q-113 -52 -203 -10q-2 1 -3.5 2t-2.5 1q-56 25 -118.5 41.5t-124.5 64.5q-17 12 -16.5 13t-16.5 10 q-6 22 -17.5 38.5t-20.5 40.5q-8 21 -13.5 40.5t-15.5 42.5q-34 55 -4 155.5z" />
<glyph unicode="7" horiz-adv-x="1066" d="M14 1034q18 42 14.5 43t-8.5 5l3 260q74 29 73.5 12.5t151.5 -31.5q58 -6 150 -20.5t148 -5.5l470 57q-10 -27 -17.5 -31.5t-20.5 -17.5q-14 -13 -58 -43t-55 -45q-50 -64 -139.5 -205.5t-149.5 -226.5q-50 -71 -68.5 -99t-26.5 -45.5t-15.5 -38t-34.5 -75.5l-8 -16 q0 -1 -1 -2.5t-1 -2.5q-17 -36 -31.5 -91.5t-20.5 -98.5q-4 -25 -7 -49.5t-6 -48.5q-3 -31 20 -103t43 -97q15 -21 15 -8.5t7 -31.5l-90 23q-15 6 -66 18.5t-116 36.5q-18 5 -30 11l-71 44q-50 34 -48 103q3 88 126.5 255.5t193.5 248.5l244 281q43 51 35.5 42.5t28.5 43.5 q53 78 47 68t40 35q9 9 10 11t9 11q11 14 16 19t12 22l-197 -24q-61 -5 -94.5 -5.5t-89.5 -21.5q-43 -17 -74 1.5t-64 -7.5q-48 -39 -46.5 -76.5t-22.5 -82.5q14 -25 8.5 -39.5t-4.5 -46.5q-26 4 -54 9.5t-50 17.5q-1 1 -5 3q-47 28 -43.5 35.5t-31.5 19.5z" />
<glyph unicode="8" horiz-adv-x="1015" d="M13.5 454q60.5 133 176.5 212q16 11 29.5 20t30.5 21q36 25 64 37l64 27q27 -29 42 -46.5t60 -66.5q-13 -6 -65.5 -58.5t-64.5 -75.5q-21 -39 -36 -101t-9 -106q6 -43 35 -85t63 -75q36 -35 79.5 -69t122.5 -28q121 9 157 99t-39 182l-176 227q-15 21 -71.5 102 t-83.5 101q-34 62 -45 75t-55 72q-27 57 -26 57q-6 69 -16 113t35 107q63 86 146 139q44 28 148 37.5t152 -11.5q28 -12 23.5 -13.5t15.5 -23.5q24 -29 38.5 -34.5t33.5 -41.5q15 -29 38 -55t26 -66q4 -75 -41 -178.5t-172 -158.5q-25 -8 -58 48.5t-42 66.5q13 40 34.5 35.5 t42.5 40.5q45 99 52 128t-4 127q-9 75 -80.5 74.5t-112.5 -69.5q-23 -37 -34.5 -58t-5.5 -68q6 -52 38.5 -114t58.5 -99q64 -97 144 -190q32 -39 37.5 -54t24.5 -41q27 -38 50.5 -65.5t44.5 -57.5q70 -104 77 -157.5t-39 -135.5q-51 -91 -159 -151.5t-240 -64.5 q-192 -5 -265 49.5t-193 175.5q-111 112 -50.5 245z" />
<glyph unicode="9" horiz-adv-x="1063" d="M-6 849q9 82 37 140q47 94 135 184q48 48 75 67t79 50q8 4 17 10l15 10q20 11 37 17t38 16q112 54 203 10q1 -1 2.5 -2t3.5 -1q55 -27 117.5 -43.5t125.5 -62.5q16 -13 15.5 -14t17.5 -10q6 -22 17.5 -39t20.5 -40q7 -21 12.5 -41t16.5 -42q34 -56 3.5 -156.5 t-51.5 -152.5q-46 -110 -40.5 -95.5t-43.5 -71.5q-39 -67 -33 -52.5t-24 -27.5q-18 -17 -50 -51q-9 -10 -13 -15t-12 -13t-13 -12t-14 -12q-40 -36 -38 -40.5t-75 -64.5q-27 -21 -56 -47.5t-60 -47.5q-20 -14 -33.5 -20.5t-31.5 -18.5q-20 -14 -32 -24.5t-34 -22.5l-122 -75 q-48 -41 -44.5 -34t-50.5 -19q-17 -8 -11.5 -5.5t-9.5 -4.5l-29 -10q11 68 63.5 80.5t124.5 70.5l31 22l1.5 1.5l2.5 2.5q2 1 5 4l1.5 1.5l2.5 2.5l25 26q54 57 78.5 89t66.5 85q1 2 8 9q30 37 84.5 124t81.5 135q5 9 7.5 15t8.5 14l23 26q21 18 26.5 53.5t12.5 61.5 q42 153 26.5 240.5t-128.5 169.5q-52 38 -104 41q-141 6 -240 -48l-54 -223q5 -26 8 -32.5t3 -35.5q1 -90 49 -157q62 -90 152.5 -88t116.5 17l24 16q59 41 56.5 49t53.5 17l-18 -37q-23 -22 -81 -65t-87 -58l-97 -39q-56 -26 -77 -19t-51 -11q-68 0 -112.5 2.5t-84.5 40.5 q-34 30 -48 62.5t-26 77.5q-11 59 -2 141z" />
<glyph unicode=":" horiz-adv-x="189" d="M3.5 168q-5.5 2 5.5 34q18 7 36 25l15 15l1 -4t13 19q6 6 5 2t3 9q32 -16 39 -22l59 -52q-15 -18 -13.5 -16.5t-12.5 -9.5q-6 -4 -12 -12l-25 -22q-6 -8 -10 -12q-14 -13 -33 -14l-47 40q-18 18 -23.5 20zM3.5 434.5q-5.5 2.5 5.5 33.5q18 7 36 25q7 8 15 16l1 -4t13 19 q6 6 5 1.5t3 9.5q35 -20 39 -23l59 -52q-15 -18 -13.5 -16t-12.5 -9q-5 -4 -12 -13l-25 -22q-7 -9 -10 -11q-16 -14 -33 -15l-47 40q-18 18 -23.5 20.5z" />
<glyph unicode=";" horiz-adv-x="189" d="M3.5 434.5q-5.5 2.5 5.5 33.5q18 7 36 25q7 8 15 16l1 -4t13 19q6 6 5 1.5t3 9.5q35 -20 39 -23l59 -52q-15 -18 -13.5 -16t-12.5 -9q-5 -4 -12 -13l-25 -22q-7 -9 -10 -11q-16 -14 -33 -15l-47 40q-18 18 -23.5 20.5zM21 248q2 5 32 35q22 23 53 21l11 -13q3 -4 5 -7 t5 -6q1 -2 2.5 -3.5t3.5 -2.5l11 -13q20 -35 -3 -70t-57 -56l-6 -3q-28 -19 -53 -11q39 63 29.5 63t-33.5 66z" />
<glyph unicode="&#x3c;" horiz-adv-x="414" d="M-1 398q-1 -5 1 8q7 19 27 41q-1 0 -1 1q-4 10 -2 8q2 -3 5 -6q1 1 3 2.5t4 3.5q-1 0 -1 2q1 5 0 9l0.5 2.5l0.5 2.5q3 -6 5 -11q4 4 7.5 6.5t5.5 4.5q1 -3 10 -5.5t17 -8.5q16 12 21 22q6 12 56.5 60.5t54.5 54.5q48 75 72.5 89t44.5 32q10 9 37.5 -26.5t20.5 -53.5 q-2 -12 -1 -7q8 8 -10 23q-9 -9 -6.5 -21t-13.5 -3l4 3q10 7 3 19q-15 30 -30 6.5t-30 -29.5q-7 -4 -27 -33t-35 -41q-14 -26 -44.5 -53t-49.5 -58q-5 -8 -11.5 -12.5t-15.5 -15.5q0 -1 0.5 -1.5l0.5 -0.5q18 -32 48.5 -59t45.5 -52q15 -12 34.5 -41.5t27.5 -32.5 q15 -7 29.5 -30t29.5 7q7 11 -3 19l-4 3q17 9 14 -3t7 -21q18 14 10 23q0 -4 1 -7q7 -18 -21 -53.5t-37 -26.5q-20 17 -45 31.5t-73 89.5q-4 6 -54 54t-56 61q-8 14 -23 23t-21 15q-3 7 -12.5 -8.5t-9.5 -21.5q-1 0 -1.5 2.5l-0.5 2.5q2 5 1 9q4 10 0.5 12t-10.5 -10z" />
<glyph unicode="=" d="M14.5 449q21.5 65 45.5 67q42 2 92.5 12t178.5 -19q10 -3 123.5 -2.5t133.5 -5.5q21 -7 51.5 -1t44.5 6q10 -4 14 21.5t3 33.5q-4 -4 7 -4q-1 -6 5 -10q-2 -16 5.5 -14t13.5 23q2 3 2 -10q-1 -40 -22 -79t-24 -45q-6 0 -28 -9t-41 -3q-31 7 -49 3.5t-33 0.5 q-52 14 -120 11t-107 10q-33 -3 -84.5 7t-64.5 7q-30 -9 -70.5 0t-43.5 -37q-5 -21 18 -17l8 1q-22 -27 -25 -11t-24 16q-5 -7 -1 -21t-1 -14q-3 4 -5 6q-24 12 -2.5 77zM14.5 592q21.5 65 45.5 67q42 2 92.5 12t178.5 -19q10 -3 123.5 -2t133.5 -5q21 -8 51.5 -2t44.5 6 q10 -4 14 21.5t3 34.5q1 1 7 -5q-1 -6 5 -10q-2 -16 5.5 -14t13.5 24q2 4 2 -11q-1 -40 -22 -79t-24 -45q-6 0 -28 -9t-41 -3q-31 8 -49 4t-33 1q-52 13 -120 10.5t-107 9.5q-33 -3 -84.5 7t-64.5 7q-30 -9 -70.5 0t-43.5 -37q-4 -17 18 -17l8 2q-22 -27 -25 -11.5t-24 15.5 q-5 -7 -1 -21t-1 -14q-4 6 -5 7q-24 11 -2.5 76z" />
<glyph unicode="&#x3e;" horiz-adv-x="408" d="M0 629q0 3 0 2.5t0 4.5q-7 18 19.5 53.5t37.5 26.5q19 -18 44 -32t73 -89q3 -6 53.5 -54.5t57.5 -60.5q4 -10 21 -22q7 6 16 8.5t11 5.5q1 -2 4.5 -4.5t8.5 -6.5q-3 -5 5 11l0.5 -2.5l0.5 -2.5q-2 -4 0 -9q0 -2 -1 -2q1 -2 3 -3.5t4 -2.5q3 3 5 6q2 2 -2 -8q0 -1 -1 -1 q19 -22 27 -41q2 -4 1 -5t1 -3q-9 12 -12.5 10t1.5 -12q-1 -4 1 -9l-1 -2.5l-1 -2.5q-1 6 -10 21.5t-12 8.5q-6 -6 -21.5 -15t-22.5 -23q-7 -13 -57 -61t-53 -54q-48 -75 -73.5 -89.5t-43.5 -31.5q-11 -9 -39 26.5t-20 53.5q1 3 1 7q-9 -9 10 -23q9 9 6 21t15 3l-4 -3 q-11 -8 -3 -19q14 -30 29 -7t31 30q6 3 26 32.5t35 41.5q14 25 44.5 52t49.5 59l0.5 0.5t0.5 1.5q-9 11 -16 15.5t-11 12.5q-20 31 -50.5 58t-43.5 53q-16 12 -35.5 41t-26.5 33q-15 6 -30.5 29.5t-29.5 -6.5q-7 -10 3 -19l4 -3q-17 -9 -14 3t-6 21q-18 -15 -10 -23z" />
<glyph unicode="?" horiz-adv-x="812" d="M-13 1049q1 58 7 97.5t40 84.5q21 27 57 55q74 54 122.5 58t123.5 21q59 12 126.5 10.5t123.5 -24.5l11 -5.5l11 -5.5l17 -9q17 -9 11 -6t9 -6q128 -94 110 -261q-5 -34 -26 -90l-7 -15q-18 -32 -30 -42t-27 -35q-1 -2 -2 -3.5t-1 -2.5l-15 -22q-18 -20 -41.5 -35 t-41.5 -33l-22 -24l-2.5 -2.5l-1.5 -1.5l-26 -30q-4 -4 -9 -14q-16 -27 -11 -18t-7 -7q-18 -22 -38 -74.5t-24 -76.5q-17 -76 26 -137q0 -1 1 -2.5t2 -1.5q0 -2 1.5 -3t2.5 -2q19 -23 36 -37t24 -45q-26 -38 -75 -54q-53 -18 -96 25q-19 17 -40 37.5t-30 45.5q-10 24 -7 15 t-16 17q-7 8 -11 21q-26 65 9 116.5t78 92.5l89 94q9 9 14.5 16t15.5 16q30 27 57.5 63t48.5 62l46 82q47 81 28 176q-6 29 -5.5 26t-12.5 18q-21 30 -37 55.5t-49 49.5q-20 12 -29 15.5t-21 21.5l-11 19q-156 -25 -150 -29.5t-67 -36.5q-134 -93 -124 -205.5t124 -122.5 l-6 -50q6 -9 5 -6.5t7 -6.5l11.5 -7.5t-6.5 -25.5q-11 -11 -40 -11q-65 1 -110 15.5t-84 62.5q-27 32 -31.5 64t-4.5 74zM318.5 97q-6.5 2 6.5 33q20 10 35 25l16 16l0.5 -4t12.5 19q6 6 5 1.5t4 9.5q32 -16 39 -22l58 -52q-14 -18 -12.5 -16.5t-12.5 -9.5q-8 -7 -13 -12 l-24 -23q-4 -4 -4.5 -5t-5.5 -6q-18 -14 -34 -14l-46 40q-18 18 -24.5 20z" />
<glyph unicode="@" horiz-adv-x="1056" d="M-17 422q-1 46 6 82q7 29 9.5 34.5t17.5 26.5q9 12 14.5 22t17.5 19l23 27q6 16 16 29.5t19 28.5q11 18 24 28.5t29 25.5q121 106 242 149q61 21 122 40.5t127 3.5q59 -15 91 -33t71 -60q33 -36 63 -69.5t56 -72.5q24 -37 49.5 -127.5t25.5 -141.5q-2 -52 -34 -87 q-34 -38 -93.5 -76t-112.5 -35q-53 2 -83.5 21.5t-61.5 57.5l-16 18q-74 -48 -144 -81t-162 17q-27 15 -44 39q-22 30 -23 59q-3 54 70.5 121t118.5 100q38 27 111.5 68.5t116.5 34.5q4 -72 8 -145.5t22 -142.5q14 -56 51 -84l32 -25q32 -29 76 -7.5t59 54.5q29 69 27 146 t-25 143q-42 117 -167 187.5t-261 36.5q-96 -25 -159 -64q-93 -61 -160 -150q-23 -30 -54 -79.5t-33 -83.5q0 -3 1.5 -51t2.5 -54l8 -24q11 -41 13.5 -50t29.5 -45q36 -53 102 -99t129 -63q13 -4 20.5 -7t23.5 -4q72 -7 123.5 -11t121.5 20q18 6 37 18t37 19l75 38 q23 20 29.5 23.5t34.5 23.5q32 23 33.5 32.5t37.5 8.5q-22 -54 -28 -53t-38 -30q-32 -34 -46 -42q-42 -27 -54 -41t-75 -36q-1 0 -2.5 -0.5l-1.5 -0.5l-143 -43q-40 -13 -124.5 1t-129.5 29q-4 2 -8 3q-18 7 -33.5 16t-36.5 21q-12 6 -29 21t-29 26q-24 21 -50.5 48.5 t-41.5 53.5q-12 20 -8.5 28t3.5 10q3 15 -18 43q-19 22 -20 60q-2 42 -5.5 46t-13.5 7zM429 416q8 -65 71 -68t87 12q-1 6 -11 19q-18 17 -22 23q-24 29 -23.5 34t-8.5 28l-4 8q-20 36 -23 51.5t-14 60.5q-17 -1 -29.5 -25.5t-17.5 -38.5q-15 -37 -5 -104z" />
<glyph unicode="A" horiz-adv-x="1829" d="M1 0q10 29 41 36q21 4 40 21.5t38 35.5q24 21 113 164.5t197 328.5q-54 11 -88 15l-35 4q65 9 144 17q144 245 272 471t140 247q7 11 30 11q9 0 17 -1q38 -5 67 -76q50 -120 131.5 -309t158.5 -365q144 -12 201 -103q-70 35 -157 35h-14q58 -135 99 -229.5t47 -106.5 q9 -22 72 -88t186 -73l19 -9q18 -8 22 -26h-574l7 14q7 13 25 22l76 26q68 24 69 88q0 8 -1 16q-3 29 -39 130t-84 227q-139 -27 -209 -106q-5 -6 31 7.5t-1 -39.5q-32 -47 -110 -55t-90 -9q-31 -19 -55 -19q-9 0 -18 3q-6 8 -22 -3l-16 -11q-4 33 12.5 41.5t13.5 12.5 q-9 30 15 51l25 20q-56 57 -140 98q-85 -150 -143 -270q-50 -102 -49 -133q0 -5 1 -8q24 -51 64 -60.5t40 -11.5l-2 -31h-567zM709 607q70 -21 101 -56t55 -68q158 104 327 117q-71 182 -134 338l-63 157l-91 -152t-195 -336z" />
<glyph unicode="B" horiz-adv-x="1378" d="M0 34q0 4 27 10.5t30 29.5q13 175 26.5 375t17.5 375q1 54 1 103q0 111 -6 197q-9 125 -39 150l-57 46v34q0 2 48.5 2t109 -0.5t114.5 -1t65 -0.5h78l1 31h-47l-34 83h81l1 46q-40 16 -39.5 -1t-58.5 0q42 17 41 37q0 17 47 17h10v18q0 7 10.5 7t10.5 -7l1 -117h80 l-34 -83h-45v-31q156 -9 284 -80.5t188 -163.5q42 -63 43 -125q1 -29 -9 -57q-28 -90 -184 -135q185 -50 312.5 -147t183.5 -206q39 -76 38 -149q0 -31 -8 -63q-24 -104 -143 -167q-107 -56 -292.5 -58.5t-403.5 -2.5h-1v0h-3h-444zM329 620v-123q0 -118 1 -220 q2 -152 13 -174q18 -39 61 -59l11 1274q-51 -9 -64.5 -32t-13.5 -27q-1 -83 -4 -266t-4 -373zM440 1324l9 -1292q40 28 105.5 90t94.5 161q13 44 13 96q0 64 -20 141q-36 138 -198 319l41 35q41 34 68 98q18 42 18 94q1 28 -5 59q-14 89 -126 199zM451 839z" />
<glyph unicode="C" horiz-adv-x="1444" d="M-21 655q0 204 95 372q96 171 264 264t367 93q28 0 41 -1l1 -6q0 -18 0.5 -36.5t0.5 -36.5q-122 -18 -209 -70q-116 -69 -180 -219q-66 -150 -66 -373q0 -177 57 -307q-78 27 -122 54l-43 27l-27 18l4 -32l24 -98q23 -98 89 -130l29 -15l-9 32l-5 19q-5 18 -5 35 q85 -61 146 -98t106 -64q49 -30 86.5 -53.5t76.5 -59.5q-171 5 -327.5 65.5t-249.5 180.5q-144 186 -144 439zM177 404l56 -34q56 -33 153 -63q-23 -17 -49 -20t-33 -3q201 -96 408 -109q52 297 52 651v77q0 305 -4 537h-162q-8 3 -8.5 24t8.5 28q39 0 79.5 0.5t81.5 0.5 q-1 35 -1 65q-94 15 -94 112q0 44 33.5 79t81.5 35q47 0 80.5 -35t33.5 -79q0 -97 -94 -112q0 -31 -1 -64q40 0 80.5 -0.5t80.5 -1.5q8 -1 7.5 -26.5t-7.5 -25.5h-162q-4 -177 -4 -392q0 -107 1 -223q3 -349 52 -652q111 4 208.5 32.5t191.5 74.5q-14 0 -37 1.5t-42 16.5 q96 30 153 63l56 33l-22 -94q-23 -93 -83 -123l5 39q6 39 -3 55q-204 -159 -290.5 -202t-197.5 -170q-57 68 -99.5 102t-94.5 65.5t-125 74.5t-191 128q-9 -16 -1 -49l7 -33q-60 30 -71 77zM354 277q14 4 21 7q8 -14 13 -21q-4 1 -34 14zM698 1670q0 -81 81 -81t81 81 t-81 81t-81 -81zM809 1309q0 16 0.5 32.5t0.5 33.5q110 -20 195 -55.5t88 -35.5h14q85 0 103 -44q8 -21 8 -44q0 -30 -14 -64q-26 -60 -78 -110.5t-97 -50.5q-3 11 -3 24q0 26 10 64q13 46 13 92q-1 11 -1 21q-4 56 -49 96.5t-175 40.5h-8h-7zM891 -14q32 27 65 48.5 t72 47.5q45 28 102 66t135 98q0 -7 -1 -12q-87 -118 -195 -181q-80 -48 -178 -67z" />
<glyph unicode="D" horiz-adv-x="1392" d="M0 34q0 4 27 10.5t30 29.5q13 175 26.5 375t17.5 375q1 54 1 103q0 111 -6 197q-9 125 -39 150l-57 46v34q0 2 48.5 2t109 -0.5t114.5 -1t65 -0.5h78l1 31h-47l-34 83h81l1 46q-40 16 -39.5 -1t-58.5 0q42 17 41 37q0 17 47 17h10v18q0 7 10.5 7t10.5 -7l1 -117h80 l-34 -83h-45v-31q0 -75 1.5 -296.5t3 -456.5t2.5 -418l1 -183h-3h-444zM329 620v-123q0 -118 1 -220q2 -152 13 -174q18 -39 61 -59l11 1274q-51 -9 -64.5 -32t-13.5 -27q-1 -83 -4 -266t-4 -373zM489 2q27 34 29.5 33t20.5 15q21 17 86.5 45.5t137 73t129.5 107.5t64 150 v16q0 95 -66 233q-72 150 -139 224q-15 -23 -43 -41t-45 -58q-6 -12 -13 -36.5t-16 -30.5q-49 18 -49 70q0 21 9 49q29 94 64 142q13 18 13 39q-1 41 -51 91q-76 76 -76 122h6l-25 59q17 24 47.5 12.5t31.5 -13.5q6 -1 56 -22.5t65 -27.5q-1 2 -81 42t-97 48q7 0 22 -4 t24 -6l-8 -2h-1v-1q116 -28 169.5 -61t104.5 -55q98 -44 208 -195q100 -138 101 -235q0 -9 -1 -17q0 -13 6 -19l-3 38q25 -17 91 -79q52 -48 52 -74q0 -7 -4 -12q-25 -1 -25 18q0 16 -107 27q-3 -19 -4.5 -51t-5.5 -48q-21 -80 -79.5 -206.5t-167.5 -170.5q0 -2 -1 -6 q-10 0 -24 -11q4 -18 14.5 -23t14.5 -11q-3 -3 -14.5 -31t-39.5 -13q10 3 13 9q-4 -1 -78 -13q-43 -7 -63 -7q-15 0 -18 4q-34 -22 -84.5 -31.5t-73.5 -24.5q-9 3 -12 6v1v0q-9 -12 -33 -26q-20 -12 -29 -12h-2zM521 1341q6 0 13 -3q10 -5 10 -10t-12 -11l-22 -11 q-6 14 -6 20q-1 15 17 15z" />
<glyph unicode="E" horiz-adv-x="1407" d="M0 34q0 4 27 10.5t30 29.5q11 151 23 322.5t18 330.5q-22 -1 -40 -1q-35 0 -52 3v33q45 6 94 6q3 84 3 157q0 98 -5 180q-8 142 -41 169l-57 46v34q0 2 48.5 2t109 -0.5t114.5 -1t65 -0.5h78l1 31h-47l-34 83h81l1 46q-40 16 -39.5 -1t-58.5 0q42 17 41 37q0 17 47 17h10 v18q0 7 10.5 7t10.5 -7l1 -117h80l-34 -83h-45v-31v-1q142 -3 378 -4h65q183 0 249 5h8q68 0 68 -74q0 -28 -10 -66q-36 -146 -129 -179l17 79q2 9 2 18q0 70 -120 131q-88 43 -232 43h-26q-162 -4 -270 -17q0 -86 1.5 -229t2.5 -302h108q1 83 45 103q19 7 47 7h96 q-7 7 -14 13l-8 6q8 2 17 2q25 0 53 -19l40 -26l-32 -7q-31 -7 -76 -28q2 14 20 34h-96q-69 0 -70 -85h295q-13 21 -13 34q39 -27 80 -38l40 -10l-45 -14q-45 -13 -79 -28l2 8q2 9 14 24h-294q9 -83 70 -83h97q-16 17 -18 32q44 -21 75 -28l32 -7l-40 -26q-29 -19 -53 -19 q-9 0 -17 2l8 6t16 15h-100q-45 0 -66.5 33t-24.5 75h-109q1 -183 2.5 -356t1.5 -275q122 -21 312 -29q17 -1 34 0q166 0 267 69q138 95 138 204q0 15 -2 29q-20 126 -20 125q54 -27 94 -111q41 -84 55 -172q7 -41 6 -78q0 -42 -8 -77q-16 -63 -69 -63h-6q-45 4 -145.5 5 t-219 1t-237 -1.5t-199.5 -2.5v-2v0h-3h-444zM329 363q1 -177 10 -238q4 -1 21 -5t44 -9l6 623h-30q-16 1 -49 1q-2 -146 -2 -282v-90zM331 759q12 0 25 -0.5t27 -0.5h27l5 528q-53 -8 -73 -11q-5 -9 -5 -16q-1 -68 -3 -206t-3 -294z" />
<glyph unicode="F" horiz-adv-x="1296" d="M-87 744q0 29 29 29q16 0 24 -14h133q3 88 3 166q0 97 -4 177q-8 145 -41 172l-57 46v34q0 2 48.5 2t109 -0.5t114.5 -1t65 -0.5h78l1 31h-47l-34 83h81l1 46q-40 16 -39.5 -1t-58.5 0q42 17 41 37q0 17 47 17h10v18q0 7 10.5 7t10.5 -7l1 -117h80l-34 -83h-45v-31v-1 q143 -3 379 -4h64q183 0 250 5h8q68 0 68 -74q0 -28 -10 -66q-36 -146 -129 -179l17 79q2 9 2 18q0 70 -121 131q-88 43 -232 43h-26q-162 -4 -270 -17l4 -530h347q48 -1 48 -15t-48 -17h-347l5 -727h-1h-3h-444l-1 34q0 4 27 10.5t30 29.5q11 151 23 322.5t18 330.5h-132 q-10 -12 -24 -12q-29 0 -29 29zM330 318q2 -190 13 -215q18 -39 61 -59l6 683h-79q-2 -146 -2 -279q1 -67 1 -130zM331 759h79l5 527q-53 -8 -73 -11q-5 -9 -5 -16q-1 -68 -3 -206t-3 -294zM541 772q4 57 30.5 70t78.5 16l315 19h2q20 0 20 -26v-216q0 -26 -19 -26h-3 l-315 19q-46 3 -74 16t-34 70h259q44 4 61 19q6 6 6 13q0 6 -7 12q-17 12 -60 14h-260z" />
<glyph unicode="G" horiz-adv-x="1577" d="M-21 652q0 205 95 373q96 169 264 264q168 93 367 93q15 0 23 -1l-18 -86q-100 -21 -171 -64q-114 -68 -180 -218q-49 -110 -61 -262l-277 -55q-46 -13 -38 -24.5t40 -17.5l271 -53q5 -162 61 -280q63 -136 187 -207q76 -45 168 -55l17 -81v-2l2 -9q-177 0 -343 60.5 t-263 186.5q-144 186 -144 438zM-12 676l643 114l113 644l114 -644l644 -114l-644 -113l-114 -643l-113 643zM26 676h718l96 103l-96 615v-718l-102 96zM404 603l28 -5q18 -70 64 -123l60 101l75 -13l13 -75l-99 -59q52 -42 119 -57l5 -28q-84 16 -149 70l-95 -57l56 94 q-60 69 -77 152zM404 750q17 82 74 148l-53 87l88 -52q65 57 156 76l-5 -28q-72 -17 -127 -63l105 -63l-11 -65l-80 -14l-59 97q-42 -51 -60 -118zM649 574l95 -615v717l103 -95l615 95h-718zM764 -32l19 87q8 -1 25 -1q63 0 122.5 7t103.5 40q1 0 32.5 31t58.5 82t31 116v8 q0 62 -52 129q-10 10 -70 10h-11q16 23 25 41t19 43q46 0 99 4t108 15q5 1 9 1q45 0 45 -105q0 -115 -8 -160q-51 -118 -115.5 -171t-135.5 -95q-130 -74 -305 -82zM765 1379q123 -14 224 -55.5t104 -41.5h12q77 0 99 -36q15 -24 15 -53q0 -18 -6 -39q-15 -52 -57.5 -103.5 t-86.5 -71.5l3 3l-20 20l-25 -17q-1 36 13 91q10 36 10 71q0 18 -2 35q-8 51 -55 88t-169 37q-29 0 -43 -2zM820 348l5 30q54 15 104 54l-85 51l14 80l65 11l56 -92q37 46 57 112l29 5q-20 -79 -72 -142l60 -100l-100 60q-60 -50 -133 -69zM820 1004l5 -29q60 -18 111 -60 l-90 -54l12 -71l71 -12l53 89q38 -52 54 -108l29 -5q-18 75 -68 137l56 94l-93 -56q-60 55 -140 75zM957 553l38 8h6.5h6.5q-6 -14 -9 -20q-5 -9 -17 -27z" />
<glyph unicode="H" horiz-adv-x="1828" d="M-1 595v46h300q0 -14 -2 -46h-298zM0 571v16h297q-1 -5 -1 -16h-296zM2 648l17 19l103 122q102 122 181 249q-1 -10 -0.5 -21.5t0.5 -21.5q-8 -12 -12 -16v-308h3q-1 -8 -1 -23h-266h-25zM53 671h66v78q-21 -26 -38.5 -46t-27.5 -32zM142 671h51v172q-13 -18 -26 -34 t-25 -31v-107zM205 34q0 4 27 10.5t29 29.5q13 175 27 375t18 375q2 58 1 111q0 106 -6 189q-9 125 -39 150l-57 46v34q0 3 161 12t222 15v-1381h-382zM216 671h52v273q-6 -8 -30 -40.5t-22 -32.5v-200zM588 571v16h579v-16h-579zM588 595v46h579v-46h-579zM595 649v11v359 v17l15 -6q0 -1 144 -35q48 -11 107 -11q119 0 285 46l15 4v-15v-359v-11h-12h-543h-11zM617 672h106v305q-62 9 -106 26v-331zM745 672h121v295h-23q-51 0 -98 7v-302zM889 672h120v306q-58 -10 -120 -11v-295zM1032 672h106v332q-65 -16 -106 -23v-309zM1167 0v1381 q60 -6 221.5 -15t161.5 -12v-34l-57 -46q-31 -25 -40 -150q-6 -87 -6 -197q0 -49 1 -103q4 -175 17.5 -375t28.5 -375q1 -23 28.5 -29.5t27.5 -10.5l-1 -34h-382zM1452 1010q0 3 -1 7q0 6 1 13q75 -127 174 -244l98 -118l17 -19h-25h-257v11.5v11.5h2v308q-2 4 -9 11v19z M1456 641h283v-46h-281q-2 32 -2 46zM1458 587h283v-16h-282q0 11 -1 16zM1484 672h50l1 200q-13 18 -26 36.5t-25 36.5v-273zM1556 672h49v107q-12 15 -24.5 31t-24.5 34v-172zM1628 672h64q-11 12 -27.5 32t-36.5 46v-78z" />
<glyph unicode="I" horiz-adv-x="509" d="M-7 548l104 -27q27 6 41 24q11 13 9.5 26.5t4.5 28.5l5 -14q0 24 2.5 54t2.5 47q0 7 9.5 94.5t12.5 101.5q3 23 8 44.5t10 44.5q8 35 7 43q-8 31 -2 46q7 -14 11 -13l9 64l-23 14q-53 25 -73 41q-11 8 -39.5 37t-25.5 50l37 -31q4 -3 11.5 -6t11.5 -5q9 -5 33.5 -12.5 t31.5 -11.5q20 -13 27 -7t23 1q14 -6 50.5 -2t50.5 13q5 3 20 9t21 12l36 33l-60 -89q-26 -20 -45 -28q-40 -17 -48 -24l15 -58l11 18v-38q-5 -11 1 -36q1 -9 5 -40.5t7 -32.5l-1 8h1q5 -7 12 -20t25 -5q7 2 21.5 12t20.5 12l-60 -78l12 -73q5 -32 5 -99v-24q-1 -86 -4 -121 q26 11 53.5 22.5t33.5 46.5q3 -8 3 -15q-8 -40 -26.5 -57.5t-53.5 -36.5q-16 -9 -15 -17.5t-2 -27.5q-6 -27 -9.5 -54t-7.5 -54q-3 -13 -8 -24t-8 -23q-3 -7 -7 -27t-6 -22l-4 96l-17 -302l-3 -52q-4 6 -4.5 96t-0.5 109q0 40 -11 94q-3 9 -14 37.5t-16 34.5q-24 27 -39 65 q-4 7 -27 24q-8 5 -39 12q-31 8 -40.5 16.5t-27.5 20.5q-20 12 -30 22q-14 14 -18 33zM0 34q0 4 27 10.5t30 29.5q6 87 13.5 182.5t13.5 193.5q8 -5 21 -7l12 -3q18 -4 23 -7q-3 2 11 -7q7 -4 11 -11q5 -15 19 -37q8 -15 22 -32q4 -7 14 -29q11 -30 13 -37q7 -39 8 -44 q3 -23 3 -47v-9v-84.5t3 -95.5h-1h-242zM0 1320v34h26h77v1q12 0 19 -1q28 0 59.5 -0.5t61.5 -0.5t60.5 0.5t59.5 0.5q8 1 20 1v-1h77h25v-34l-57 -46q-8 -7 -14 -20l-5 3l-36 -33v-1q-4 -3 -23 -11q-5 -2 -16 -7q-11 -8 -44 -11q-32 -4 -44 1q-14 5 -28 1q-9 -3 -19 4 q-8 6 -37 14q-24 8 -29 11q-8 4 -17 7q-2 0 -3 1l-2 2l-35 30l-20 16l-1 -5zM89 537q11 196 14 353v100q-4 128 -14 196q23 -24 34 -31q14 -12 36 -22q20 -12 38 -19l14 -9l-2 -18l-5 9l-11 -30q-8 -22 1 -48q0 -2 0.5 -3.5t0.5 -2.5q2 -7 -4 -27q-2 -6 -2 -10 q-10 -39 -10 -44q-3 -12 -5 -22.5t-4 -22.5v-1q-5 -24 -14 -118q-10 -74 -8 -80q0 -19 -3 -46q0 -12 -2 -36h-5q-2 -4 -4 -27q0 -16 -6 -24q-7 -7 -15 -11q-10 -6 -17 -7zM220 395q-3 -3 -3 -5q0 -4 12 -4q13 0 13 9t-11 9q-3 0 -11 -9zM275 0l2 35v1l11 191l6 5q5 7 11 34 l5 20q8 20 5 14q7 17 12 35q2 13 7 48q5 38 10 61q2 16 2 21q0 9 8 14q27 14 44 27q6 -111 14 -221.5t17 -210.5q1 -23 28.5 -29.5t27.5 -10.5v-34h-210zM282 1100q2 1 24 11q3 1 6.5 2.5t6.5 3.5q14 5 26 14q8 5 22 15l3 4l26 38q-12 -72 -13 -198v-54l-3 4q-9 -3 -26 -15 l-18 -10q-6 -3 -14 12q-2 2 -3.5 4t-2.5 5l-4 5q-1 7 -1.5 17t-1.5 19q-2 16 -2 17q-4 12 -2 8q-3 16 0 20l1 6v38l-17 4zM339 845l44 57v-12q1 -140 11 -316q-12 -11 -42 -22q3 46 3 121q0 76 -5 104z" />
<glyph unicode="J" horiz-adv-x="982" d="M4 448q15 47 25 54q40 29 73 29q20 0 38 -12q4 71 25 89q45 39 76 39q20 0 35 -18q36 -44 48 -90q12 55 43 66q41 16 68 16q48 0 56 -49q13 -78 12 -78q18 2 -24 -20q-19 -11 -38 -11q-23 0 -45 15q-27 18 -27 34q0 9 9 18q10 9 21 9q16 0 35 -19q16 -17 22 -15 q40 11 40 30q0 17 -30 41q-25 20 -46 20q-35 0 -61 -56q-15 -31 -10.5 -45.5t9.5 -35.5q19 5 34 5q53 0 62 -58q12 -73 11 -73q18 2 -23 -23q-20 -12 -40 -12q-22 0 -44 15q-14 9 -20 20q-3 -12 -9 -24q16 -22 22 -59q1 -3 1 -6q0 -39 -57 -132q-12 -19 -12 -36 q0 -19 14 -37q26 -34 45 -49q1 0 2.5 -1t3.5 -2q12 -4 16 -6l-3 1h-0.5h-0.5h-4h-4q3 -3 -3 0q-38 2 -94.5 10t-134.5 38q-66 43 -72 78q-3 13 -3 27q0 21 6 43q10 35 13 77v5q0 41 -43 97q-22 29 -22 61q0 14 5 30zM30 148q-2 18 -2 37q0 49 15 105q10 -30 6.5 -54.5 t-9.5 -45.5q-9 -33 -10 -42zM36 429q-3 -14 -3 -25q0 -20 11 -29q16 -14 31.5 -33t18.5 -60v-5q0 -41 -34 -128q-4 -10 -4 -19q0 -24 25 -43q35 -27 88 -47q-27 37 -27 91q0 31 9 68q20 81 20 148q0 16 -1 31q-27 -16 -51 -16q-16 0 -31 7q-35 15 -35 35q0 9 5 18 q10 16 26 16q14 0 34 -15q23 -14 27 -12q5 2 15 10q-3 6 -2 5q-14 28 -17 65q-27 12 -60.5 2t-44.5 -64zM53 69q17 -23 59 -51l3 -1q53 -20 109 -33q-42 4 -65 6q-72 15 -106 79zM73 144q36 92 36 136q0 6 -1 12q-5 43 -24 64q18 -9 45 -7q11 1 27 7q0 -33 -12 -109 q-8 -48 -12 -95q-1 -11 -1 -22q0 -34 9 -62q-32 14 -49 30q-20 17 -20 34q0 6 2 12zM168 137q17 34 34 77q6 17 6 36q0 31 -17 70q-4 -62 -20 -162q-1 -6 -2 -11t-1 -10zM168 468q1 -13 5 -26q2 13 -5 26zM169 489q13 -24 21 -52q7 12 15 21q-26 29 -6 56q9 13 21 13 q15 0 35 -18q22 -19 27 -15q29 19 29 43q0 6 -1 12q-9 31 -35.5 46t-59 1t-43.5 -80q-3 -15 -3 -27zM186 133q-9 -15 -9 -29t10 -28q20 -25 56 -44q-14 34 -14 66q0 33 15 64q29 63 62 124q-5 12 -12 27q-3 4 -4 9q-24 0 -41 11q-27 18 -27 36q0 9 8 19q9 11 21 11 q15 0 34 -20q7 32 31 61q-10 6 -16 8q-23 -15 -44 -15q-10 0 -20 3q-16 -13 -26 -38q-15 -36 -2 -51.5t24.5 -36t7 -58.5t-53.5 -119zM198 126q54 87 57 128q1 8 1 15q0 31 -11 50q12 -6 19 -8q9 -3 16 -3q1 -1 1 -2q1 -2 7 -13q2 -4 2 -6q-3 -6 -6 -11.5t-6 -11.5 q-27 -48 -48 -97q-14 -33 -14 -68q0 -17 3 -34q-13 9 -20 20q-7 10 -7 21q0 10 6 20zM262 61q-1 5 -1 10q0 35 33 76q24 31 24 75q0 21 -6 45q-6 -11 -11 -23t-11 -24q-35 -72 -35 -120q0 -22 7 -39zM275 143q6 22 25 66q-5 -29 -25 -66zM315 366q35 14 25 45 q-13 -13 -21 -34q-1 -2 -4 -11zM318 326q0 -1 5 -8q0 3 1.5 5.5t2.5 5.5q-3 -1 -5 -2t-4 -1zM321 465q5 -4 13 -14q2 0 3.5 1t4.5 2q-2 8 -10 24q-3 -3 -5.5 -6.5t-5.5 -6.5zM355 387q0 -8 1 -11q18 3 39 -18q20 -17 23 -15q36 11 36 32q0 13 -14 29q-23 29 -51 29 q-14 0 -29 -7q0 -14 -5 -39zM372 -5q59 9 124 103q59 86 59 216q0 12 -1 25q1 90 1 157q0 78 -1.5 126.5t-1.5 123.5q0 64 1 148v99q-2 112 -12.5 188t-33.5 94l-56 45v34h102v1l140 -1l140 1v-1h103v-34l-57 -45q-24 -18 -34.5 -94t-11.5 -188v-99q3 -278 10 -460 q1 -32 1 -62q0 -138 -26 -224q-32 -105 -126 -144q-79 -32 -233 -32q-28 0 -59 1q3 4 -6 8q-4 11 -22 14z" />
<glyph unicode="K" horiz-adv-x="1285" d="M0 34q0 4 27 10.5t30 29.5q15 192 29 412.5t17 403.5v100q-3 113 -13 189.5t-33 94.5l-57 46v34h103v1l140 -1l140 1v-1h102v-34l-57 -46q-23 -18 -33.5 -94.5t-11.5 -189.5v-100v-4.5v-3.5q1 2 3 4l5 5q12 14 43 58t64 90q32 45 68.5 92t72.5 58q11 8 37 3q11 28 20 59 q30 101 82 101q10 0 20 -4q66 -23 67 -23q24 0 30 -19.5t-4 -31.5q-19 -23 -21 -64v-19q0 -32 4 -63q23 3 45 9.5t37 9.5q24 3 76 37l53 33q0 2 6 39q1 11 4.5 9.5t3.5 -25.5h2q2 1 5 5q7 7 20 21.5t17 16.5q8 2 -4 -14q-6 -7 -15 -16q-3 -4 4 3l8 6l5 6q5 6 13 14 q11 11 2 -7q-16 -27 -25 -30q7 5 14 14t13 10t-7.5 -13.5t-14.5 -17.5q2 1 6 5q8 6 15 17q2 2 1.5 -4.5t-17.5 -24.5q-16 -18 -32 -29q-54 -39 -77 -58t-68 -39l-85 -25q5 -48 1 -62q-4 -16 -41 -29q1 -21 -16.5 -41.5t-48.5 -1.5q-23 -8 -37.5 -34t-51.5 -90 q-20 -33 -8 -52.5t12 -61.5v-12q0 -250 128 -425q131 -179 176 -179q101 -3 231 -37l-140 2h-12q-131 0 -217 -41q-46 -21 -37 -14t38 25t61 37l32 19l-93 69q-92 69 -198 170q-104 102 -184 217q-60 87 -60 160q0 24 6 46q27 100 59 100q3 0 5.5 -1t5.5 -1q33 0 73 97 q13 32 37 104q5 14 4.5 21.5t-4.5 7.5q-14 0 -70 -65q-13 -16 -45 -56.5t-84 -85.5l1 -34q0 -2 -4 0t-4 22l-1 1q-1 1 -4 -7q-1 -3 -2.5 -6.5t-2.5 -7.5q3 -177 16.5 -380t28.5 -380q1 -23 28.5 -29.5t27.5 -10.5v-34h-242h-242z" />
<glyph unicode="L" horiz-adv-x="1390" d="M0 68q0 4 27 10t30 30q15 191 29 411.5t17 403.5v100q-3 114 -13 190t-33 95l-57 45v35h103h140h140h102v-35l-57 -45q-23 -19 -33.5 -95t-11.5 -190v-100q2 -182 16 -401t29 -410q116 -16 310 -24q23 -1 44 -1q163 0 262 53q134 72 134 155q0 11 -2 21l-19 94 q52 -21 93 -83q42 -63 58 -129q8 -33 8 -61q0 -30 -8 -56q-16 -49 -76 -49h-5q-93 2 -336.5 2h-405.5h-242h-242zM389 1535q42 13 42 29t57 15v15q0 6 10.5 6t10.5 -6l1 -97h80l-35 -68h-45v-25l10 -1103q114 -11 278 -11t248 51q122 73 144 145l21 72q24 -86 29 -159 q0 -3 -9 -25q-34 35 -63 46q-25 5 -21 -22l7 -20q8 -20 8 -53q-16 -14 -28 -17.5t-44 -18.5q-40 -21 -76 -21q-16 0 -30 4q-24 6 -48 6t-48 -6q-73 -18 -221 -24q-71 -3 -128 -2q-62 0 -107 3q-2 15 -3 30.5t-2 31.5q1 -1 47 -5l12 1123h-46l-34 68h81v39q-39 12 -38.5 -2 t-59.5 1zM433 236q48 -3 114 -3q55 0 121 2q147 5 219 23q25 6 49 6t48 -6q14 -3 29 -3q36 0 77 20q31 16 43 19t28 18q-6 -66 -59 -115q-40 -18 -61 -20q-44 -4 -88.5 -19t-53.5 -15q-2 -3 -61.5 -5t-137 -2.5t-153 -0.5t-106.5 2q-3 24 -4.5 48.5t-3.5 50.5zM504 117h88 q72 1 160 1q146 2 149 7q9 -1 53.5 14t87.5 20q6 0 8 1q-2 -1 -13 -8q-54 -29 -134 -39.5t-165 -10.5q-63 0 -123 4.5t-111 10.5zM536 416q22 10 25 158q1 52 1 108q0 102 -4 214q-6 174 -14 316l-8 143q101 -155 183.5 -402.5t99.5 -349.5q1 -7 1 -14q0 -43 -44 -77 q-52 -40 -113 -64.5t-105 -33.5q-29 -6 -30 -3q0 1 8 5zM1234 371q5 11 5 15q1 -8 1 -22q-2 1 -3.5 3t-2.5 4z" />
<glyph unicode="M" horiz-adv-x="1828" d="M0 34q0 4 27 10.5t30 29.5q13 175 26.5 375t17.5 375q1 54 1 103q0 111 -6 197q-9 125 -39 150l-57 46v34q0 2 105 9l-10 -7l288 -506v-119q-14 -12 -38 -34q-5 -5 -9.5 -10t-8.5 -9q-13 -13 -19 -20q-5 -6 -9.5 -10.5t-8.5 -9.5q-19 -22 -5 -48q4 -8 12 -15q7 -7 16 -10 q27 -11 49 12v1h1v1h1v1l1 1l1 1v1h1l1 1v1q1 1 2 2.5t3 3.5h1q0 1 2 3v1h1l1 1q0 1 1 2l2 1q0 1 2 3v-602h-382zM107 1363l481 -502q-5 -2 -9 -4t-8 -3l-2 -1q-4 -3 -8.5 -4.5t-7.5 -3.5l-2 -1q-14 -7 -17 -8l-2 -2q-4 -3 -8.5 -4.5t-7.5 -3.5l-2 -2h-1q-4 -3 -8.5 -5 t-7.5 -4q-2 -2 -3 -2q-10 -6 -16 -10q-1 -1 -2 -1l-1 -1q-4 -3 -8 -5.5t-7 -4.5q-2 -2 -4 -3q-5 -3 -15 -11zM126 1364q69 4 145.5 9t111.5 8v-286zM298 630q138 159 282 214q142 56 262 58q6 0 13 -1q111 1 188 -25q81 -28 96 -34l494 515l-761 -1339l-384 677q2 2 4 3l2 1 l3 3q2 0 4 3q1 0 2.5 1t3.5 2t4 3t6 4q1 0 2 1t3 2q4 2 6 4q1 1 5 3q1 0 2 1t3 2q1 0 2.5 1.5t3.5 2.5q4 2 5 3q4 1 7 4q1 0 2 0.5l3 1.5q1 0 3 1.5t4 2.5l2 1q1 0 2 1l4 2t5 3l2 1l12 6l12 6h1q4 2 27 11l6 2t6 3h1q4 2 12 4l212 -221l213 222q-120 40 -222 40 q-43 0 -83 -7q-136 -24 -231 -76t-145 -105l-51 -53q-24 -25 -49 -1q-14 14 -14 27q0 9 8 19zM838 220q0 -33 33 -33q32 0 32 33q0 32 -32 32q-33 0 -33 -32zM1358 0v844l288 506l-18 13q113 -8 113 -9v-34l-57 -46q-31 -25 -40 -150q-6 -87 -6 -197q0 -49 1 -103 q4 -175 17.5 -375t27.5 -375q2 -23 29.5 -29.5t27.5 -10.5l-1 -34h-382zM1358 1091v290q35 -3 113.5 -8t148.5 -9z" />
<glyph unicode="N" horiz-adv-x="1828" d="M0 34q0 4 27 10.5t30 29.5q13 175 26.5 375t17.5 375q1 54 1 103q0 111 -6 197q-9 125 -39 150l-57 46v34q0 2 84.5 7t171.5 11q-72 -28 -102 -90q-20 -40 -20 -85t18 -87q24 -54 78 -93.5t135 -42.5l18 -18v-956h-382zM148 1188v7q0 69 51 125q52 58 164 57h8l364 -364 l-194 -195l-170 170q-105 3 -162.5 65.5t-60.5 134.5zM557 802l194 195l448 -449l-194 -194zM860 905q14 75 58 79h4q36 0 48 -48q14 -52 14 -101l-29 103q-4 9 -12 14q-8 4 -18 3l-21 -6q-10 -3 -15 -12q-5 -10 -2 -19l16 -57zM892 920q-1 4 -1 8q0 11 14 15l21 6 q18 5 24 -13l48 -170l-86 87zM901 1042q0 62 62 62q61 0 61 -62q0 -61 -61 -61q-62 0 -62 61zM1021 338l194 194l142 -141h7q104 1 161 -59q59 -62 61 -136q0 -3 1 -6q1 -70 -53 -129t-168 -59h-8zM1358 410v971q60 -6 221.5 -15t161.5 -12v-34l-57 -46q-31 -25 -40 -150 q-6 -87 -6 -197q0 -49 1 -103q4 -175 17.5 -375t27.5 -375q2 -23 29.5 -29.5t27.5 -10.5l-1 -34h-285q89 27 126 103q20 39 20 85q0 51 -21 93q-26 52 -81 88t-136 36z" />
<glyph unicode="O" horiz-adv-x="1510" d="M-14 680q-3 37 -3 73q-1 333 239 473q264 156 574 155q309 0 476 -197t167 -504q0 -308 -218.5 -508t-527.5 -200t-494.5 158t-212.5 550zM108 664q0 -12 6 -22q11 -17 32 -21q14 -2 47 3q2 1 8 1q8 2 14 2q24 4 33 4q16 0 28 -7q10 -5 7 -4l1 -4h8l5 -2q5 -149 41 -267 q-3 -3 -15 -11q-5 -4 -10 -7.5t-9 -6.5q-17 -15 -19 -17q-13 -15 -14 -32q-2 -19 10 -32q0 -1 0.5 -1.5t1.5 -0.5q13 -12 33 -10q17 0 30 11l2 2q2 4 5 7q0 -1 2 3l2 2q6 8 10 13q59 -144 159 -212q69 -47 147 -47q34 0 69 9q118 32 192.5 81.5t117.5 162.5q9 -12 16 -17 l2 -4h1q12 -13 30 -14q18 -2 34 11v1h1q14 14 11 35q-2 18 -14 29v1l-1 1l-18 14l-1 1q-6 5 -16 13q-8 6 -9 7q-6 4 -9 7h-1q25 108 39 267l16 6q10 3 15 7q6 3 22 5q20 0 47 -5h1h3q36 -8 53 -4q22 5 32 22q5 11 5 22t-6 22q-10 16 -31 21q-10 1 -46 -3q-3 0 -4.5 -0.5 t-4.5 -0.5q-2 0 -12 -2q-46 -6 -55 -1l-13 7v6h-11l-6 4q-2 144 -39 266q8 6 11 8l2 1q0 1 6 5q22 16 31 25q13 13 15 33q1 18 -12 32q-13 13 -33 12q-18 0 -31 -13q-3 -3 -13 -15l-3 -4l-2 -2v-1q-66 149 -174 221q-74 49 -153 49q-36 0 -72 -10q-116 -34 -189 -85 t-113 -159q-1 1 -2.5 2t-1.5 3q-15 12 -34 14q-19 1 -32 -12l-1 -1v0q-12 -15 -10 -33q1 -19 13 -30q1 -1 2 -1v-1l36 -28q0 -1 1.5 -2.5t2.5 -1.5q-24 -112 -29 -276l-3 -1h-13l-1 -5l-8 -4q-2 -1 -3.5 -2t-2.5 -1q-8 -4 -31 -2q-23 1 -36 5h-1q-39 6 -54 3q-23 -7 -32 -23 q-5 -10 -5 -21zM122 665q0 23 26 29q17 3 49 -4q13 -2 38 -5t38 4q27 11 18 9v-66q-9 3 -15.5 8t-27.5 5q-10 0 -24 -2.5t-25 -2.5q-9 -2 -26.5 -4.5t-24.5 -0.5q-26 4 -26 30zM292 250q-9 10 -9 20q0 12 13 26q14 14 35 28q45 31 48.5 45t9.5 24l22 -25q4 -5 12.5 -12 t11.5 -10q-26 -6 -41 -23q-6 -6 -25 -29.5t-25 -32.5q-4 -6 -7 -9q-24 -26 -45 -2zM292 664q0 23 3 36h13q-2 -24 -3 -43q0 -15 2 -27h-12q-3 9 -3 28v6zM293 1079q20 22 46 -3q13 -12 27.5 -34.5t29.5 -35.5q19 -18 40 -22l-6 -6l-6 -6q-3 -2 -6 -5q-8 -7 -9.5 -9.5 t-7.5 -8.5q-4 -3 -6.5 -6.5t-5.5 -5.5q-3 16 -8 24q-10 14 -49 45l-36 28q-14 12 -14 24q0 10 11 21zM316 648v19q0 156 106 267q114 118 274 124h17q155 0 267 -107q118 -113 126 -272v-17q0 -158 -108 -270q-114 -118 -272 -124h-17q-157 0 -269 108q-118 114 -124 272z M390 398q21 14 9 8q23 -29 36 -39q10 -7 13 -12l-9 -7l-7 5q-7 6 -23.5 22.5t-18.5 22.5zM391 932q4 10 23 26q21 21 26 24l9 -9q-5 -5 -13 -11q-9 -9 -19.5 -19t-16.5 -19zM405 652q4 -120 88 -203t199 -90q4 0 6 -1v107q-76 3 -129.5 57t-57.5 130h-106zM405 675h106 q4 75 57.5 129t129.5 58v109q-120 -5 -202.5 -88.5t-90.5 -196.5v-5.5v-5.5zM613 664q0 -97 97 -97t97 97q0 96 -97 96t-97 -96zM675 1066v13q21 2 38.5 2t31.5 -2l1 -13q-18 1 -35.5 1t-35.5 -1zM676 260q32 -3 35.5 -2.5t34.5 2.5v-13q-27 -3 -41 -1q-15 0 -21 1 q-8 0 -8 13zM677 1083q5 5 10 17q4 12 4 27q-1 17 -5 39q-10 42 -5 59q3 25 29 27q24 0 30 -26q3 -18 -3.5 -46.5t-5.5 -54.5q0 -24 3.5 -26.5t9.5 -15.5l-34 1q-7 0 -17.5 -1t-15.5 0zM678 244q16 -2 33 -2l33 2q-16 -25 -13.5 -43.5t5.5 -49.5q6 -37 5 -50 q-6 -26 -29.5 -26t-29.5 26q-4 16 2.5 45t6.5 54q-4 25 -3 25q-11 22 -10 19zM721 358q120 3 204.5 87.5t91.5 199.5q0 5 1 7h-110q-4 -76 -58 -130t-129 -57v-107zM721 862q75 -4 129 -58t58 -129h110q-4 120 -88 204t-198 92h-5.5h-5.5v-109zM970 354q3 3 6 5.5t7 6.5 q12 11 17 15t19 22l9 -9q-12 -16 -23 -25q-19 -19 -26 -24zM971 973q1 5 8 9l27 -23q3 -4 5.5 -7t5.5 -6q7 -5 12 -14l-9 -8q-12 12 -23.5 25.5t-25.5 23.5zM983 344q3 3 6 5.5t6 5.5q6 6 10 9t13 14l12 12q3 -24 14.5 -34.5t25.5 -20.5q4 -4 8.5 -7.5t9.5 -6.5q-1 1 17 -14 l18 -14q24 -25 2 -45q-10 -10 -21 -10t-23 12q-19 20 -29 35q-17 27 -36 43q-8 6 -10 7q-6 3 -12.5 4.5t-10.5 4.5zM983 984q27 4 42 22q10 12 28 36q3 5 6.5 8.5t7.5 9.5q16 20 14 18q12 11 24 11q11 0 21 -10q19 -20 -3 -45q-10 -10 -36 -28q-28 -21 -35 -29 q-18 -21 -16.5 -22.5t-5.5 -17.5l-22 24q-10 10 -18 17zM1113 630q0 3 -1 7q0 3 1 9q1 10 1 20q0 8 -1 18q0 5 -0.5 9t0.5 8h12l-1 -70q-2 -1 -11 -1zM1128 632q0 8 1 16.5t1 17.5q0 8 -1 16t-1 17l18 -10q13 -6 36.5 -3t38.5 5q8 0 25 2.5t25 1.5q26 -6 26 -31 q0 -22 -26 -28q-10 -3 -25.5 -0.5t-25.5 4.5q-34 5 -50 5q-21 -1 -24.5 -4.5t-17.5 -8.5z" />
<glyph unicode="P" horiz-adv-x="1063" d="M0 34q0 3 27 9.5t30 30.5q15 191 29 411.5t17 403.5v100q-3 113 -13 189.5t-33 95.5l-57 45v34l103 1h140h140l102 -1q-18 -5 -52 -17q-81 -35 -139 -94q-60 -59 -94 -139q-32 -82 -32 -164q0 -84 32 -164q32 -79 94 -140q41 -43 101 -75q6 -124 15.5 -249t18.5 -237 q1 -24 28.5 -30.5t27.5 -9.5v-34h-242h-242zM182 939q0 171 122 293t293 122q172 0 294 -122t122 -293q0 -172 -122 -294t-294 -122q-171 0 -293 122t-122 294zM242 773q28 -63 78 -112q43 -44 101 -73l1 1l58 160v1v0q-20 12 -39 32q-17 15 -30 37l-4 -1zM246 1115l1 -1 l161 -58v0h1q15 23 32 39q17 19 38 31l-1 3l-45 165v1q-68 -33 -113 -79q-44 -43 -74 -101zM398 939q0 -82 59 -141q58 -58 140 -58q83 0 141 58q59 59 59 141q0 80 -59 141q-58 58 -141 58q-82 0 -140 -58q-59 -61 -59 -141zM716 1126q23 -15 38 -31q14 -14 31 -37h1 q1 1 3 1l158 58q-26 52 -72 99q-45 44 -100 73l-58 -161q-1 0 -1 -2zM717 752l1 -4l46 -165q64 31 111 78q49 49 80 115l-165 45l-4 1q-17 -26 -32 -40q-18 -18 -37 -30z" />
<glyph unicode="Q" horiz-adv-x="1510" d="M-14 671q-3 36 -3 70q0 335 241 476q264 155 573 155t475.5 -197t166.5 -504q0 -287 -196 -486l-4 2q-21 11 -48 20t-41 13q-24 43 -80 85q32 110 49 314q4 51 4 100q0 273 -129 447q-121 162 -263 162q-37 0 -76 -11q-186 -54 -265.5 -169.5t-91.5 -454.5q-1 -28 -1 -55 q0 -302 125 -482q108 -157 249 -157q35 0 72 10q49 13 81 25q1 -1 3 -1q10 -2 16 -2l7 1l4 5q2 3 4 10q52 22 94 55q27 -21 54 -48q7 -6 21 -20q-156 -70 -333 -70q-309 0 -495 157.5t-213 549.5zM640 354q4 18 24.5 18.5t21.5 0.5q3 0 38 -0.5t45 -0.5q-1 1 -57.5 5.5 t-68.5 4.5q3 1 30 5q-2 -1 74.5 -3t108.5 -2q69 -2 169.5 -63.5t119.5 -123.5q3 -8 7 -9l-10 21q18 -4 71 -24t50 -39q-19 -8 -19 4q0 4 -9 4q-16 0 -60 -13q2 -12 9 -31t9 -29q5 -35 5 -85q0 -25 -2 -54q-3 -88 -56 -141q1 -1 1 -4q-7 -2 -12 -12q7 -9 14.5 -9t11.5 -3 q-1 -2 -1.5 -21t-19.5 -18q5 4 5 8q-2 0 -42.5 -25.5t-46.5 -22.5q-15 -20 -42.5 -38t-36.5 -33q-6 0 -8 1q-10 -31 -28 -38q6 27 8.5 27.5t9.5 13.5q15 31 101 125q61 66 61 137q0 28 -10 58q-21 59 -99.5 129t-135.5 97q-3 -17 -15 -34.5t-12 -44.5q0 -8 1.5 -24.5 t-2.5 -22.5h-1q-46 0 -51 61q-3 24 -3 43q0 33 6 55q1 5 1 10q0 34 -54 57q-63 26 -75 53l4 1z" />
<glyph unicode="R" horiz-adv-x="1363" d="M0 36q0 4 27 10t30 30q15 192 29 412t17 404v100q-3 113 -13 189.5t-33 94.5l-57 46v34h103h140h140h101v29h-47l-34 83h82v46q-39 16 -38 -2q0 -8 -15 -8t-45 9q42 17 42 37q0 18 47 17h10v18q0 7 10 7t10 -7l1 -117h81l-35 -83h-45v-31l9 -1354h-32h-13l-229 2h-242z M383 892q2 -184 16 -404t30 -412q0 -21 43 -34l11 1278l-55 -44q-23 -18 -33.5 -94.5t-11.5 -189.5v-100zM512 1354q186 -41 319 -136.5t177 -205.5q17 -44 17 -86q0 -64 -39 -125q-65 -102 -274 -154q93 -12 167 -92t137 -180q4 -3 6 -9q12 -21 25.5 -42t26.5 -42 q57 -96 111.5 -174t113.5 -97l-3 -21l-433 -1h-4l-4 3q-60 60 -85 130t-42 142q-23 91 -61.5 180.5t-153.5 160.5l5 21l12 1q22 25 68 95.5t68 169.5q10 45 10 94q0 58 -14 124q-26 120 -150 244zM551 607q33 -22 63 -52q15 5 28 8q-35 28 -71 47zM608 615q37 -24 61 -46 q7 1 15.5 3t17.5 4q-37 26 -69 43zM631 537q32 -37 55 -80q6 2 16 4.5t23 6.5q-29 43 -63 76q-4 -1 -31 -7zM670 624q30 -17 63 -43q43 5 67 6q4 0 7 -1q-61 40 -124 40zM689 550q33 -36 59 -77q16 4 52 12q-40 44 -74 72q-26 -4 -37 -7zM697 436q15 -35 32 -88q8 3 21 6.5 t30 9.5q-22 48 -43 83q-24 -6 -40 -11zM735 326q3 -15 7 -29l8 -28q4 -21 7 -28q29 7 69 16q-3 6 -5.5 12t-4.5 12q-7 15 -13.5 31t-12.5 31q-42 -13 -55 -17zM757 561q32 -28 70 -72q41 6 69 6h8q-32 37 -62 64q-18 5 -43 5q-19 0 -42 -3zM760 453q21 -35 43 -83 q49 11 69 15q-25 40 -55 80q-30 -6 -57 -12zM762 219q13 -51 29 -88q22 4 86 14q-12 22 -22.5 45t-19.5 46q-26 -6 -45 -10.5t-28 -6.5zM800 110q25 -53 52 -81q9 1 33.5 1t54.5 5q-26 38 -53 88q-48 -7 -87 -13zM812 349q6 -15 12.5 -30t12.5 -30q8 -18 12 -28q47 9 87 13 v1q-28 50 -52 91q-36 -6 -72 -17zM843 469q33 -46 53 -80q30 4 55 5q15 0 28 -2q-29 43 -56 79q-10 1 -24 1q-23 0 -56 -3zM858 240q21 -50 42 -92q24 3 49.5 6.5t51.5 6.5q-19 30 -53 92q-58 -7 -90 -13zM865 11h91q0 4 -2 8q-6 -2 -45 -4.5t-44 -3.5zM908 370l24 -42 l24 -42l5 -9q45 3 74 3h13l-26 42l-26 42q-11 11 -41 11q-19 0 -47 -5zM911 127q26 -50 53 -88q25 3 57 7.5t60 10.5q-17 20 -35.5 40.5t-31.5 41.5q-26 -3 -52.5 -6t-50.5 -6zM972 255q20 -37 54 -92q44 4 72 4q11 0 20 -1q-15 21 -28.5 44t-27.5 47h-21q-31 0 -69 -2z M975 21q2 -3 9 -10h129q-6 6 -12 13l-12 14q-28 -6 -58 -9.5t-56 -7.5zM1040 142q29 -45 64 -85q21 4 47 5.5t44 5.5q-12 14 -31 35.5t-30 38.5q-16 2 -40 2t-54 -2zM1112 40q6 -9 15.5 -15t17.5 -14h105q-23 15 -45 39q-18 -5 -44.5 -6t-48.5 -4z" />
<glyph unicode="S" horiz-adv-x="1348" d="M-19 245q10 62 10 122l-1 31q0 71 192 114q3 -32 3 -55q0 -58 -18 -58h-1q-26 4 -18 -35q22 13 40 14q39 0 51 -71q-57 24 -79 24q-14 0 -14 -10q0 -9 11 -25q-15 8 -23 13l-8 5l-26 19l4 -32q0 -1 10.5 -50.5t37.5 -90.5q-22 3 -48 7.5t-57 8.5q-20 -22 -30 -25 q-9 35 -12.5 52.5t-23.5 41.5zM49 997q1 76 39 139t71 89q75 59 139 90q1 2 -5 -13l-3 7l-11 -13q-16 -16 -17 -39l-5 10l-11 -14q-17 -22 -13 -50q-5 5 -9 7l-13 11l-4 -16q-7 -20 1 -40l-4 2t-3 3l-14 9l-4 -16q-5 -28 13 -53q-14 3 -24 5l-17 1l5 -16q5 -18 21 -32l-9 2 l4 -17q4 -19 17 -30h-4l5 -16q4 -18 17 -29h-6l5 -16q4 -19 23 -33h-7l7 -15q9 -22 30 -30l-10 -2l8 -15q10 -17 25 -24l-4 -1l9 -14q16 -26 50 -31l-8 -3l11 -12q14 -14 34 -19l-9 -3l11 -13q10 -13 28 -20l-3 -1l11 -13q11 -14 28 -18l-6 -3l12 -12q15 -16 36 -19l-5 -3 q-41 12 -78.5 25t-58.5 21q-170 58 -232 136q-63 78 -63 157zM118 303l44 -27q44 -26 120 -49q-18 -13 -46.5 -16t-34.5 -3q152 -73 337 -85q18 108 27.5 232.5t12.5 251.5q9 0 17 3l3 -4q2 -1 6 -5q3 -124 11.5 -247t26.5 -233q185 7 329 79q-11 0 -36.5 3.5t-40.5 16.5 q75 24 120 50l44 25l-18 -73q-17 -74 -64 -97l4 31q5 30 -2 42q-80 -63 -131.5 -86t-92 -40t-77.5 -44t-88 -97q-56 73 -89 100.5t-69 44t-88 40.5t-144 90q-8 -12 -3 -43l4 -31q-48 24 -56 61zM171 1103q43 -4 51 -23l8 -18l-25 6q-25 5 -34 35zM187 1056q42 -8 49 -27 l7 -19l-25 8q-25 8 -31 38zM195 1161q36 -24 34 -45l-2 -20l-19 17q-14 13 -14 34q0 7 1 14zM205 1010q42 -6 49 -24l8 -19l-25 7q-25 6 -32 36zM208 182q70 -48 114.5 -71t77.5 -36q58 -27 87 -50q-137 18 -155.5 53t-118.5 66q-4 15 -5 38zM217 1201q34 -27 31 -47l-4 -19 l-18 18q-12 12 -12 29q0 9 3 19zM221 966q42 -4 51 -22l8 -19l-25 5q-25 6 -34 36zM232 1050h9v12l-1 6q-2 6 -6 15l4 9l2 9q2 9 -1 23l9 -6l6 11l4 9q3 10 0 25l4 2l8 9q8 9 9 28l8 6q18 0 21 38l3 1l9 6q9 6 15 22l8 4l11 7q10 7 16 25l6 2l12 7q11 8 17 29l3 -9l12 5l2 1 q3 2 7 6q39 0 70 -9t61 -19v-31.5v-32.5q-36 3 -53 -4q-85 -32 -103 -78q-10 -26 -9 -51q-1 -19 5 -37q14 -42 40 -72l25 -31q19 -18 99 -34q0 -66 0.5 -136.5t0.5 -142.5q-9 4 -24 6l-2 3l-7 8q-7 8 -22 13l-5 9l-7 9q-8 10 -26 14l-3 7l-9 11q-8 11 -29 15l9 4l-6 11 l-12 12q-12 13 -41 12l-2 5l-5 11q-6 10 -24 18l-2 6q0 17 -27 30l-2 10l-5 12q-5 12 -23 22v3l-3 11q-2 10 -14 22l-1 9l-3 12q-2 12 -16 24v7l-2 14q-3 13 -20 26zM244 919q42 2 53 -15l11 -18l-26 2q-26 2 -38 31zM246 1198q-3 8 -4 16q0 16 13 32q21 -38 11 -55t-11 -17 q1 0 -9 24zM271 873q42 5 55 -11l12 -16h-26q-26 0 -41 27zM274 1242q-2 6 -2 12q0 18 15 35q18 -40 6 -56l-12 -16q1 1 -7 25zM301 834q42 7 55 -9l13 -16l-26 -1q-26 -1 -42 26zM302 1282q-1 4 -1 8q0 21 21 38q12 -42 -2 -56l-14 -15q0 -1 -4 25zM336 1315v5q0 22 22 39 q11 -42 -4 -55l-15 -14zM353 790q40 15 55 2l16 -14l-25 -6q-25 -5 -46 18zM370 1353q0 23 24 40q10 -43 -6 -56l-16 -13zM389 754q41 12 55 -2l15 -14l-26 -4q-26 -4 -44 20zM412 1380q0 3 -1 7q0 22 21 38q12 -42 -2 -56l-15 -14q1 -1 -3 25zM424 721q41 14 56 0l15 -14 l-25 -5q-25 -5 -46 19zM441 1151q0 14 7 20q31 0 62.5 0.5t63.5 0.5v100v98q-73 13 -73 88q0 90 89 90q90 0 90 -90q0 -74 -74 -88q0 -18 -0.5 -98t-0.5 -100h63t64 -1q6 0 5.5 -20.5t-5.5 -20.5h-128q-2 -102 -4 -225v-83q0 -84 2 -170q-8 2 -15 2l-6 8h-1q-1 1 -1 2v101 q-1 75 -1 147q-2 120 -3 218h-127q-7 3 -7 21zM453 1412v5q0 22 21 39q11 -42 -4 -56l-14 -14zM458 688q40 15 56 2l16 -13l-26 -6q-25 -6 -46 17zM500 656q38 21 55 10l17 -11l-24 -9q-24 -10 -48 10zM527 1458q0 -63 63 -63q64 0 64 63q0 64 -64 64q-63 0 -63 -64z M545 627q36 24 53 15l18 -10l-23 -12q-23 -11 -48 7zM606 614q40 16 56 3l16 -13l-26 -6q-25 -6 -46 16zM614 797q0 75 2 145q96 -19 220.5 -45t228 -74.5t161.5 -128.5q35 -49 35 -114q0 -42 -14 -90q-57 -185 -211 -316q20 40 28 80l8 39l5 32l-27 -18l-36 -22 q-37 -22 -100 -44q31 51 39 115q1 10 1 20q0 66 -58 114q-68 54 -152 90q-20 23 -53 23l-3 7l-14 13q-13 13 -43 9l-6 7l-3 2l-5 5q-3 65 -3 130v21zM620 1246v22v22v17q1 0 2.5 -0.5t3.5 -0.5l63 -19l151 -101q4 11 4 25q0 35 -26 83q-37 68 -43 83q96 -25 162 -79 q35 -29 70 -28q30 0 60 21q0 -12 -19 -68t-44.5 -121.5t-50.5 -122.5t-35 -69q-42 60 -46 124t-72 125q-60 51 -180 87zM672 590l25 1h2q24 0 41 -24q-43 -9 -50 -1zM680 11q36 30 102 57q34 14 78.5 35.5t107.5 69.5q-2 -15 -4 -31l-2 -15l-1 -9q-62 -37 -114 -54 q-104 -22 -167 -53zM717 554l25 -7q24 -7 33 -36q-44 5 -47 15zM737 511l24 -8q24 -8 32 -37q-43 6 -46 16zM754 463l24 -9q23 -10 29 -40q-43 9 -45 19zM766 245q2 12 6 25l3 14l19 -10q19 -11 19 -37q-14 -28 -15 -17q-2 34 -18 16q-14 -15 -14 2v7zM770 418l22 -12 q23 -13 24 -43q-41 15 -42 25zM775 373l22 -13q22 -14 22 -44q-41 16 -42 26zM782 326l21 -15q21 -15 19 -45q-40 18 -40 28v32zM848 168q17 13 41 38q9 -8 31 -13q-44 -18 -72 -25z" />
<glyph unicode="T" horiz-adv-x="1625" d="M-14 1314q9 51 56 51h5q40 -3 131 -5t198 -3t212 -1h174h173.5t212.5 1t198 3t132 5h5q45 0 55 -51q3 -19 4 -39q0 -39 -12 -84q-18 -69 -57.5 -133t-86.5 -80l-15 86q-15 87 -75 164q-28 35 -115.5 55t-186.5 31q-83 -66 -88 -141t-6 -182v-100q2 -183 16.5 -403.5 t29.5 -411.5q2 -24 29 -30.5t27 -9.5v-35h-77l-1 11q-2 41 -21 48.5t-22 7.5h-1q0 15 0.5 35t0.5 32q9 6 11 18l2 12l-1 14h-14h-19l-9 157l-6 124q0 4 -4 90l-4 86l-1 31q-2 63 -3 104.5t-1 42.5v1q-1 17 11 37q16 31 13 60l-2 12h-12h-18v30v7l-6 4q-12 8 -18 10t-19 5 q-1 2 1.5 27t2.5 45q0 8 -0.5 14.5t-0.5 9.5h-27q-1 -2 -3 -30q-1 -21 1.5 -44t-0.5 -23q-15 -3 -23 -7l-8 -4l-7 -4v-8l-1 -32h-18h-12l-2 -11q-1 -7 -1 -14q0 -23 14 -52q11 -22 11 -33l-52 -635h-13h-14v-14q0 -10 8 -23v-79q-27 -7 -31 -29l-4 -23v-10h-84v35 q0 3 27 9.5t29 30.5q15 191 29 411.5t17 403.5v100q-2 106 -7 181.5t-86 141.5q-99 -11 -185 -31t-113 -55q-60 -77 -75 -164l-16 -86q-47 16 -86.5 80t-57.5 133q-11 45 -11 83q0 21 3 40zM667 51v96h51v-96h-51zM674 170l6 82q44 9 80 26t77 57l9 -164zM690 370 q57 19 99 51.5t42 38.5q0 5 -4 90l-4 86q-46 -45 -77.5 -59.5t-41.5 -22.5zM713 664l13 154l89 6l3 -77l-26 -27q-27 -27 -79 -56zM732 51v96h50v-96h-50zM743 918v30h15v-30h-15zM762 918v30h16v-30h-16zM783 918v30h16v-30h-16zM799 51v96h50v-96h-50z" />
<glyph unicode="U" horiz-adv-x="1323" d="M0 1320v33l102 1h141h140l102 -1v-33l-57 -46q-23 -18 -33.5 -94t-11.5 -188v-89q-22 5 -53 15l-14 4l-4 -14q-39 -132 -49 -235q-4 -40 -4 -77q0 -57 10 -105l4 -16l15 6q35 13 93 31v-19v-20l-29 -11l-9 -4v-9q0 -33 1 -48q1 -23 6 -47v-1h-3l3 -17q2 -18 10 -47 q6 -27 14 -45l-7 1l7 -20q13 -33 26 -56q15 -29 31 -47l-11 -5l12 -14q12 -19 30 -34q16 -17 30 -25l-1 -2l-6 -11l10 -7q25 -19 57 -28q30 -9 60 -9h12l2 11q3 17 1 25h4h5q0 -2 0.5 -3.5t1.5 -2.5q1 -3 -1 -14l-4 -16h18q38 0 76 14q38 15 69 43l22 18l-17 4l9 9l10 10 q5 6 10.5 13t11.5 14l15 22h-13q18 26 31 54q15 31 26 65l4 13l-5 2l1 4l9 36q3 12 7 38l2 15h-3l1 3q2 13 4 41t2 42v10l-9 4l-34 13v23v22q49 -18 99 -44l12 -6l7 12q25 47 25 108q0 19 -3 41q-11 86 -30 174q-13 55 -20 101l-3 16l-15 -5q-12 -3 -23 -6l-22 -6 q15 26 15 59q0 13 -2 27q-8 50 -21 99q-11 42 -13 57l-4 17l-13 -5q-12 97 -37 116l-56 46v33l102 1h140h140l102 -1v-33l-57 -46q-23 -18 -33.5 -94t-11.5 -188v-99q2 -277 8 -459q1 -21 1 -42q0 -152 -36 -245q-41 -105 -154 -143q-96 -33 -278 -33q-33 0 -69 1 q-36 -1 -69 -1q-183 1 -279 33q-112 38 -154 143q-36 92 -36 242q0 23 1 45q6 182 9 459v99q-2 112 -12.5 188t-32.5 94zM283 494q-10 47 -10 102q0 130 53 308q103 -32 168.5 -40t136.5 -8l2 35q-16 1 -33 1q-38 0 -77 -5q-11 -1 -22 -1q-45 0 -87 23q-7 27 -7 59 q0 74 36 176q107 -43 188 -47l2 156h-42l-30 73h72l1 42q-36 14 -35.5 -1t-51.5 0q37 15 36.5 32.5t50.5 15.5v16q0 6 9.5 6t9.5 -6l1 -105h71l-31 -73h-40v-28l1 -128q95 0 217 47q12 -58 30 -126q7 -27 7 -51q0 -35 -17 -62q-48 -22 -96 -22l-24 1q-60 7 -118 7l1 -35 q71 3 140.5 11.5t160.5 35.5q16 -102 44 -220q11 -47 10 -87q0 -62 -25 -108q-161 86 -311 86q-32 0 -64 -4q-179 -22 -327 -76zM357 449l251 100v-19q-1 -1 -2 -67q-12 -4 -11 -11t-6 -10q-29 -15 -52 -21q-27 -3 -53 -11.5t-51 -15.5q-15 -5 -36.5 -21t-24.5 -16 q-2 -1 -8 0q-7 40 -7 92zM364 338q6 0 8 1q3 0 24.5 15.5t36.5 20.5q25 8 51 16.5t53 11.5q24 6 52 21q7 3 6 9.5t11 11.5q0 -23 -0.5 -49.5t-0.5 -54.5h-1h-2q-13 -8 -24.5 -6.5t-15.5 -3.5q-15 -15 -12 -15.5t-24 -15.5q-24 -14 -68 -33t-71 -19q-16 44 -23 90zM387 230h3 q26 0 68 18q44 20 68 34q27 15 24 15.5t12 15.5q4 5 15.5 3.5t24.5 6.5h2h1v-59.5v-57.5h-7l1 -2q-2 0 -2 -0.5t-1 -0.5q-3 0 -56 -19t-54 -23q-6 -3 -13.5 -9t-11.5 -7q-2 -6 -18 -16q-33 40 -56 101zM443 111q16 10 18 16q4 0 11.5 6.5t13.5 9.5q1 4 54 23t56 19h1h2l-1 3 h7q0 -21 0.5 -39.5t0.5 -34.5q-2 0 -6 -2q-36 -12 -43 -7t-32 -24l-2 -1l-17 -22l-3 -5q-32 21 -60 58zM503 35l3 5l17 22l2 1q25 29 32 24t43 7q4 2 6 2q1 -67 7 -74q1 -9 -1 -22q-57 0 -109 35zM643 196l3 -3q3 0 5 2q2 -3 17 -8t26 -13q1 -1 39.5 -16.5t50.5 -20.5 q12 -6 17 -9t20 -6t9 -2q-18 -25 -43 -48q-2 0 -38.5 13.5t-36.5 16.5q-8 0 -25 8t-31 4l-3 4h-8q-1 17 -1.5 36.5t-0.5 41.5zM643 214v62t1 62l11 -7q15 -10 28.5 -21t38.5 -15h4q32 -6 43 -6t38 -2q6 -1 19 -6t19 -8q10 -5 20 -8.5t22 -7.5q-22 -70 -57 -118q-4 0 -9 1 q-15 3 -20 6t-17 9q-12 5 -50.5 20.5t-39.5 16.5q-11 9 -26 13.5t-17 7.5q-2 -2 -5 -2zM644 356q0 25 0.5 48.5t0.5 43.5q16 -8 21 -11q-4 8 22 -18q23 -23 53 -23q9 0 17 2q42 8 53 0q12 -10 24 -11t24 -20q9 -17 44 -19q-7 -44 -16 -72q-12 3 -22 7l-20 8q-6 2 -19 8 t-19 6q-27 2 -38 2t-43 6l-4 1q-25 3 -38.5 14t-28.5 21zM645 100h8l3 -4q14 3 31 -5t25 -8q0 -3 36.5 -16t38.5 -13q-64 -54 -136 -54q3 14 0 22q-5 7 -6 78zM645 467q1 33 1 63l1 19l262 -102q0 -42 -6 -81q-34 2 -44 19q-12 19 -24 20t-24 11q-11 8 -53 0q-9 -2 -17 -2 q-30 0 -53 23q-26 26 -22 18q-6 4 -21 12z" />
<glyph unicode="V" horiz-adv-x="1832" d="M4 1355h567l2 -31q0 -3 -40 -12.5t-64 -59.5q-1 -3 -1 -8q0 -20 22 -74q28 -66 78 -159l-68 75v0l-1 1q-7 8 -20 8t-20 -7l-1 -1l-73 -74l-1 -1v0q-8 -8 -8 -20q0 -11 8 -20q1 0 1 -1l168 -152q3 -4 6.5 -6.5t6.5 -5.5q29 -29 55 -29q13 0 24 7l44 -45l5 -5q0 -2 -1 -3 q-14 -35 -14 -73q0 -39 14 -73q15 -36 42 -63q2 -3 4 -4.5t5 -3.5h-1l-102 -103q-76 130 -159.5 273.5t-157 266t-128.5 208t-73 102.5q-19 17 -38 34.5t-40 22.5q-31 6 -41 36zM395 982q-6 4 -6 9.5t6 11.5l73 74q11 11 22 0l152 -169q24 -27 36.5 -42.5t-8.5 -39.5 l-132 132q-26 22 -37 24q-6 1 -8 -1q-4 -4 -2 -8q1 -15 23 -39l131 -132q-27 -20 -42.5 -7.5t-39.5 34.5zM494 979q10 9 43 -22l179 -180q-8 -12 -17 -27l-184 185q-24 27 -24 38q1 4 3 6zM611 341q-10 10 -10 20t10 20q11 11 26 8l116 116q9 -9 27 -17l-121 -121 q1 -17 -8 -26q-20 -20 -40 0zM673 356v2v3l117 117l5 5q0 -1 0.5 -1.5t1.5 -0.5q35 -14 74 -14h1h3q53 -92 88 -150l35 -58l14 33q13 33 36 90l20 -20q0 -5 2 -13q3 -11 10 -17q4 -4 6 -5q-31 -72 -58 -135l-48 -112q-30 -70 -68 -75q-9 -1 -16 -1q-23 0 -29 11 q-8 12 -62 108t-132 233zM693 659q0 74 52 126t126 52q73 0 125 -52q52 -51 52 -126q0 -76 -52 -126q-52 -52 -125 -52q-74 0 -126 52t-52 126zM718 588q14 -28 34 -48q22 -21 43 -31l25 69h1q-4 2 -18 14q-11 13 -12 16l-2 -1zM720 734h1l69 -25q8 12 13 17q13 11 17 13v2 l-20 70v1q-28 -14 -48 -34q-22 -22 -32 -44zM785 659q0 -35 25 -60t61 -25q35 0 60 25t25 60t-25 60t-60 25q-36 0 -61 -25t-25 -60zM921 739q8 -4 17 -13q7 -7 13 -16h1l1 1l67 24q-14 26 -31 43q-20 20 -42 31l-25 -69v0zM922 578l20 -71q25 11 47 33q20 19 34 49l-70 20 h-1q-6 -9 -14 -17q-7 -7 -16 -13v-1zM962 488q18 10 26 17l116 -116q15 3 26 -7q20 -20 0 -40q-10 -10 -20 -10l-20 10q-10 11 -7 25zM1025 776l180 180q33 32 42 23t-21 -44l-184 -185q-8 12 -17 26zM1062 866q12 16 37 42l153 168q9 11 21 0l73 -73q11 -12 0 -22 l-168 -152q-24 -23 -39.5 -35t-42.5 8l131 131q20 24 24 39q0 6 -3 8q-1 2 -8 2q-15 -4 -37 -25l-132 -132q-13 16 -13 28q0 7 4 13zM1072 442q35 89 79.5 201t84.5 219l120 109v1h1q8 8 8 20t-8 20v0v1l-48 47q34 97 39 129q1 7 1 14q1 65 -69 89q-76 27 -77 27 q-18 9 -25 23l-7 13h574q-4 -18 -23 -27l-18 -8q-123 -8 -186 -74t-72 -87t-115 -264.5t-213 -491.5q-3 1 -9 1z" />
<glyph unicode="W" horiz-adv-x="1829" d="M0 1354h482l-3 -31q0 -3 -41 -12t-71 -60q-5 -8 -5 -28q0 -35 15 -107q23 -112 60.5 -252.5t77.5 -277.5t62 -207q-48 3 -60 22q-3 4 -3 9q0 6 1 9q3 6 1 6l2 29h-2h-1h-2l-1 -1q-19 -5 -28 -25q-6 -11 -6 -24q-2 -15 7 -27q21 -36 105 -41l1 -2q-95 0 -121 42 q-9 13 -9 28q0 16 6 31q17 42 49 44l-1 28q-52 -2 -76 -59q-11 -24 -9 -43q0 -24 12 -45q35 -62 156 -64h1h2q64 0 80 52t24 126q7 79 32 162t127 116q-3 -3 -4.5 -6.5t-3.5 -6.5l-5 -5l-4 -4q-12 -16 -12 -32q-25 -48 -52 -114l-9 -1q0 -11 1 -17q-54 -130 -103.5 -266.5 t-93.5 -214.5q-39 -71 -105 -85q-20 -4 -33 -4q-25 0 -25 16q0 3 1 7v5q0 33 -34 202q-38 187 -90 408t-105.5 411t-78.5 217q-18 16 -34 33.5t-37 22.5q-31 6 -37 36zM444 402q16 90 72 91q-51 -2 -69 -89q-2 -8 -2 -16q0 -68 143 -68h11q78 1 80.5 121t16.5 165 q24 79 88 125t132 65q50 14 93 14q16 0 31 -2q55 -7 63 -34q8 -31 8 -56q0 -82 -85 -98q-25 -5 -44 -4q-70 0 -81 56q-8 35 27 37t38 -3q-18 4 -30 4q-26 0 -26 -19q0 -14 14 -38q21 -39 55 -39q30 0 69 31q24 18 45 51.5t12.5 60.5t-60.5 35q-11 2 -25 2q-53 0 -148 -25 q-106 -28 -137.5 -103.5t-40.5 -154.5t-20 -141q-11 -61 -73 -60h-2q-157 3 -157 78zM492 398q12 42 24 42q-16 -2 -16 -41q0 -33 99 -35h1q29 0 32 57q3 58 16 135t56 153t155 112q104 33 168 33q24 0 43 -4q67 -18 82 -63q6 -17 6 -36q0 -30 -15 -64q-24 -55 -62 -84 q-40 -31 -85 -31q-16 0 -32 4q-64 14 -106 87q-13 22 -13 39q0 34 56 42q19 3 33 2q51 0 58 -31q-9 23 -43 23h-14q-46 -6 -58 -33q-9 -20 -10 -36q0 -29 30 -47q38 -23 85 -23q10 0 21 1q59 6 105 50q29 28 30 74q0 26 -9 57q-13 42 -76 53q-22 4 -46 4q-43 0 -93 -14 q-76 -20 -147 -72.5t-97 -136.5q-14 -44 -16 -156q-2 -109 -52 -109h-3q-109 5 -109 40zM596 334l1 2h1q13 -2 27 7q-12 -9 -27 -9v0h-2zM765 791q33 108 91 136q49 24 89 24q7 0 14 -1q-3 -24 -6 -45.5t-3 -45.5q-44 -8 -95 -24q-50 -17 -90 -44zM788 583q16 -55 46 -173 q30 -115 84 -115h3q-3 -2 -15 -3h-12q-53 30 -78.5 138t-27.5 153zM841 583q2 -35 25 -131t54 -114q-2 -10 -1 -15h-1q-26 -1 -60 105q-24 71 -23 117q0 22 6 38zM876 756q46 12 88 19q4 -14 7 -21q-15 5 -35 7q-25 1 -49 -6q-2 -1 -8 -3q-2 2 -3 4zM930 671q-2 6 -2 11.5 t2 8.5q8 6 33 1l25 -6l-9 24l5 2q5 -15 12 -33t16 -39q-32 -12 -55 2q-20 11 -27 29zM954 724q6 0 14 -4q4 -2 5 -3q-2 2 -4 3h-1q-4 2 -14 4zM970 561q13 -3 27 -3q22 0 46 8q22 -53 45 -104t39 -86h-1l-1 1q-47 50 -90 178l-28 -8q7 -33 17 -68t27 -69q-34 52 -67 129 l-5 -2q-3 6 -5 12zM971 533q51 -114 123.5 -201t215.5 -94q-3 -3 -15 -3q-31 1 -119 23q-122 32 -205 275zM1021 551q40 -120 93 -184t191 -85q4 -13 5 -17q-165 9 -217.5 103t-71.5 183zM1054 343q9 -12 19 -22q62 -70 143 -94q33 -10 59 -10q19 0 35 5q4 1 10 5l25 23 l-16 1l-5 19q-2 6 -3 8q-2 6 -4 9l-3 7l-7 2q-95 14 -151 54q16 51 57.5 190t82.5 289q40 151 66 275q18 84 18 121q0 19 -4 26q-30 51 -71.5 60t-41.5 12l-2 31h481q-7 -30 -36 -36q-22 -5 -38.5 -22.5t-32.5 -33.5q-27 -27 -80.5 -217t-106 -411t-90.5 -408 q-33 -165 -33 -200q0 -5 1 -7q1 -4 1 -7q0 -16 -25 -16q-13 0 -33 4q-66 14 -105 85q-26 45 -53.5 112.5t-56.5 145.5z" />
<glyph unicode="X" horiz-adv-x="1509" d="M0 1354h84v1l140 -1l140 1l1 -1h143l4 -34l-45 -46q-6 -6 -6 -17q0 -26 35 -79q50 -75 130 -188l11 -15h-1h-1h-1v-1h-1h-1h-1l-1 -1h-1h-1h-1v-1h-1q-10 -4 -14 -8l-6 -7l-12 -12h-3v-3l-5 -5h5v-4q-2 -1 -3.5 -2t-2.5 -1l-134 163q9 14 5 29q-3 14 -17 25q-16 10 -31 3 q-14 -8 -18 -21q-11 3 -19 3q-10 -2 -18 -8q-7 -9 -8 -16q-3 -12 4 -26q7 -12 15 -18q8 -8 19 -9q11 0 16 2l141 -164q-3 -5 -3 -7q-3 -4 -5 -11q0 -7 1 -9h-1l-5 -4l-17 -13l12 -7v0v-1v-4v-5l1 -11l1 -1v-1v-2l3 -6v-1l-3 -2l3 -8v-3l-1 -1l-1 -8v-3q-2 -5 0 -12 q3 -9 4 -11q1 -7 6 -11q0 -1 0.5 -1.5t1.5 -0.5l-1 -1q0 -3 -1 -4q0 -3 -1 -4q0 -4 -1 -5v-1v-1l-1 -1q0 1 -0.5 3t-0.5 4q-2 10 -6 16l-2 10l-6 1v3h-13q-23 30 -44.5 60.5t-42.5 60.5l-71 100q-84 113 -149 189.5t-101 94.5l-93 46zM2 0l4 34q3 4 45 10t60 30 q56 56 171 176t248 264q1 0 3 -2v-1l2 -7q-1 5 2 -7q0 -3 0.5 -5t0.5 -4l-1 2l-10 -12l-145 -167q-7 3 -15 2q-11 -2 -19 -9q-8 -6 -15 -18q-7 -14 -4 -26q1 -10 8 -16q6 -7 18 -8q7 0 19 3q5 -15 18 -21q10 -5 22 -1q-79 -99 -95 -126q-15 -23 18.5 -38t30.5 -19l-5 -34 h-119h-242zM340 262q-1 3 -1 6q0 7 4 12q6 10 12 15q7 6 13 6q6 1 13 -2q2 -2 4 -3l150 175l4 4l1 -6l8 -37v-1l-1 -1l-128 -155q13 -11 10 -27q-3 -11 -13 -17q-11 -8 -20 -3q-13 8 -15 28q-16 -10 -25 -8q-7 0 -11 4q-4 3 -5 10zM345 263q3 -6 4 -7t7 -3q11 0 26 10l3 2 l1 -4q2 -23 13 -28q7 -4 14 3q8 5 10 14q3 13 -9 22l-3 2l2 2l129 156l-6 30l-149 -172l-2 -2l-2 2q-2 1 -3.5 2t-1.5 2q-3 2 -9 2q-5 0 -10 -5q-7 -5 -11 -14q-4 -5 -4 -10q0 -2 1 -4zM356 1106q1 6 5 10q6 4 11 4q9 1 25 -8q3 21 16 28q8 4 20 -3q9 -8 12 -17 q3 -16 -9 -27l141 -170l1 -2l-1 -2l-21 -21l-2 -3l-2 3l-151 174q-1 -1 -3 -2l-1 -1q-7 -4 -12 -2q-7 0 -13 6q-7 4 -13 15q-4 5 -4 12q0 3 1 6zM362 1105q-1 -3 -1 -5q0 -5 3 -9q6 -9 11 -14q4 -3 10 -5q6 0 9 2q2 1 5 4l2 3l2 -3l151 -174l17 17l-142 171l-1 2l2 2 q12 8 10 22q-3 8 -11 15q-7 4 -14 2q-11 -6 -13 -27v-5l-4 3q-15 9 -26 9q-3 -1 -7 -3q-3 -3 -3 -7zM435 275l114 139l4 -10t5 -9q-72 -87 -117 -144q1 12 -6 24zM500 744l1 6v1v1v0l1 1q0 1 1 2v-1l8 -1v-2v-1l1 -1q7 -6 7 -28l1 -1v-1v-3l-2 -2h-1q-2 -3 2 -15 q2 -10 2 -12h-2q2 -2 3 -5q0 -2 0.5 -3.5t0.5 -2.5q1 -7 4 -19l2 -7v0v1q0 15 3 29q2 11 8 26l3 13l2 8l2 4q0 1 0.5 2.5t0.5 3.5q0 1 0.5 3t1.5 4q1 4 2 5v1t1 6h-1l-1 1q-6 1 -9 10q-5 9 -3 17v3l3 1v0v2q-1 2 -1 7v3l1 1l-1 2l3 2l-6 17v1l-2 11v3.5v3.5v1v2l-1 4l2 1 l-2 1l6 4l5 4q1 3 1 6l1 1v2v0q-1 0 -1 1q-2 6 3 12q2 2 2 0q-3 3 2 8q4 4 8 4l1 1l1 1v0q1 1 2 1v1h1q2 6 8 8h1l2 2v0q1 1 1 2q3 4 7 6q1 0 2 0.5t2 0.5q-1 -2 7 6h1h1q3 2 6 2h1v0v1v1l-1 5h6l-1 3l5 2l6 1l6 2v-5h1q2 0 4 0.5t5 0.5q1 0 3 0.5t5 0.5q5 7 12 4l3 6l4 -9 v-1l1 1h1h1q1 1 2 1q-4 -2 8 2h1h1h2h3q3 0 6 -1v-1h2q6 0 8 -3q1 1 5 1q0 1 1 1v0q1 1 2 1l3 2l2 -2l1 1l5 -2q4 -2 7 -2h2h3l1 -4q2 -1 4 -3q2 0 2 -2l2 -2l-1 -3l-2 -2l-1 -1l1 -1l4 -5l-1 -1q2 0 4 -2h3q0 4 1 6l4 9l5 -9l1 -2h4h5h1l2 -2q3 0 3 -1l1 -1h1l-2 -4h1v0v-1 l2 -1l6 -1l-3 -5q8 -2 12 -9v-1v-1h9h3l1 -3l4 -5q3 -6 2 -5q0 -2 0.5 -3t0.5 -2v-1v-1l4 2l1 -5l1 -4v-1h1v0q0 -1 1 -1t0 0q2 0 3 -1v-1l1 -1q0 -1 1 -1l1 -4l-1 -1h1q8 0 3 -5v-1q1 -1 2 -1q8 -6 4 -7v-1v-2.5v-2.5l-1 -4h-2q0 -2 0.5 -3.5t0.5 -3.5v-4h-2v-6l1 -2v-1 q0 -1 1 -1v-1v-1v0v0q0 -1 1 -1l2 -4l1 -3l-1 -2v-3h1q3 -2 3 -9v0v-1l6 -7l-1 -2h1l6 -8h-7v-2v-1v-1l4 -1v-4v-3v-2q1 -5 -1 -7l1 -1h1q-4 3 5 -6v0q0 -1 1 -1q5 -4 5 -6h1v-1q4 -2 7 -11t4 -9l-1 4q-2 6 -3 12.5t-3 13.5q-2 5 -4 25q-2 11 1 16q0 2 2 4l4 7v1q3 4 3 8 q0 1 0.5 2.5t1.5 3.5l1 1q0 1 1 2h-1l2 3q2 2 5 17h-1v1h-1q-1 0 -1 1l-3 1v3l-1 14l-2 2v1q-1 1 -1 2q-1 3 -1 5q0 -1 -2 1h-2v0q-1 1 -2 1h-2v0q-4 0 -9 3l-10 5l11 4h2h1v0q0 1 1 1q-1 1 -1 2l-3 6l-7 4v1v1q-3 3 -3 5v0q-1 0 -2 1q-7 4 -5 10q0 2 -3 4h-1l-13 13 q-1 0 -2 0.5t-1 1.5l-1 1q-3 1 -3 2q-1 0 -1 1h-1q-1 1 -2 1q-4 0 -7 3l-2 2l-22 10q-4 1 -21 4q-3 1 -6 1l-4 1v1q-2 0 -4 2h-1v1l-11 2h-1q-2 2 -6 2q-18 5 -31 2q-3 0 -5.5 -0.5t-5.5 -0.5q-5 0 -6 -1q-3 0 -5 -1q-6 -2 -10 -2q-7 0 -10 -1h-4h-4q-1 0 -2.5 -0.5 t-2.5 -0.5q-8 -2 -13 -1l-9 1l6 7q5 5 26 9q30 6 51 6q25 1 55 -6q29 -6 54 -17q15 -9 12 -7q24 -13 41 -28q6 -6 16 -14q9 -7 19 -17l2 -2q13 -13 19 -22q18 -33 18 -83v-5v-5q0 -27 -1 -42q0 -17 -4 -41q2 4 -2 -8q0 -4 -2 -10q0 -2 -0.5 -4t-0.5 -3q-1 -4 -3 -10 q0 -6 -4 -24q-2 -3 -2.5 -6t-0.5 -4l3 -7q2 -6 2 -10q-2 -8 -9 -17q-1 -2 -3 -4q-4 -10 -14 -20v-1v1l-2 -4t-1 -3q-2 -8 -3 -11q-5 -14 -15 -20l-1 -1v0l-5 -36l-3 -41v-1q-3 -10 -2 -9q-2 -3 -3 -5l-2 -4l-4.5 -7.5t-2.5 -4.5q-4 -12 -19 -29q-4 -6 -13 -10q-3 -3 -5 -4.5 t-3 -2.5l-1 -1q-2 -1 -18 -8q-4 -2 -5 -2h-1l-11 -5q-7 -3 -24 -5q-2 0 -3.5 -0.5t-2.5 -0.5q-3 0 -6 -1q-12 -2 -36 -2h-2h-1h-2h-1h-2v0h-1t-1 1v0h-1q-8 0 -13 1q-20 2 -23 3q-11 2 -22 8q-3 0 -5 1l-4 2q-17 7 -25 16q-14 10 -21 24l-1 1q-18 29 -18 44q-2 10 -3 29 q-2 20 -3 25q2 -7 -4 17q-2 6 -3 15h-1q-9 4 -11 13h-1l-1 1v0v0l-1 1l-4 8q-1 2 -1 6l-2 3q-1 0 -2 1q-4 2 -8 12q-1 0 -1.5 1t-0.5 2q-3 6 -2 5q0 2 -1 3l-1 1v2q-1 1 -3 5l-1 2v2q-1 0 -1.5 1.5t-0.5 2.5q-2 7 -2 12q0 10 9 14h1v1q-3 21 -3 35q-1 7 -1.5 13.5t-0.5 14.5 q-3 15 -3 30q-1 7 -1.5 14.5t-0.5 15.5zM505 744q0 -21 4 -59q3 -18 3 -31.5t3 -35.5l-4 -2q-6 -2 -6 -10q0 -5 2 -11q0 -1 3 -7q-1 4 3 -8q-4 4 4 -8q5 -12 8 -13q2 -1 3 -3l2 -4q0 -6 5 -12h1v-1q1 -1 2 -1q1 -8 12 -13q1 -9 3 -17.5t4 -16.5q6 -24 6 -54q1 -16 19 -43 q15 -28 44 -38q25 -11 30 -11q23 -6 37 -4l4 -1h2h3q11 -1 42 3q20 2 28 5l12 5q2 1 10.5 4.5t11.5 5.5l1 1q3 3 10.5 8t10.5 8q16 20 16 23.5t9 17.5q4 5 6 16l3 41l5 39q12 8 16 20q-2 -3 6 17l7 8q6 9 8 13q10 17 11 20q-1 4 -1 5v1l-4 10q3 6 8 35q1 10 4 17q0 4 1 9 l2 10q3 16 4 39t1 42q0 33 -2 48.5t-15 42.5q-3 4 -10 11t-10 12q-10 9 -18 15t-17 15q-18 16 -52 34q-45 23 -94 23h-12q-7 0 -37.5 -3.5t-36.5 -9.5q4 -1 17 2q5 0 8.5 0.5t8.5 0.5q3 0 15 3q3 0 8.5 0.5t8.5 1.5q14 3 40 -4l11 -2l8 -3v-2q18 -2 28 -6l23 -10 q2 -2 1 -1.5t2 -0.5q3 -3 4.5 -2.5t4.5 -1.5q-4 2 5 -4q0 -1 1 -1.5l3 -1.5l14 -12q7 -6 4 -8.5t3 -5.5q6 -4 4.5 -4.5t3.5 -2.5q0 -4 -1 -7l4 4l6 -9q0 -1 1 -2v-1q-1 0 5 -8q-3 1 -9 1l-3 -1q-2 0 10 -2l1 -1h2q5 -3 8 -9l2 -6l1 -15q4 -2 4 -2.5t4 -1.5q-5 -19 -8 -22 q0 -1 -2 -5q-2 -3 -2 -6t-3 -9l-3 -7q-2 -2 -3 -4q-3 -4 -0.5 -19t4.5 -19q3 -12 5 -23.5t5 -23.5v-7t1 -6q5 -12 4 -16q-2 -6 0 -13v-5v-1v-21h3v-6l4 -2q-1 -13 -5 -15v0v-1h-1v0q2 -4 2 -6v-1l-1 -1q-6 -11 -3 -16t0 -10q-3 -4 -3 -5v-2v-2h-4h-4q0 4 1 8q3 12 3 5.5 t0 11.5q0 8 2 12v-1v3q-2 8 -6 10l2 6q2 11 3 11v36q-3 11 -1 19q0 13 -1 15l-2 3v1h-1v1v2l-1 1q-3 6 -3.5 4.5t-4.5 10.5q-2 4 -7 10q-5 5 -5 6l-2 1q-12 12 -4 6q-4 2 -5 5q2 1 2 12h-4v6l-3 8h5l-3 3l3 5q-8 -3 -6.5 2.5t-1.5 8.5l-3 1l1 1l2 2l-7 1l1 1h1l3 3 q-1 1 -5 6q1 2 1 3q0 -14 -2 14h-1h1h2q0 5 -3 11l5 1q0 5 -2 7q-1 1 -2 1l-1 -1l-1 6q-4 0 -2.5 0.5t-1.5 0.5h-1v-1q-1 0 -7 3q4 0 8 6q-1 1 -3 2q-3 2 -10 2h5l1 3v0h1l-1 4q6 2 -4 -3q-2 4 -2 9q0 1 -2 7l-4 6h-13v2q0 2 -1 3q-2 6 -15 6l3 7l-11 2q4 0 6 1l-5 4h7h-1v0 l-4 2q-3 1 -11 -1l-3 6q-1 -3 1 -9l-6 1l1 -3l-5 2h-1q-3 2 -8 2l-5 6l2 1l3 1l-5 5q3 1 5 4v0v1l-3 2q-3 1 -5 3l5 1q-9 0 -14 3l-1 -4l-2 1l-4 4q-4 -2 -5 -2q3 1 -5 -3q-11 5 -9 5h-2q-6 1 -12 1q-3 -1 -5 -2t-5 -1l-6 -2l-2 5q-2 -4 0 -9q-3 0 -3 1v1l-5 2l3 2l3 3 q-5 3 -7 0l-2 -4q-7 0 -10.5 -0.5t-9.5 -0.5h-6v1v0v2l-6 -2l2 -5h-8q1 -6 -2 -6q-16 -8 -7 -2q-7 -4 -7 -7h-3.5h-2.5l-7 -7q-2 -3 -5.5 -4t-4.5 -4q-1 -2 -5 -5l-1 -2q-10 -7 -7 -3q-4 -4 -2.5 -4.5t-1.5 -3.5q-2 -3 -2 -10q-1 2 -1 -11l-7 -6q2 -2 -4 -5v-5.5t1 -4.5 l1 -12l8 -21l-5 3l4 -8h-1v0h-2q0 -7 2 -12l-4 -2q-4 -19 9 -22l4 -1l2 22h2q0 -7 -3 -26q-1 -6 -3 -13q-2 -4 -2.5 -7.5t-1.5 -6.5q-4 -16 -3 -11l-3 -13q-11 -27 -11 -54q0 -6 -2.5 -13.5t-2.5 -14.5q0 -3 0.5 -3.5t0.5 -2.5q0 -3 -0.5 -4t-0.5 -4q0 -10 -1 -13 q-1 -2 -1 -15q0 -3 3 -12q4 0 4 -4l9 1q2 0 4 -3q-1 0 -1 1h-1q-2 0 -11 -1q2 -2 4 -3q6 -2 9 -2q21 0 25 -1t22 -14l3 -2q1 -1 4 -7q4 -7 2.5 -7t3.5 -7h1v-1l1 -1l4 3l9 -14l-2 9q1 0 5 -2v0v1l3 3q0 -12 1 -14l1 -1q1 -4 -2 -8q1 -3 1 -6h-1l1 -4q-4 -5 -4 -7 q-2 -9 0.5 -13t2.5 -6l1 -10q4 0 5 1v7l1 1v0v1l1 2q0 1 1 2l-3 20v3l1 2h5q0 -4 0.5 -5t0.5 -4v-8l1 -6l1 -6l5 -3q0 3 -0.5 3.5t1.5 6.5l4 -4q-1 -4 -1 13q-2 4 2 9q2 2 3 1.5t5 2.5v-1q0 -1 -1 -2q-3 -14 -2 -13q-4 -12 -1 -13t1 -15v-3q-2 -7 -3 -8q-2 0 -5 2l5 4l-9 -2 q-4 0 -5 -2l-1 5l-1 1q-1 0 -1 1l-1 1v2l-7 -2l-1 2q-2 2 -2 1h1h1q1 1 -1 -1l-1 -1v0l-1 1v1v0q-2 1 -14 5l5 -7q-8 3 -7 8q3 14 4 10h-10l2 -5l-4 -1v15h3l4 -3q3 4 1 9q0 1 -1 2q-1 3 -1 9q-7 1 -6 1.5t-11 1.5q-3 6 -4 4.5t-3 3.5l-1.5 1.5t-0.5 2.5l-3 4v1v0l-1 1 q12 -8 -8 4q-1 3 -1.5 7t-0.5 8q-1 3 -2 7t-1 7l-2 4q-6 2 -6 6l16 -3l-2 2q-2 0 -3.5 0.5t-2.5 1.5q-3 0 -5 1l-4 2h-22q-13 14 -13 15q1 -1 3 0l-4 8l-5 5q-2 5 -4 8t0 9q-5 1 -4 1q-3 2 2 11q6 2 7 5q2 6 2 12q1 7 -0.5 13t-1.5 15l5 -2l-5 25q0 13 -1 6q0 5 -4 15t2 15 l1 1q-1 3 -2.5 13.5t-3.5 13.5l-2 2q0 4 -1 5v0v-1v-1h-1v-6zM552 696v2l1 2q1 2 4 3q3 3 5 7t5 8q2 3 6 6q6 3 8 6q3 0 5 2t5 3q2 0 7 1t6 1l31 4l4 2v-2l21 -2q0 -3 11 -5v1t0 -2v-1v0q0 3 4 -9v-3q3 -12 3 -20q-1 0 -2 6q-1 4 -9 13q-4 -1 -11 -4q-3 -2 -7 -6l-3 -3 l7 -11q7 14 1 5l2 -3v0h1l2 3q17 -5 10 -13l4 -4v-4l-8 6l2 -4l1 -2v-1v0l3 -6q-3 -2 -5 -8l-1 -3l-2 -1q-3 5 -4 7q-1 -3 0 -5l2 -8q-8 3 -10 9q-4 6 0 8.5t-9 14.5q-4 3 -4.5 5t-3.5 5q-6 1 -11 -4l-2 5q-6 0 -9 -5v0h-1v0v1h-1q-1 0 -2 -1v0h-1v-1l-1 -2q-4 -5 -5 -4.5 t-3 -2.5v-1v-1v0q-2 -3 -3 -6l-1 -2v-1v-2q-1 -3 -1 -4v-4q-2 -14 -1 -12h2l2 -1v-1v-1h-1l-3 -8q2 -1 3 -2l1 -3q-5 -1 18 -1l6 -6l-1 -6q5 1 12 5q2 0 6 1t7 2l-1 -1l-2 -2q-18 -10 -33 -10h-4.5h-3.5t-3.5 -0.5t-3.5 -0.5q-28 0 -33 15q-2 4 -3 9l3 -4q1 8 -6 35v8 q-3 9 -3 14q0 3 1 5zM614 593l3 6l1 1q2 2 6 1q3 -2 3 -13l-6 1q-2 -2 -1.5 -1.5t-0.5 -0.5l1 -1q-4 2 -6 7zM670 556v3q-5 8 -5 17q0 10 7 22l2 2l2 5q0 2 9 11q3 3 4.5 6t4.5 7q16 20 25 15q1 -1 5 -3q2 -2 4 -5v-1l2 -1q2 -2 6 -16l5 -2l1 -1l2 -3q5 -7 7 -21 q4 -14 2 -23l-2 -2v1v1v1l-1 2v1v0l-2 -3v-3q0 -4 -1 -5q-2 -1 -4 -3.5t-3 -2.5q-8 -3 -11.5 -3.5t-6.5 -1.5q-7 8 -7 9l-8 -4v-2v-1v0l-1 -5l-2 -1q-1 3 -4 7l-2 3l-2 -2t-2 -6v-1q-3 -3 -12 1q-5 0 -12 8zM736 701q2 11 4 13l1 1l6 4q6 3 3.5 4t6.5 7l8 5q-11 -11 9 4 q9 4 21 2v-1q12 -3 14 -3q26 -4 39 -15q-9 0 -22 2q-4 -6 -5 -6.5t-5 -6.5l-4 -5l-3 -6q-2 -5 -3 -5l-1 -5q2 0 7 9v1v0l7 8q-1 -1 5 -5q2 -2 4 -2q0 -1 5 -2v1v0l1 4q3 -6 3 -8q3 1 11 1q3 1 6 -1q1 -3 0.5 -2.5t2.5 -3.5q-4 -6 -3 -7.5t-2 -4.5l-7 -9q4 -2 3 -6l-2 1 q-1 -1 -1 -2q-1 -5 0 -3.5t-1 -7.5q0 -1 2 -1q0 -1 1 -1.5t2 -0.5l1 -2v-2v0l1 -1q-1 0 -1 -1l-2 -1q-3 -3 -6 -1q0 -3 -0.5 -4t-0.5 -3q-1 -4 -8 -8v1v0l-1 1q8 -12 -4 4q1 -6 -3 -6h-1v0v1v0l-3 3q-4 2 -5 3.5t-13 7.5l-2 2q-1 -7 17 -12q-2 -3 1 -8q-5 2 -5 3q-2 4 -6 7 l-1 -7q-1 1 -2.5 2t-1.5 3q-3 3 -7 6l-1 1q-2 4 -4 6q0 -11 4 -16l-2 -5l6 -3q-4 -3 -11 1q-6 2 -6.5 3t-6.5 4l-2 1h-1l-1 1l-7 6l-20 23q-4 6 -3 11q-1 1 -2 5q-2 5 1 17l2 -2l1 -2l-1 10q-3 -1 -3 -3v6q-1 1 -3 1zM750 444l2 10l11 18q-4 12 -4 9q0 1 0.5 0.5t0.5 2.5v0 v1q4 -8 -4 4l5 2l4 -6l1 -3l3 2q-2 -18 -2 -15v-4q0 -11 8 -9q6 1 6 14l-2 10q1 -3 1 15q4 0 10 -3l1 3q3 -3 15 -3q5 0 13 8v0v1l-1 -12q6 -2 6 -1l1 -2q0 6 2 3t5 9l1 1v1v1l1 2l3 9l1 2q5 22 4 23q-1 0 -3 -1q-3 -1 -6 -1q0 3 8 9q2 1 5 3q6 3 5 2l6 -1q1 -7 -4.5 -26.5 t-6.5 -28.5q-2 -6 -2 -10q2 8 -3 -7l-10 -2q-9 0 -4.5 -0.5t-4.5 0.5l1 7l-4 -4q-1 -3 0 -6t-2 -9q-1 -1 -3 -5l-6 -10q-7 -5 -12 -3l-1 -4l-7 -1l-3 -6l-1 2q0 8 -8 11v-11q-5 1 -6 2q-3 3 -1.5 2.5t-1.5 4.5q2 2 2 8q-14 -2 -19 -8zM755 361q2 2 3 4v1v1q6 14 1 10l1 1v0 l2 1l-2 2l5 5l-8 -2q9 9 10 12l-4 1l1 3q0 21 -2 18q-3 -8 6 -13l4 12l9 4q0 -7 4 -14l-4 -10l6 4v-7q2 -1 7 -3q-8 -1 -10 -8.5t-7 -9.5h-4l-8 -5q1 1 3 0l3 -3h1v0l6 -2v-1h-1q-1 -1 -1 -2h-1q0 -1 -1 -1l-1 -2q-2 -2 -10 -2q-1 0 -6 -1l1 5zM758 367zM798 592l10 2v-8 q4 -4 4 -2v2l-1 -4q4 0 -6 -5l-1 1v0l-1 2v0v1l1 2l-2 1q-2 2 -1 2t-1 4l-3 4q0 -1 1 -2zM814 345l4 3v1h1v1q1 1 7 5q2 1 4 2.5t5 3.5q2 1 3.5 3t4.5 4q13 17 20 32q2 2 2 4q1 1 1 2l124 -150q-10 -13 -6 -29q4 -18 18 -25q15 -11 31 -3q12 5 18 21q7 -3 19 -3q10 1 17 8 q7 5 9 15q1 16 -5 26q-7 12 -15 19q-10 8 -19 8q-5 1 -15 -1l-144 167l-10 11l-8 -7l1 14l4 29q2 1 7 6q5 7 9 17q2 4 2 6q2 6 2 7t1 2v1q1 1 2.5 3.5t4.5 5.5l8 12h1v2h1v1v1h1v1h1v1l1 1v1h1v1h1v1q89 -121 182 -243.5t184 -236.5q18 -23 77.5 -40.5t62.5 -21.5l4 -34 h-242h-269l-5 34q-2 4 40 19q27 9 26 27q0 10 -9 23q-38 58 -80 119t-85 123zM871 418l1 2l12 31l2 4l3 -4l151 -174q2 2 4 3q5 3 12 2q7 0 13 -6q6 -5 12 -15q5 -11 4 -18q-1 -4 -5 -10q-6 -4 -11 -4q-11 -2 -26 7q-3 -22 -15 -27q-4 -2 -8 -2q-6 0 -12 5q-11 5 -12 17 q-6 15 9 27l-133 161zM878 419l133 -162l2 -2l-3 -2q-13 -10 -9 -22q1 -10 10 -15q5 -3 9 -3q3 0 5 1q10 5 13 27l1 5l4 -3q14 -9 25 -9q2 0 8 3q2 4 3 7q1 7 -3 14q-5 9 -11 14q-3 2 -10 5q-4 0 -8 -2t-5 -4l-2 -3l-2 3l-150 173zM880 913q74 87 130 165q1 -9 6 -14 l-129 -157l-2 2q-1 0 -2.5 1t-2.5 3zM889 892l1 2l141 170q-14 12 -9 27q3 11 12 17q11 7 20 3q12 -8 15 -27q15 8 26 7q5 0 11 -4q4 -6 5 -10q1 -9 -3 -18q-9 -12 -13 -15q-6 -6 -13 -6q-6 -2 -12 2q-2 1 -4 3l-151 -174l-2 -3l-2 3l-21 21zM896 892l17 -17l151 174l2 3 l2 -3q1 -2 5 -4q2 -2 8 -2q4 0 11 5q5 5 11 14q3 7 2 14q0 1 -3 7q-4 2 -8 3q-12 0 -25 -10l-4 -2v4q-3 22 -13 28q-7 2 -15 -2q-8 -8 -10 -15q-4 -14 10 -22l2 -2l-2 -2zM928 866l140 162q5 -2 15 -2q8 1 14 5q-37 -42 -77.5 -89t-82.5 -96q-2 5 -8 17l-1 1v2zM1042 1123 q71 104 71 143q0 14 -9 20l-53 34l4 34h144v1l-3 -1l140 1v-1h102l-4 -34l-110 -46q-12 -5 -67.5 -65t-137.5 -153q4 11 3 23q-2 9 -8 16q-9 6 -18 8q-9 0 -19 -3q-5 13 -18 21q-8 3 -17 2z" />
<glyph unicode="Y" horiz-adv-x="1656" d="M-1 1354h101v1l140 -1l140 1l1 -1h143l4 -34l-45 -46q-3 -3 -3 -10q0 -19 24 -62q33 -58 87.5 -136t117.5 -161.5t111 -144.5q-3 -18 -6 -44.5t-6 -58.5l-12 3q-41 -100 -90 -186.5t-91 -149.5q3 61 4 127v45q0 46 -1 95l-184 299l-72 100q-84 113 -149 191t-101 93 l-110 46zM475 191l117 -22.5t546 -50.5l-119 -32q-33 -9 -87 -9q-145 0 -444 62zM533 189l-1 -1q-4 0 90 126q102 137 184 342l-13 -65.5t-28 -148.5t-26 -161q-9 -61 -9 -90q0 -8 1 -13l-93 11q-46 5 -72.5 5t-32.5 -5zM542 34q0 4 27 10.5t29 29.5q0 8 1 15.5t2 16.5 q126 -23 217 -30q64 -5 113 -5q21 0 40 1q3 -21 29.5 -27.5t26.5 -10.5l-1 -34h-241h-242zM738 178q15 30 32 129t31 205t23.5 189.5l9.5 83.5q33 -272 124 -465q80 -166 80 -175q0 -1 -2 1q-14 18 -156 25zM745 238q6 54 19.5 132t26.5 147q-11 -78 -22.5 -153.5 t-23.5 -125.5zM856 713q12 -17 32 -42q22 19 76.5 85.5t113 150t107 168t60.5 141.5q7 41 -9 58l-44 46l3 34h144v1l-3 -1l140 1v-1h102l-4 -34l-110 -46q-36 -15 -101.5 -93t-148.5 -191l-71 -100l-199 -320q0 -22 3.5 -81t7.5 -128q-28 72 -55 161.5t-44 190.5z" />
<glyph unicode="Z" horiz-adv-x="1728" d="M0 0q223 180 409.5 419.5t363.5 470.5l75 100q84 113 129 167t63 73q-3 0 -72.5 5t-166 5t-199.5 -11.5t-172 -45.5q-125 -62 -125 -133q-1 -7 1 -15q14 -79 15 -79q-47 16 -88 77.5t-61 129.5q-13 47 -13 88q0 19 3 37q9 57 63 66q101 16 210 16q151 0 315 -31 q153 -29 314 -29q137 0 282 21l140 23q-144 -118 -234 -219t-199 -245q-147 -198 -238 -332.5t-210 -361.5q2 -1 71 -14q70 -14 170 -20q47 -3 96 -2q58 0 118 4q114 8 206 48q164 71 164 158q0 11 -3 23l-24 101q85 -30 145 -112t79 -168q8 -35 8 -66q1 -47 -17 -86 q-27 -62 -111 -62h-8q-207 9 -325 26q-118 18 -252 26q-63 4 -142 4q-88 0 -196 -5q-204 -9 -584 -51zM376 1013l2 2l18 9l2 20v3l2 -2l14 -14l20 4l3 1l-2 -3l-9 -18l11 -17l1 -2h-3l-19 3l-14 -15l-2 -2v3l-3 19l-19 8zM382 1014l17 -7v-1l3 -18l12 13v1h1l18 -3l-9 15 l-1 1l1 1l8 16l-18 -4l-1 -1v1l-13 12l-1 -17v-1h-1zM448 918q-6 21 -6 41q0 38 20 73q30 54 90 70q21 6 41 5q38 0 73 -19l22 -13l-24 -33q-25 -32 -38 -68q-3 -12 8 -27.5t9 -26.5q-1 -6 -17.5 0t-17.5 2q-9 -31 -5 -40q-6 3 -23.5 11.5t-36.5 20.5q-1 -1 20.5 -15.5 t34.5 -18.5q-7 -30 -5.5 -44.5t1.5 -27.5q-43 0 -76 19q-54 31 -70 91zM452 920q16 -58 68 -88q33 -18 68 -19q0 -1 0 17t6 48q-53 26 -64 46q37 -24 66 -33q2 8 4.5 17.5t5.5 20.5q39 -13 33.5 -3.5t-19.5 44.5q6 24 31.5 64t25.5 41q2 -2 -14 8q-34 19 -69 19 q-20 0 -40 -6q-58 -16 -88 -67q-20 -34 -19 -70q-1 -19 5 -39zM460 922q-5 19 -5 37q0 34 18 66q29 49 83 63q19 5 37 6q34 0 66 -18q7 -4 9 -5q0 -1 1 -1.5t2 -0.5q-3 0 -4 -1q-3 2 -4.5 2.5t-4.5 3.5q-31 18 -65 18q-19 0 -37 -6q-54 -14 -80 -62q-18 -31 -18 -65 q0 -19 5 -37q15 -54 63 -80q23 -14 49 -17q0 -1 1 -2t2 -1q-31 3 -54 17q-49 29 -64 83zM509 969q8 14 24 6q16 -9 7 -23q-9 -16 -25 -7q-10 6 -10 13q0 5 4 11zM510 968q7 15 23 7q14 -10 6 -23q-8 -15 -23 -7q-10 6 -10 13q0 5 4 10zM510 968q8 14 22 6q15 -8 6 -22 q-8 -14 -22 -6q-8 5 -8 13q0 4 2 9zM511 968q7 12 21 6q13 -7 6 -22q-9 -15 -21 -5q-9 4 -9 11q0 5 3 10zM549 1028l23 6q23 6 50 -27q3 -3 -1.5 -15.5t-4.5 -4.5q-1 6 -11.5 24.5t-55.5 16.5zM558 1012q3 4 16 3q3 -1 14 -6q10 -6 13 -10q11 -11 7 -20q-3 -9 -17 -5 q-7 0 -13 5q-8 4 -11 8q-11 8 -11 17q0 4 2 8zM558 1012q5 11 21 8q10 -3 13 -4q8 -6 11 -9q13 -12 6 -27v2.5v4.5q1 10 -7 19q-5 5 -11 8q-4 2 -12 4q-9 1 -15 -3q-3 0 -6 -3zM560 1011q-2 -4 -2 -7q0 -8 10 -16q5 -5 11 -8t12 -5q11 -2 16 5q3 7 -7 18l-6 4t-6 5 q-8 4 -14 6q-12 1 -14 -2zM573 995q0 -5 5 -8q4 -3 9 -1q5 1 8 6q2 6 1 9q-2 2 -4 3q2 -2 2 -4q2 -4 -1 -7q-1 -3 -6 -5t-8 1q-4 1 -5 6q0 5 1 8q4 4 6 5h2.5h2.5l-4 2v0l-1 -1q-6 0 -7 -5q-2 -2 -2 -5q0 -2 1 -4zM578 1001q3 6 10 3q5 -4 2 -10q-3 -8 -9 -3q-5 2 -5 5 q0 2 2 5zM619 876h3l20 -4l13 16l2 2l1 -3l3 -20l18 -8l3 -1l-3 -1l-17 -9l-2 -20l-1 -3l-2 2l-14 14l-19 -5h-3l1 2l9 18l-10 17zM625 872l9 -15v-1l-8 -16l17 4h1h1l12 -13l2 18v1l16 8l-16 7h-1v1l-3 17l-12 -13v-1l-1 1zM683 1096l3 1l20 2l8 18l1 3l2 -3l8 -18l20 -2 l3 -1l-2 -2l-15 -13l4 -20v-3l-2 2l-18 9l-17 -9l-3 -2l1 3l4 20l-15 13zM689 1094l13 -12h1l-1 -1l-3 -17l16 8h1l16 -8l-4 17v1h1l13 12l-18 2h-1v1l-8 16l-7 -16v-1h-1zM853 530q75 24 95.5 52t80.5 51q-29 -46 -29 -87q0 -49 40 -94q-30 12 -86 30t-101 48zM968 742 l4 -2l101 -41l2 -1l-1 -1l-19 -37l-1 -1l-40 -27l-2 -1l-1 2l-41 104zM971 346l1 4l33 108l1 2l2 -1l42 -24h1l23 -35l1 -2l-2 -1l-98 -49zM975 734l39 -97l37 25l19 34zM978 354l91 46l-21 32l-40 22zM1014 549q0 62 43.5 106t105.5 44t106 -44t44 -106q0 -63 -44 -106.5 t-106 -43.5t-105.5 43.5t-43.5 106.5zM1019 549q0 -60 42 -102t102 -42t102.5 42t42.5 102t-42.5 102.5t-102.5 42.5t-102 -42.5t-42 -102.5zM1027 549q0 57 39.5 97t96.5 40t97 -40t40 -97t-40 -96.5t-97 -39.5t-96.5 39.5t-39.5 96.5zM1030 549q0 -56 39 -94.5t94 -38.5 t94.5 38.5t39.5 94.5q0 55 -39.5 94.5t-94.5 39.5t-94 -39.5t-39 -94.5zM1060 529q0 18 18 18q17 0 17 -18q0 -17 -17 -17q-18 0 -18 17zM1061 529q0 -17 17 -17t17 17t-17 17t-17 -17zM1062 529q0 16 16 16t16 -16t-16 -16t-16 16zM1062 529q0 16 16 16q15 0 15 -16 t-15 -16q-16 0 -16 16zM1064 592l16 16q17 17 58 2q3 -1 5.5 -14t-0.5 -7q-5 6 -23 16.5t-56 -13.5zM1072 421q47 -34 92.5 -34.5t88.5 34.5q-15 -29 -36 -84.5t-54 -97.5q-19 75 -46 97.5t-45 84.5zM1072 681q43 33 88.5 33t92.5 -33q-19 61 -46 83.5t-45 98.5 q-33 -43 -54.5 -98.5t-35.5 -83.5zM1080 582q0 7 13 11q8 2 15 2q8 0 16 -3q14 -4 16 -14q1 -8 -13 -13q-6 -2 -13 -2q-6 0 -14 2q-20 3 -20 17zM1080 582q0 14 14 18q8 2 13 2q5 1 14 -1q19 -6 19 -22q0 1 -3 7q-5 9 -16 13q-4 1 -14 1q-6 0 -12 -2q-7 -2 -12 -10 q-3 -2 -3 -6zM1082 582q0 -11 18 -16q5 -1 14 -1q5 0 13 2q11 3 11 11q-2 7 -15 13q-10 2 -15 2t-15 -2q-11 -4 -11 -9zM1098 583q0 -5 3 -9q3 -3 9 -3q5 0 8 3q4 6 4 9q0 4 -4 8v1v0h-3h-2q2 0 4 -2q3 -3 3 -7t-3 -7t-7 -3q-5 0 -8 3t-3 7t3 7l2 1l2 2q-3 0 -4 -1v0l-1 -1 q-3 -3 -3 -8zM1102 583q0 7 8 7q7 0 7 -7t-7 -7q-8 0 -8 7zM1127 472q7 -1 17 -1h6h6t6 0.5t7 0.5q25 -5 13 -2q3 0 6.5 -0.5t7.5 -0.5q3 0 6 0.5t8 0.5q-8 -3 -18 -6q-11 -3 -24 -3q-11 0 -23 3q-12 4 -18 8zM1128 475q8 2 12 4q7 1 12 5q0 -1 1 -1.5t2 -0.5q13 -5 11 -4 q8 0 18 6q2 -3 12 -5l15 -5q-6 -1 -15 -1t-13 1q-3 0 -7 0.5t-7 0.5h-7h-6q-14 -2 -28 0zM1141 507q3 7 24 4q24 6 11.5 37t1.5 61q17 14 43 7q21 -4 32 -23q-15 14 -44 15.5t-35 -19.5q-1 -32 11 -53q8 -13 3 -27q-9 5 -16 -2q-5 -5 -9 -3l-4 3l-5 3q-6 3 -13 -3zM1184 577 q1 10 17 14q8 2 15 2q11 0 15 -2q13 -4 13 -10q0 -13 -20 -18q-4 -1 -14 -1q-5 0 -13 2q-13 3 -13 13zM1184 578q1 17 19 21q8 2 14 2q5 0 13 -2q15 -6 14 -18q0 3 -3 6q-6 7 -12 10q-6 2 -12 2q-4 0 -14 -2q-12 -2 -15 -13q-2 -2 -4 -6zM1186 577q0 -8 11 -12q4 -1 13 -1 q10 0 14 1q18 3 18 16q0 5 -11 9q-4 1 -15 1q-5 0 -15 -2q-14 -4 -15 -12zM1203 581q0 -5 3 -8q4 -4 9 -4q4 0 8 4t4 8q0 5 -4 9h-1v1h-2h-2q2 0 4 -2q3 -3 3 -8q0 -4 -3 -7t-7 -3q-5 0 -8 3t-3 7q0 5 3 8l4 2q-3 0 -5 -1q-3 -3 -3 -9zM1207 581q0 8 8 8q7 0 7 -8 q0 -7 -7 -7q-8 0 -8 7zM1234 529q0 18 18 18q17 0 17 -18q0 -17 -17 -17q-18 0 -18 17zM1235 529q0 -17 17 -17t17 17t-17 17t-17 -17zM1235 529q0 16 17 16q16 0 16 -16t-16 -16q-17 0 -17 16zM1236 529q0 16 16 16q15 0 15 -16t-15 -16q-16 0 -16 16zM1248 399l1 2l23 35 v1l43 23l2 2l1 -3l33 -107l1 -4l-4 2l-98 49h-2zM1254 401l92 -46l-31 101l-40 -22zM1254 694l2 2l98 47l4 2l-1 -4l-35 -107v-2l-2 1l-42 24h-1l-22 36zM1259 693l21 -33l39 -23l33 100zM1291 457q34 48 34 93.5t-34 88.5q28 -15 83.5 -36t98.5 -54q-76 -19 -98 -46 t-84 -46z" />
<glyph unicode="[" horiz-adv-x="176" d="M-1.5 264q-12.5 94 8.5 340q0 6 -1 40t-1 88q1 76 2.5 155t-4.5 142q-3 28 1.5 62t-1.5 94q-3 36 7 76.5t10 51.5q6 5 46 40.5t80 32.5q14 -2 10 -5q-22 -9 -24 -22.5t14 -12.5q4 -11 10 -11l2 -6l2 -6q-8 3 -34 -2t-23 -24q0 -27 -8 -84t-2 -98q3 -25 0 -145t-6 -219 l-4 -20q5 -108 -1 -159q4 -62 -3.5 -160t-1.5 -123q9 -56 2.5 -132.5t40.5 -78.5q8 -3 12 12t4 23l-1 16q27 -39 11.5 -46.5t-13.5 -47.5q6 -8 20 1t15 0q-5 -8 -6 -11q-11 -46 -77.5 -12t-68.5 77q-5 80 -17.5 174z" />
<glyph unicode="\" horiz-adv-x="1335" d="M0 1354h102v1l140 -1l-44 1v-1h144l4 -34l-45 -46q-21 -21 28.5 -96t130.5 -188l71 -100q134 -183 306.5 -403.5t325.5 -412.5q18 -23 60 -29.5t45 -10.5l4 -34h-242h-78l-5 34q-3 4 19.5 10.5t8.5 29.5q-123 192 -266.5 412.5t-272.5 403.5l-72 100q-84 113 -149 191 t-101 93l-110 46z" />
<glyph unicode="]" horiz-adv-x="185" d="M-4 36q1 9 13.5 0t20.5 -1q1 40 -14 47.5t12 46.5l-1 -16q-2 -8 2.5 -23t12.5 -12q47 2 40.5 78.5t3.5 132.5q4 25 -3.5 123t-1.5 160q-7 51 -1 159l-5 20q-3 99 -6 219t1 145q5 41 -3 98t-8 84q3 19 -23 24t-33 2q-1 0 1.5 6l2.5 6q5 0 10 11q15 -1 13 12.5t-24 22.5 q-5 3 11 5q39 3 79.5 -32.5t46.5 -40.5q0 -11 9.5 -51.5t6.5 -76.5q-6 -60 -1 -94t2 -62q-7 -63 -5.5 -142t3.5 -155q-4 -118 -2 -128q21 -246 8 -340t-17 -174q-3 -43 -70 -77t-76 12q-1 2 -5 11z" />
<glyph unicode="^" horiz-adv-x="738" d="M-19 1057q19 21 37 48t111 79q7 4 66.5 58t75.5 62q17 7 28 23.5t19 23.5q9 3 -11 12.5t-27 11.5l3.5 1l3.5 1q5 -2 11 -1q12 -6 14.5 -1.5t-12.5 13.5q-4 2 10 -2q26 -10 50 -29h0.5h1.5q4 2 5.5 1t4.5 1q-4 -1 -8 -5q2 -2 3.5 -4t4.5 -3l0.5 0.5t1.5 0.5q7 -2 11 0 l3.5 -0.5l3.5 -0.5q-6 -2 -14 -6q5 -6 8.5 -9.5t4.5 -3.5q-3 -3 -6 -12.5t-11 -17.5q12 -17 27 -23q15 -8 74.5 -62t67.5 -58q93 -52 110.5 -78.5t38.5 -47.5q11 -12 -32.5 -42t-65.5 -21q-4 1 -9 1q9 -9 29 11q-11 9 -26 6.5t-4 15.5l3 -4q11 -12 24 -4q37 15 8.5 31.5 t-37.5 33.5q-4 7 -40 28.5t-51 38.5q-31 15 -64.5 47.5t-72.5 53.5q-9 5 -14.5 12.5t-19.5 17.5q-1 -1 -1.5 -1h-0.5q-39 -21 -73 -54t-64 -48q-15 -17 -51.5 -38t-40.5 -28q-9 -17 -37.5 -33.5t9.5 -31.5q13 -8 24 3l3 5q10 -19 -5 -16t-25 -7q21 -22 29 -11h-9 q-23 -9 -65.5 21t-31.5 41z" />
<glyph unicode="_" horiz-adv-x="1044" d="M20.5 67.5q29.5 65.5 61.5 66.5q57 2 125.5 12.5t242.5 -19.5q13 -3 166.5 -2t180.5 -5q29 -7 70.5 -1t61.5 6q13 -4 18.5 21.5t3.5 33.5q-4 -4 9 -4q-1 -6 7 -11q-3 -16 7 -14t18 24q3 6 3 -11q0 -40 -29 -78.5t-33 -44.5q-8 0 -37.5 -9t-55.5 -4q-42 8 -66.5 4.5 t-45.5 0.5q-70 13 -162 10.5t-145 9.5q-45 -3 -114.5 7.5t-87.5 7.5q-41 -9 -95.5 0t-58.5 -37q-3 -9 7 -13.5t16 -3.5l12 1q-30 -25 -34.5 -10t-32.5 15q-6 -8 -1 -21t-1 -14q-6 6 -8 7q-32 10 -2.5 75.5z" />
<glyph unicode="`" horiz-adv-x="182" d="M-5 1326q0 10 5.5 18t8.5 16q6 14 12 18.5t36 3.5l22 -14q12 -9 19 -13q4 -2 10 -6l22 -13q44 -35 40 -70t-30 -55l-5 -4q-7 -6 -17 -11.5t-37 0.5q5 63 -6 63t-80 67z" />
<glyph unicode="a" horiz-adv-x="908" d="M-18 299q0 157 92 214.5t202 62.5q21 1 41 1q87 1 160 -17q90 -22 86 -21l6 314l-55 3q-10 1 -22 1q-47 0 -103 -12q-69 -15 -130.5 -60t-73.5 -143l-32 50q-32 51 -52 109q-12 35 -12 64q-1 20 5 37q10 32 63 32q18 0 42 -4q181 -30 277 -32q7 0 16 -1q94 0 251 17h1 q38 0 38 -111q0 -17 -1 -37q-7 -150 -17 -327q-4 -76 -4 -147q0 -92 8 -173q11 -130 82 -130q7 0 15 1l-97 -19q-10 -2 -21 -2q-87 0 -181 141q-50 -50 -144 -95q-90 -44 -181 -44q-3 1 -7 1q-94 2 -167.5 72t-84.5 255zM210 230q16 -99 63 -150q52 -56 104 -56q27 0 55 15 q81 43 122 88l8 375q-96 47 -164 47q-36 0 -64 -13q-80 -38 -110 -122q-19 -55 -20 -116q0 -33 6 -68z" />
<glyph unicode="b" horiz-adv-x="1099" d="M0 1388q71 -4 150 -4q52 0 108 2q70 2 138 2t133 -2q-21 -16 -75 -17t-56 -49q0 -147 2 -252t5 -219q21 11 125 43q69 21 144 20q36 0 74 -4q114 -16 206.5 -111t92.5 -337q-9 -249 -96.5 -357.5t-200.5 -124.5q-25 -3 -51 -3q-87 -1 -173 41q-112 54 -169 132 q-72 -176 -316 -176q-19 0 -40 1q89 11 121 168t36 371q1 48 1 97q0 168 -9 342q-12 225 -13 369q-2 39 -43 39h-6h-9q-42 0 -79 29zM370 185q45 -65 159 -87q18 -3 34 -4q93 0 165 105q51 75 67 217q5 46 5 90q0 92 -22 172q-32 120 -122 170q-29 17 -67 17q-75 0 -182 -70 q1 -82 1 -155q0 -110 -2 -201q-4 -152 -36 -254z" />
<glyph unicode="c" horiz-adv-x="824" d="M-18 479q1 214 73 315q73 100 171 131q64 20 128 20q36 0 72 -6q102 -17 164 -38q19 -2 37 -2q55 0 99 23q9 5 16 5q22 0 21 -50q0 -37 -12 -103q-56 -86 -69.5 -94.5t-13 19t0.5 69.5t-28 57q-105 69 -179 69q-44 0 -76 -23q-90 -61 -120 -195q-19 -82 -18 -173 q0 -56 7 -116q19 -155 72 -231q63 -92 128 -92h4q67 3 124 39.5t99 74.5q26 24 42 25q10 0 16 -9q-77 -108 -202 -172q-100 -52 -197 -51q-25 0 -49 3q-120 16 -210.5 132t-99.5 373z" />
<glyph unicode="d" horiz-adv-x="1080" d="M-17 460q1 241 92 336.5t205 110.5q37 5 73 4q75 -1 145 -21q103 -32 126 -42q3 114 5 219t2 252q-3 48 -56.5 49.5t-74.5 16.5q73 3 148 2q60 0 122 -1q56 -2 108 -2q79 0 151 4q-37 -29 -80 -29h-9h-5q-42 0 -42 -40q-3 -145 -15 -369q-10 -175 -10 -344q0 -47 2 -94 q4 -214 36.5 -371t121.5 -168q-21 -1 -42 -1q-241 0 -313 176q-58 -78 -170 -132q-86 -42 -173 -42q-26 0 -52 4q-113 16 -199.5 124.5t-95.5 357.5zM233 416q16 -142 68 -217q71 -105 165 -106q18 0 34 4q114 22 159 87q-33 102 -37 254q-2 72 -2 156q0 93 3 200 q-107 70 -183 70q-36 0 -66 -16q-90 -52 -124 -171q-23 -81 -22 -172q0 -43 5 -89z" />
<glyph unicode="e" horiz-adv-x="809" d="M-20 454q-1 19 -1 38q1 228 103 331q110 111 250 116h16q130 1 245 -75q122 -80 135 -204q4 -27 4 -53q0 -145 -116 -221q-99 -66 -259 -65q-60 0 -129 9q214 59 268 183q35 80 35 152q0 41 -11 77q-30 104 -108 146q-22 12 -43 12q-50 0 -87 -74q-63 -148 -71 -317 q-1 -25 -1 -50q0 -139 38 -243q46 -124 144 -168q30 -14 65 -14q78 0 180 69q38 28 38 45q0 4 -2 6q-10 18 -33.5 30t-37.5 24t25 35q48 28 81 28q14 0 24 -5q31 -13 32 -38q0 -6 -2 -12q-34 -111 -154 -180q-104 -60 -220 -60q-17 0 -34 1q-134 10 -245 119t-129 358z" />
<glyph unicode="f" horiz-adv-x="1111" d="M0 325q0 72 112.5 100.5t168.5 28.5l2 260q-1 10 -1 20q0 74 52 149q60 85 157 135q94 49 209 49q3 0 6 -1q119 -1 230 -89q98 -93 98 -173q0 -40 -25 -77q-44 -65 -106 -65q-43 0 -94 30q-37 37 -31 52t26 30t39 42q12 17 12 49q0 17 -3 38q-58 129 -139 129 q-23 0 -47 -10q-112 -47 -118 -197l-9 -371l66 0.5t105 61.5q25 40 53 40q21 0 44 -22q27 -26 27 -56q0 -29 -26 -61q-21 -28 -100 -43q-29 -5 -59 -5q-53 0 -111 17q-6 -123 -6 -286.5t11 -247.5q-39 -76 -131 -155t-375 -136q108 39 159.5 131.5t69.5 210.5q17 106 17 222 v25q-2 130 -2 242l-66.5 -26t-66.5 -74q0 -45 -63 -45h-11q-74 4 -74 78z" />
<glyph unicode="g" horiz-adv-x="1147" d="M0 -443q-24 9 -24 40q0 43 46 128q79 147 178 219q4 3 26 11t9 -15l-97 -136q76 -12 129 -12q16 0 30 2q32 2 65 2q30 0 60 -2q66 -4 159.5 -30.5t260.5 -103.5q-60 128 -100.5 206t-52.5 281q-63 -74 -175 -119q-70 -28 -140 -28q-39 0 -78 10q-108 25 -185 142 q-71 109 -71 331v35q15 258 129 342q113 84 241 84h3q130 -1 233.5 -44.5t98.5 -42.5q72 115 304 115q20 0 42 -1q-89 -11 -119 -209q-23 -149 -23 -326q0 -58 2 -118q10 -247 50 -471.5t91 -289.5q-24 -3 -49 -3q-114 0 -237 61q-125 63 -225 63t-192 -25.5t-185.5 -58.5 t-203.5 -37zM291 456q5 -140 52 -217q69 -115 162 -115q12 0 23 2q109 16 158 78q-4 142 -4 254q0 57 1 106q3 146 36 237q-111 82 -192 82q-31 0 -57 -12q-96 -44 -140 -159q-40 -103 -40 -227q0 -14 1 -29z" />
<glyph unicode="h" horiz-adv-x="997" d="M-33 1388q71 -4 149 -4q52 0 108 2q70 2 137.5 2t133.5 -2q-22 -16 -75.5 -17t-55.5 -49q0 -147 2 -272.5t5 -239.5q53 34 151 86q90 47 177 47q9 0 17 -1q96 -5 165 -105q63 -92 63 -326v-42q0 -231 -16 -339q-16 -110 -60 -146q-35 -29 -91 -28q-15 0 -31 2 q-78 10 -201 14q64 21 96 27.5t45.5 45.5t14.5 128.5t4 272.5v22q0 239 -63 329q-27 39 -77 39q-72 0 -193 -80q2 -86 1 -159q-1 -101 -3 -179q-6 -134 -41 -250q-79 -194 -325 -194q-18 0 -36 1q88 11 120 168t36 371q1 47 1 94q1 169 -9 345q-12 225 -14 369q-1 39 -42 39 h-6h-9q-42 0 -78 29z" />
<glyph unicode="i" horiz-adv-x="393" d="M0 24q0 3 21 7.5t23 20.5q11 132 22 285.5t13 280.5v70q-2 174 -35 198l-44 31v24h79h109h108h79v-24l-44 -31q-32 -24 -35 -198v-70q1 -127 12.5 -280.5t23.5 -285.5q1 -16 22 -20.5t21 -7.5v-24h-187h-187zM46 1143q0 54 41.5 92.5t100.5 38.5q58 0 99.5 -38.5 t41.5 -92.5t-41.5 -92t-99.5 -38q-59 0 -100.5 38t-41.5 92z" />
<glyph unicode="j" horiz-adv-x="537" d="M-16 940q71 -4 149 -4q53 0 109 2q69 2 136.5 2t133.5 -2q-21 -16 -75 -17t-56 -49q0 -354 9 -606q3 -67 3 -127q0 -168 -19 -285q-27 -158 -112 -228q-75 -61 -231 -61q-22 0 -46 1q88 11 121 162.5t36 357.5q1 41 1 82q0 167 -10 342q-12 218 -13 362q-2 39 -43 39h-7 h-8q-42 0 -78 29zM106 1143q0 54 41.5 92.5t100.5 38.5q58 0 99.5 -38.5t41.5 -92.5t-41.5 -92t-99.5 -38q-59 0 -100.5 38t-41.5 92z" />
<glyph unicode="k" horiz-adv-x="1111" d="M-63 1388q71 -4 149 -4q52 0 108 2q70 2 138 2t134 -2q-22 -16 -75.5 -17t-55.5 -49q0 -197 5 -397l76 35q77 35 170 59q63 16 119 16q27 1 53 -3q79 -12 84 -105q1 -20 1 -40q1 -179 -75 -247q-84 -76 -132 -85q126 -21 176 -108.5t82.5 -185t76 -177t158.5 -83.5 q-122 -33 -201 -33q-45 0 -75 10q-85 30 -129 109.5t-79.5 192.5t-125.5 228l-53 -27q-53 -27 -81 -36q-4 10 -4 19q0 25 28 42q38 23 89 59.5t96 100.5t45 185q-9 116 -78 116q-10 -1 -21 -3q-89 -18 -199 -69q2 -85 1 -163q0 -363 -38 -549q-44 -209 -320 -209 q-22 0 -45 1q88 11 120.5 168t36.5 371q1 47 0 94q0 169 -10 345q-12 225 -13 369q-2 39 -42 39h-7h-7q-43 0 -80 29z" />
<glyph unicode="l" horiz-adv-x="529" d="M-21 1382q68 3 139 3q64 -1 130 -3q60 -2 115 -1q75 0 144 3q-38 -29 -81 -29q-4 1 -8 1h-5q-42 0 -43 -40q-2 -144 -15 -368q-11 -182 -11 -357q0 -40 1 -81q3 -214 36 -371.5t125 -169.5q-50 -4 -98 -4q-52 1 -102 5q-98 10 -167 72q-24 14 -32 177q-8 153 -8 348 q1 12 1 25q0 210 4.5 416.5t4.5 307.5q-3 48 -56 49.5t-74 16.5z" />
<glyph unicode="m" horiz-adv-x="1591" d="M-16 945q157 1 275 7q12 1 22 0q96 0 100 -54q0 -24 0.5 -47t0.5 -46q213 131 322 131h14q109 -10 150 -132q219 135 330 135q50 1 79 -27q91 -88 99 -282q7 -164 7 -339v-67q0 -204 133 -244q-64 -11 -116 -11q-166 0 -204 115q-48 143 -48 314v20v37q0 159 -24 277 q-16 78 -100 78q-58 0 -147 -36q27 -105 27 -266v-48q-4 -194 -6 -436q2 -32 15 -34.5t49 -17.5q-20 -19 -65 -19h-13h-4q-54 0 -152 -66q-56 41 -72 50.5t-76 29.5q28 14 45 21.5t19 35.5q-6 519 -16 682q-7 103 -103 103q-56 0 -142 -35q4 -210 9 -363q1 -21 1 -41 q0 -125 -27 -210q-31 -98 -117 -142q-76 -39 -223 -40q-20 0 -41 1q88 8 121 115t36 253q1 29 1 59q0 118 -10 240q-12 153 -13 252q-2 29 -50 27h-7q-43 0 -79 20z" />
<glyph unicode="n" horiz-adv-x="1096" d="M-16 945q157 1 275 7q12 1 22 0q96 0 100 -54q0 -25 0.5 -48.5t0.5 -46.5q242 138 364 138q50 -1 80 -23q104 -78 116 -262q7 -101 7 -209q0 -89 -5 -185q-1 -18 -1 -35q0 -182 101 -247q-65 -11 -118 -11q-172 0 -209 117q-45 140 -45 306v31q1 25 1 49q-1 152 -25 264 q-16 74 -101 75q-63 0 -164 -41q4 -209 9 -361q1 -21 1 -41q0 -124 -27 -209q-31 -98 -117 -142q-76 -39 -223 -39q-20 0 -41 1q88 8 121 115t36 253q1 29 1 59q0 118 -10 240q-12 153 -13 252q-2 29 -50 27h-7q-43 0 -79 20z" />
<glyph unicode="o" horiz-adv-x="1032" d="M-12 462q-2 25 -2 49q0 229 164 325q181 106 394 107q211 0 325 -135.5t114 -345.5q0 -211 -149.5 -348t-361.5 -137t-339 108t-145 377zM262 476q0 -17 -1 -34q0 -204 68 -324q58 -104 134 -104q19 0 39 7q99 33 143 105t59 301q2 33 2 65q0 184 -70 300 q-65 108 -141 108q-20 0 -41 -8q-100 -36 -143 -113t-49 -303z" />
<glyph unicode="p" horiz-adv-x="1082" d="M-26 -443q36 29 78 29h8h6q42 0 43 40q1 144 13 368q10 174 10 343v94q-4 214 -36.5 371.5t-120.5 168.5q23 1 45 1q227 0 300 -114q-6 -2 97.5 41.5t232.5 44.5q3 1 5 1q127 0 239 -84q115 -85 131 -342v-35q0 -222 -71 -331q-78 -117 -185 -143q-39 -9 -79 -9 q-69 0 -140 29q-111 44 -172 118q-3 -115 -6 -240q-1 -89 -1 -195v-87q2 -48 55.5 -49.5t75.5 -16.5q-73 -3 -149 -3q-60 0 -122 2q-56 2 -108 2q-78 0 -149 -4zM347 801q32 -90 35 -237v-105q0 -112 -3 -254q48 -62 157 -78q11 -2 23 -2q94 0 163 115q46 77 50 218 q1 13 1 26q0 125 -39 228q-44 115 -139 159q-26 12 -57 12q-81 0 -191 -82z" />
<glyph unicode="q" horiz-adv-x="1086" d="M-15 519q15 257 129 342q111 84 238 84q2 0 4 -1q130 -1 234 -44.5t99 -41.5q71 114 300 114q22 0 45 -1q-89 -11 -122 -168.5t-36 -371.5q-1 -47 -1 -94q0 -169 9 -343q13 -224 15 -368q1 -40 42 -40h6h8q43 0 80 -29q-71 4 -150 4q-53 0 -109 -2q-62 -2 -122 -2 q-75 0 -147 3q21 15 74.5 16.5t56.5 49.5q0 157 -2.5 282t-5.5 240q-62 -74 -173 -118q-71 -29 -140 -29q-39 0 -78 9q-107 26 -183 143q-71 108 -71 330v36zM234 458q5 -141 52 -218q69 -115 162 -115q12 0 24 2q109 16 157 78q-4 142 -4 254q0 57 1 105q3 147 36 237 q-111 82 -192 82q-31 0 -58 -12q-95 -44 -138 -159q-40 -103 -40 -228v-26z" />
<glyph unicode="r" horiz-adv-x="984" d="M0 945q166 0 247 4q59 3 92 3h21q32 -2 30 -13t-2 -41q0 -61 2 -90q12 4 82 50.5t155 74.5q48 16 93 15q36 0 70 -9q78 -22 109 -154q12 -56 12 -101q-1 -96 -57 -142q-60 -49 -170 -48q-42 0 -92 7q0 42 35 53t44 49q10 43 10 90q0 22 -2 44q-7 71 -41 107 q-21 22 -52 22q-19 0 -42 -8q-61 -22 -153 -144q2 -87 2 -163q-1 -267 -25 -409q-29 -169 -323 -170q-21 0 -44 1q86 8 118 115q31 108 35 255q1 33 1 67q0 114 -9 234q-12 154 -13 254q-1 29 -47 27h-8q-42 0 -78 20z" />
<glyph unicode="s" horiz-adv-x="1074" d="M-10 264q34 40 153 58q39 -54 39 -95q0 -21 -11 -38q-8 -13 -8 -28q0 -39 61 -85q91 -69 215 -69q47 0 99 10q189 36 213 198q1 6 1 12q0 49 -52 81q-58 36 -142 58t-171.5 36.5t-136.5 30.5q-134 43 -182 107q-45 61 -46 122v6q2 64 35.5 117.5t59.5 72.5q127 92 231 92 q23 0 45 -4q120 -26 267 -117q12 29 -3.5 56t-20.5 38q29 -3 51 -3q39 0 61 10q8 4 15 3q25 0 48 -40q1 -17 -36 -117.5t-54 -118.5q-53 25 -53 56q0 7 2 13q2 7 2 14q0 32 -44 69q-30 25 -112 55q-58 21 -94 21q-15 0 -27 -4q-99 -34 -99 -84q0 -19 14 -39l51 -76 q18 -21 132.5 -36t236.5 -48.5t208 -98.5q59 -45 58 -115q0 -32 -12 -69q-33 -104 -120.5 -193t-197.5 -122q-142 -27 -211 -27t-120.5 15t-114.5 41.5t-192 52.5q-49 96 -49 145q0 24 11 37z" />
<glyph unicode="t" horiz-adv-x="645" d="M-22 1101q2 12 4.5 24.5t3.5 24.5q2 12 -1.5 24.5t-6.5 24.5q45 -3 91 -9t92 -10q0 33 0.5 68.5t0.5 71.5q-3 48 -56.5 49t-74.5 17q66 2 133.5 2t137.5 -2q56 -2 108 -2q79 0 151 4q-38 -29 -81 -29h-8h-7q-41 0 -41 -39q0 -31 -1.5 -66.5t-2.5 -74.5q48 5 97 11t98 9 q-15 -38 -12 -49q2 -13 5.5 -25t6.5 -24q-50 1 -99.5 4t-98.5 6q-8 -165 -15 -360q-3 -80 -3 -156q0 -109 6 -209q10 -170 44 -287t110 -126q-22 -1 -43 -1q-145 0 -220 56q-86 64 -118 204q-28 122 -28 302q0 28 1 58q5 219 10 519l-92 -6t-91 -4z" />
<glyph unicode="u" horiz-adv-x="1096" d="M-16 942q65 11 117 11q172 -1 208 -119q41 -137 41 -296q0 -20 -1 -42q-1 -29 -1 -57q0 -148 28 -256q18 -71 104 -71q69 0 180 45q-26 84 -26 207q0 20 1 42q5 150 10 356l1 33v46.5v48.5q4 54 100 54h22q118 -6 276 -7q-38 -20 -80 -20h-8q-47 2 -48 -27 q-2 -99 -14 -252q-10 -120 -10 -235v-64q4 -146 37 -253t122 -115q-22 -1 -43 -1q-136 0 -211 34q-86 39 -120 126q-266 -151 -395 -151q-46 1 -74 19q-109 72 -119 257q-4 79 -4 163q-1 114 7 236q1 23 2 43q0 178 -102 245z" />
<glyph unicode="v" horiz-adv-x="1384" d="M0 942h479l1 -21q0 -2 -28.5 -8.5t-43.5 -41.5q-1 -3 -1 -7q1 -26 45 -116q52 -105 118 -224.5t123 -215.5l57 -96l34 86q35 86 77.5 194.5t79 208t39.5 126.5q1 5 1 10q0 43 -48 61q-53 18 -53 19q-14 6 -18 15l-5 10h462q-3 -12 -16 -18l-13 -6q-86 -6 -129.5 -51.5 t-50.5 -60.5q-5 -11 -46 -102t-95 -212.5t-110 -247t-89 -204.5q-15 -30 -70 -64q-19 -12 -37 -11q-33 0 -60 41q-9 12 -83.5 143t-164.5 287t-170.5 290t-100.5 152q-41 36 -55 39q-20 3 -29 25z" />
<glyph unicode="w" horiz-adv-x="1590" d="M0 942h479l-4 -21q0 -2 -30 -8.5t-55 -41.5q-4 -6 -4 -21q0 -28 16 -86q25 -88 59.5 -187t65.5 -179l31 -79l68 106t205 235q25 -145 109 -249l84 -104q10 4 41 86t62 182t51 189q12 56 12 84q0 17 -4 23q-25 35 -54.5 41.5t-29.5 8.5l-4 21h478q-2 -21 -23 -25 q-14 -3 -45 -39q-17 -18 -58 -118t-89 -233.5t-94 -276t-71 -244.5q-11 -43 -44 -43q-18 0 -42 12q-68 35 -89 65q-49 73 -100 148t-131 192q-69 -96 -131.5 -187.5t-103.5 -152.5q-22 -30 -92 -66q-24 -12 -42 -12q-33 0 -40 44q-15 78 -60 217.5t-96 279t-96 248.5 t-61 127q-32 36 -45 39q-20 4 -23 25z" />
<glyph unicode="x" horiz-adv-x="1147" d="M-37 -28l3 24q3 3 37.5 7t50.5 21q85 90 179.5 192t184.5 201q-33 49 -66 97t-64 93l-51 71q-60 81 -106.5 136.5t-71.5 66.5l-78 33l-3 24h72v1h200v-1h164l3 -24l-32 -33q-4 -4 -4 -12q1 -19 25 -57q36 -54 92 -134l52 -71q5 -8 17 -24q6 8 20 24l60 71q67 80 109 134 q30 38 30 57q0 8 -5 12l-38 33l4 24l260 1v-1h86l-3 -24l-93 -33q-30 -11 -85.5 -66.5t-124.5 -136.5l-61 -71q-53 -63 -92 -114q86 -114 183 -237.5t184 -231.5q12 -17 42 -21t33 -7l2 -24h-421l-3 24q-3 3 13 7t6 21q-81 127 -184 285q-57 -74 -112.5 -146.5 t-105.5 -138.5q-12 -17 7 -21t17 -7l-4 -24h-328z" />
<glyph unicode="y" horiz-adv-x="1280" d="M-10 -397q12 -2 24 -2q58 0 119 52q73 63 141 158t127 199t101 173q-83 156 -142 265l-56 100q-66 112 -117 190t-78 93l-86 46l-4 34h80h219h179l4 -34l-35 -46q-5 -6 -5 -18q0 -26 27 -78q39 -75 102 -187l56 -100q6 -10 18 -32q6 8 11 16t11 16l66 100q73 112 119 187 q33 53 33 79q0 11 -6 17l-41 46l4 34h306h-1h95l-4 -34l-102 -46q-33 -15 -93.5 -93t-136.5 -190q-42 -64 -84 -128.5t-83 -129.5q-80 -129 -162.5 -279.5t-174.5 -265.5t-198 -165q-43 -20 -90 -20q-68 0 -143 43z" />
<glyph unicode="z" horiz-adv-x="1200" d="M3 0q152 122 278.5 283t247.5 317l52 68q57 76 87.5 112.5t42.5 49.5q-5 0 -163 7q-21 1 -41 1q-130 0 -211 -39q-86 -43 -86 -90q0 -5 1 -11q10 -54 10 -53q-63 23 -101 140q-13 40 -12 67q0 54 48 62q68 10 146 10q110 0 239 -20q119 -19 237 -20q99 0 197 14l95 16 q-99 -80 -160 -148t-135 -166q-100 -133 -162 -223.5t-143 -243.5q4 -2 164 -23q45 -6 87 -6q109 0 200 39q111 48 111 106q0 8 -2 16l-17 68q117 -39 153 -188q8 -34 8 -60q0 -85 -89 -85h-6q-141 6 -229.5 18t-190.5 18q-47 3 -103 2q-67 0 -147 -4q-148 -6 -406 -34z" />
<glyph unicode="{" horiz-adv-x="282" d="M-5 658l2 3.5l2 3.5q4 0 7 4q-5 5 -6 8t-5 6q1 1 24 -3q-7 6 -22 9q-3 1 9 3h10.5h11.5q-5 12 -13.5 17t15.5 20l-2 -8q-9 -22 15 -19q46 -1 41.5 38.5t7.5 68.5q5 12 0 63t2 83q-9 39 1.5 105t2.5 117q-3 15 3 32.5t2 48.5q-3 18 8 38.5t11 26.5q6 2 47.5 18.5 t81.5 13.5q18 -3 10 -4q-23 -3 -25.5 -10t13.5 -7q4 -6 10 -6l1.5 -3.5l1.5 -3.5q-8 3 -33.5 1.5t-22.5 -11.5q-2 -14 -11.5 -43t-4.5 -50q4 -20 -9 -130.5t-11 -119.5q15 -128 -1 -175.5t-22 -88.5q-3 -16 -45 -30l32 -14q0 -6 11 -26.5t9 -38.5q-6 -31 0 -48.5t4 -32.5 q-9 -51 1.5 -117t3.5 -105q6 -32 1 -83t1 -63q11 -28 6.5 -68t42.5 -39q19 -2 15 19l-2 8q28 -18 12.5 -23t-12.5 -25q7 -4 20.5 1t14.5 1q-3 -2 -5 -6q-9 -24 -77 -10t-71 37q-7 40 -22.5 88t0.5 176q0 9 -13 119.5t-8 130.5q4 21 -5.5 50t-9.5 43q2 10 -24 11.5t-32 -1.5z " />
<glyph unicode="|" horiz-adv-x="150" d="M0 0q2 169 6.5 338t4.5 339q0 169 -4.5 338t-6.5 339h36h36h35h36q-4 -170 -11 -339t-7 -338q0 -170 7.5 -339t10.5 -338h-36h-35h-36h-36z" />
<glyph unicode="}" horiz-adv-x="277" d="M-5 20q1 4 13.5 -1t20.5 -1q3 20 -12 25t13 23l-2 -8q-9 -22 15 -19q46 -1 41.5 39t7.5 68q5 12 0 63t2 83q-9 39 1.5 105t2.5 117q-3 15 3 32.5t2 48.5q-3 18 8 38.5t11 26.5q4 2 33 14q-44 14 -46 30q-7 41 -22.5 88.5t0.5 175.5q0 9 -13 119.5t-8 130.5q4 21 -5.5 50 t-9.5 43q2 10 -24 11.5t-32 -1.5l2 3.5l2 3.5q4 0 8 6q15 0 13 7t-23 10q-7 1 9 4q39 3 80.5 -13.5t47.5 -18.5q0 -6 11 -26.5t9 -38.5q-6 -31 0 -48.5t4 -32.5q-9 -51 1.5 -117t3.5 -105q6 -32 1 -83t1 -63q11 -29 6.5 -68.5t42.5 -38.5q19 -2 15 19l-2 8q24 -15 15 -20 t-13 -17h10.5h11.5q13 -2 10 -3q-16 -3 -24 -9q25 4 25 3q-3 -2 -5 -6q-1 -2 -7 -8q4 -4 9 -4l1.5 -3.5l1.5 -3.5q-8 3 -33.5 1.5t-22.5 -11.5q-2 -14 -11.5 -43t-4.5 -50q4 -20 -9 -130.5t-11 -119.5q15 -128 -1 -176t-22 -88q-4 -23 -71.5 -37t-75.5 10q-1 3 -5 6z" />
<glyph unicode="~" horiz-adv-x="511" d="M4 418q-12 17 11.5 74.5t38.5 53.5q27 -9 60.5 -11.5t110.5 -62.5q6 -6 77.5 -33.5t83.5 -37.5q12 -12 32 -14.5t29 -5.5q6 -6 13 17.5t7 31.5l1.5 -2.5l1.5 -2.5q-1 -5 2 -11q-4 -15 1 -15.5t12 19.5q2 5 0 -10q-7 -39 -26.5 -71.5l-22.5 -37.5q-3 1 -18.5 -2t-26.5 7 q-19 15 -31 16t-21 9q-30 26 -73.5 40t-66.5 36q-21 5 -51.5 28t-39.5 23q-21 -1 -45 18t-33 -25q-7 -18 8 -21l5 -1q-18 -21 -17.5 -5t-12.5 22q-4 -6 -4 -20.5t-3 -13.5q-1 5 -2 8z" />
<glyph unicode="&#xa8;" horiz-adv-x="448" d="M0 1266q8 16 23 28.5t27 25.5q21 21 32 28.5t50 4.5l18 -21q9 -12 16 -20q5 -8 8 -9l19 -21q30 -54 -5.5 -108.5t-88.5 -86.5l-10 -6q-15 -9 -32 -17.5t-50 1.5q60 97 46 97t-53 104zM205 1266q8 16 23 28.5t27 25.5q20 21 31.5 28.5t50.5 4.5l18 -21q4 -6 7 -10t8 -10 l9 -9l18 -21q30 -54 -5 -108.5t-89 -86.5l-9 -6q-15 -9 -32 -17.5t-50 1.5q60 97 45.5 97t-52.5 104z" />
<glyph unicode="&#xad;" d="M14.5 449q21.5 65 45.5 67q42 2 92.5 12t178.5 -19q10 -3 123.5 -2.5t133.5 -5.5q21 -7 51.5 -1t44.5 6q10 -4 14 21.5t3 33.5q-4 -4 7 -4q-1 -6 5 -10q-2 -16 5.5 -14t13.5 23q2 3 2 -10q-1 -40 -22 -79t-24 -45q-6 0 -28 -9t-41 -3q-31 7 -49 3.5t-33 0.5 q-52 14 -120 11t-107 10q-33 -3 -84.5 7t-64.5 7q-30 -9 -70.5 0t-43.5 -37q-5 -21 18 -17l8 1q-22 -27 -25 -11t-24 16q-5 -7 -1 -21t-1 -14q-3 4 -5 6q-24 12 -2.5 77z" />
<glyph unicode="&#xb4;" horiz-adv-x="234" d="M0 1266q8 16 23 28.5t27 25.5q21 21 32 28.5t50 4.5l18 -21q9 -12 16 -20q5 -8 8 -9l19 -21q30 -54 -5.5 -108.5t-88.5 -86.5l-10 -6q-15 -9 -32 -17.5t-50 1.5q60 97 46 97t-53 104z" />
<glyph unicode="&#x2000;" horiz-adv-x="892" />
<glyph unicode="&#x2001;" horiz-adv-x="1784" />
<glyph unicode="&#x2002;" horiz-adv-x="892" />
<glyph unicode="&#x2003;" horiz-adv-x="1784" />
<glyph unicode="&#x2004;" horiz-adv-x="594" />
<glyph unicode="&#x2005;" horiz-adv-x="446" />
<glyph unicode="&#x2006;" horiz-adv-x="297" />
<glyph unicode="&#x2007;" horiz-adv-x="297" />
<glyph unicode="&#x2008;" horiz-adv-x="223" />
<glyph unicode="&#x2009;" horiz-adv-x="356" />
<glyph unicode="&#x200a;" horiz-adv-x="99" />
<glyph unicode="&#x2010;" d="M14.5 449q21.5 65 45.5 67q42 2 92.5 12t178.5 -19q10 -3 123.5 -2.5t133.5 -5.5q21 -7 51.5 -1t44.5 6q10 -4 14 21.5t3 33.5q-4 -4 7 -4q-1 -6 5 -10q-2 -16 5.5 -14t13.5 23q2 3 2 -10q-1 -40 -22 -79t-24 -45q-6 0 -28 -9t-41 -3q-31 7 -49 3.5t-33 0.5 q-52 14 -120 11t-107 10q-33 -3 -84.5 7t-64.5 7q-30 -9 -70.5 0t-43.5 -37q-5 -21 18 -17l8 1q-22 -27 -25 -11t-24 16q-5 -7 -1 -21t-1 -14q-3 4 -5 6q-24 12 -2.5 77z" />
<glyph unicode="&#x2011;" d="M14.5 449q21.5 65 45.5 67q42 2 92.5 12t178.5 -19q10 -3 123.5 -2.5t133.5 -5.5q21 -7 51.5 -1t44.5 6q10 -4 14 21.5t3 33.5q-4 -4 7 -4q-1 -6 5 -10q-2 -16 5.5 -14t13.5 23q2 3 2 -10q-1 -40 -22 -79t-24 -45q-6 0 -28 -9t-41 -3q-31 7 -49 3.5t-33 0.5 q-52 14 -120 11t-107 10q-33 -3 -84.5 7t-64.5 7q-30 -9 -70.5 0t-43.5 -37q-5 -21 18 -17l8 1q-22 -27 -25 -11t-24 16q-5 -7 -1 -21t-1 -14q-3 4 -5 6q-24 12 -2.5 77z" />
<glyph unicode="&#x2012;" d="M14.5 449q21.5 65 45.5 67q42 2 92.5 12t178.5 -19q10 -3 123.5 -2.5t133.5 -5.5q21 -7 51.5 -1t44.5 6q10 -4 14 21.5t3 33.5q-4 -4 7 -4q-1 -6 5 -10q-2 -16 5.5 -14t13.5 23q2 3 2 -10q-1 -40 -22 -79t-24 -45q-6 0 -28 -9t-41 -3q-31 7 -49 3.5t-33 0.5 q-52 14 -120 11t-107 10q-33 -3 -84.5 7t-64.5 7q-30 -9 -70.5 0t-43.5 -37q-5 -21 18 -17l8 1q-22 -27 -25 -11t-24 16q-5 -7 -1 -21t-1 -14q-3 4 -5 6q-24 12 -2.5 77z" />
<glyph unicode="&#x2013;" horiz-adv-x="1064" d="M18 449q30 65 64 67q59 2 130 12t250 -19q14 -3 173.5 -2.5t187.5 -5.5q30 -7 72.5 -1t62.5 6q14 -4 19.5 21.5t4.5 33.5q-6 -4 10 -4q-2 -6 7 -10q-3 -16 7.5 -14t18.5 23q3 3 3 -10q-1 -40 -30.5 -79t-34.5 -45q-8 0 -39 -9t-57 -3q-44 7 -69 3.5t-46 0.5 q-73 14 -168.5 11t-150.5 10q-46 -3 -118.5 7t-90.5 7q-42 -9 -99 0t-61 -37q-7 -21 25 -17l11 1q-31 -27 -35 -11t-33 16q-7 -7 -1.5 -21t-1.5 -14q-4 4 -7 6q-34 12 -4 77z" />
<glyph unicode="&#x2014;" horiz-adv-x="2088" d="M32.5 449q60.5 65 127.5 67q118 2 260 12t501 -19q28 -3 346.5 -2.5t374.5 -5.5q59 -7 144.5 -1t125.5 6q28 -4 39 21.5t8 33.5q-11 -4 20 -4q-3 -6 14 -10q-6 -16 15.5 -14t37.5 23q6 3 6 -10q-3 -40 -62 -79t-67 -45q-17 0 -78.5 -9t-115.5 -3q-87 7 -137.5 3.5 t-92.5 0.5q-146 14 -337 11t-300 10q-93 -3 -237.5 7t-180.5 7q-84 -9 -198 0t-122 -37q-14 -21 50 -17l23 1q-62 -27 -70.5 -11t-67.5 16q-14 -7 -2.5 -21t-2.5 -14q-9 4 -14 6q-68 12 -7.5 77z" />
<glyph unicode="&#x202f;" horiz-adv-x="356" />
<glyph unicode="&#x205f;" horiz-adv-x="446" />
<glyph unicode="&#x25fc;" horiz-adv-x="940" d="M0 0v940h940v-940h-940z" />
</font>
</defs>
</svg>
